<svg width="538" height="216" viewBox="0 0 538 216" fill="none" xmlns="http://www.w3.org/2000/svg">
<path d="M62.8534 8.9601C62.8534 9.38676 62.8107 9.68543 62.7254 9.85609C62.7254 10.0268 62.6827 10.1974 62.5974 10.3681C62.7681 10.7948 62.8534 11.1788 62.8534 11.5201C62.8534 11.7761 62.8107 12.0321 62.7254 12.2881C62.7254 12.5441 62.7254 12.8854 62.7254 13.3121C62.7254 13.6534 62.8107 14.1228 62.9814 14.7201C63.4081 15.9148 63.8347 16.7254 64.2614 17.1521C64.6881 17.4934 65.2001 17.8774 65.7974 18.3041C64.9441 19.0721 64.5174 19.7548 64.5174 20.3521C64.5174 20.8641 64.6881 21.2908 65.0294 21.6321C65.3707 21.9734 65.8827 22.2721 66.5654 22.5281C66.7361 22.6988 67.1201 23.0401 67.7174 23.5521C68.3147 23.9788 68.9121 24.1068 69.5094 23.9361L77.9574 37.7601L92.5494 56.4481C93.5734 56.5334 94.1281 55.9788 94.2134 54.7841C94.3841 53.5041 94.3414 52.1388 94.0854 50.6881C93.9147 49.1521 93.6587 47.7868 93.3174 46.5921C92.9761 45.3974 92.8054 44.8854 92.8054 45.0561C92.5494 42.5814 92.2934 40.6614 92.0374 39.2961C91.7814 37.9308 91.8667 36.4374 92.2934 34.8161C92.7201 34.3894 92.8054 33.5361 92.5494 32.2561C92.2934 30.8908 91.9521 29.5254 91.5254 28.1601C91.3547 27.3921 91.2694 26.5388 91.2694 25.6001C91.2694 24.6614 91.3121 23.7228 91.3974 22.7841C91.4827 21.8454 91.5254 20.9921 91.5254 20.2241C91.6107 19.4561 91.6107 18.8588 91.5254 18.4321C91.5254 17.5788 91.4401 16.7681 91.2694 16.0001C91.0987 15.2321 91.1414 14.5068 91.3974 13.8241C91.4827 13.4828 91.5254 13.2694 91.5254 13.1841C91.6107 13.0134 91.6534 12.8428 91.6534 12.6721C91.6534 12.5014 91.6107 12.2454 91.5254 11.9041C91.5254 11.5628 91.5254 11.0508 91.5254 10.3681L93.3174 8.5761C93.5734 8.23476 94.0001 7.97876 94.5974 7.8081C95.1947 7.63743 95.7921 7.5521 96.3894 7.5521C97.0721 7.46676 97.6694 7.4241 98.1814 7.4241C98.7787 7.4241 99.2054 7.46676 99.4614 7.5521C100.059 7.72277 100.741 7.85076 101.509 7.9361C102.363 7.9361 103.088 7.89343 103.685 7.8081L105.989 8.4481L107.397 14.7201C106.203 16.0001 105.52 17.2374 105.349 18.4321C105.179 19.6268 105.136 20.8214 105.221 22.0161C105.221 24.0641 105.264 25.6001 105.349 26.6241C105.52 27.5628 105.691 28.2454 105.861 28.6721C106.117 29.0988 106.331 29.3548 106.501 29.4401C106.757 29.5254 106.971 29.6534 107.141 29.8241C106.971 30.5068 106.672 31.1894 106.245 31.8721C105.904 32.4694 105.477 33.1094 104.965 33.7921C104.709 34.1334 104.581 34.5601 104.581 35.0721C104.667 35.4988 104.837 35.9254 105.093 36.3521C105.349 36.7788 105.648 37.1628 105.989 37.5041C106.331 37.7601 106.672 37.8454 107.013 37.7601C107.184 38.0161 107.184 38.7414 107.013 39.9361C106.843 41.0454 107.013 43.3921 107.525 46.9761C107.696 48.7681 107.653 50.3041 107.397 51.5841C107.227 52.7788 107.013 53.8454 106.757 54.7841C106.501 55.6374 106.245 56.4481 105.989 57.2161C105.819 57.8988 105.776 58.6241 105.861 59.3921C105.947 59.3921 106.032 59.7761 106.117 60.5441C106.203 61.3121 106.288 62.1654 106.373 63.1041C106.459 63.9574 106.544 64.7681 106.629 65.5361C106.8 66.2188 106.971 66.5174 107.141 66.4321C106.971 69.5041 107.013 72.1921 107.269 74.4961C107.611 76.8001 107.653 78.0801 107.397 78.3361L107.909 80.0001L102.661 81.9201C102.149 81.9201 101.637 81.9201 101.125 81.9201C100.613 81.9201 100.144 81.9628 99.7174 82.0481C98.8641 82.1334 98.0107 82.2188 97.1574 82.3041C96.3041 82.3894 95.6214 82.4748 95.1094 82.5601L92.5494 81.1521C92.6347 80.2988 92.8054 79.7014 93.0614 79.3601C93.6587 79.0188 93.872 77.7388 93.7014 75.5201C93.6161 74.7521 93.4027 74.2828 93.0614 74.1121C92.8054 73.9414 92.5494 73.6428 92.2934 73.2161L74.2454 49.1521C73.9894 48.8961 73.7761 48.6401 73.6054 48.3841C73.2641 47.9574 72.9227 47.1894 72.5814 46.0801C72.2401 44.9708 71.7281 43.8188 71.0454 42.6241C70.4481 41.3441 69.4241 40.2348 67.9734 39.2961L67.2054 32.1281C66.9494 30.8481 65.5841 30.5494 63.1094 31.2321C62.6827 31.5734 62.4267 31.9148 62.3414 32.2561C62.2561 32.5974 62.2134 32.9388 62.2134 33.2801C62.2987 33.6214 62.3841 33.9628 62.4694 34.3041C62.5547 34.6454 62.5547 34.9441 62.4694 35.2001C62.3841 35.5414 62.2987 35.8401 62.2134 36.0961C62.1281 36.2668 62.0427 36.5654 61.9574 36.9921C61.9574 37.4188 61.9147 38.0588 61.8294 38.9121C61.7441 39.6801 61.6587 40.8321 61.5734 42.3681C61.4881 43.9041 61.3601 45.4828 61.1894 47.1041C61.1041 48.6401 61.0187 50.1334 60.9334 51.5841C60.9334 52.9494 61.0187 54.1441 61.1894 55.1681C61.4454 56.1921 61.8294 56.8748 62.3414 57.2161C62.3414 58.2401 61.9574 62.4641 61.1894 69.8881C60.9334 72.6188 60.7201 74.9228 60.5494 76.8001C60.4641 78.5921 60.3787 80.0428 60.2934 81.1521L58.6294 83.2001C57.5201 83.3708 56.0694 83.5414 54.2774 83.7121C52.5707 83.8828 50.8214 84.0534 49.0294 84.2241C47.3227 84.3948 45.7014 84.5228 44.1654 84.6081C42.7147 84.6934 41.6907 84.7361 41.0934 84.7361C40.5814 84.7361 40.0267 84.5654 39.4294 84.2241C38.8321 83.8828 38.32 83.2428 37.8934 82.3041C38.4054 81.6214 38.7041 81.3228 38.7894 81.4081C38.8747 81.4081 38.7467 81.4081 38.4054 81.4081V67.3281L40.0694 64.5121L38.1494 59.7761L38.4054 56.1921C38.4054 55.7654 38.4907 55.0828 38.6614 54.1441C38.8321 53.1201 39.0027 52.0108 39.1734 50.8161C39.3441 49.6214 39.4721 48.4268 39.5574 47.2321C39.728 45.9521 39.7707 44.8001 39.6854 43.7761C39.5147 41.8134 39.3867 40.3201 39.3014 39.2961C39.2161 38.1868 39.1734 37.5468 39.1734 37.3761C39.1734 37.0348 39.3867 36.4374 39.8134 35.5841C40.3254 34.6454 40.7521 33.8774 41.0934 33.2801C41.3494 32.8534 41.4347 32.4268 41.3494 32.0001C41.264 31.4881 41.264 31.0614 41.3494 30.7201C41.52 30.3788 41.7334 30.1228 41.9894 29.9521C42.2454 29.6961 42.2881 29.7814 42.1174 30.2081C42.6294 30.4641 42.7147 29.8241 42.3734 28.2881C42.1174 26.7521 41.9467 24.8748 41.8614 22.6561L41.7334 15.8721C41.648 15.4454 41.5627 15.0614 41.4774 14.7201C41.4774 14.3788 41.2641 13.8668 40.8374 13.1841C42.032 12.5868 42.7147 12.0321 42.8854 11.5201C43.056 11.0081 43.1414 10.2401 43.1414 9.21609C43.824 8.9601 44.8907 8.78943 46.3414 8.7041C47.8774 8.53343 49.4987 8.40543 51.2054 8.3201C52.9121 8.14943 54.5761 7.97876 56.1974 7.8081C57.8187 7.5521 59.1414 7.25343 60.1654 6.91209L62.8534 8.9601ZM154.738 4.7361V14.7201C153.714 18.7308 152.861 22.2721 152.178 25.3441C151.581 28.3308 151.112 31.1041 150.77 33.6641C150.429 36.2241 150.216 38.6561 150.13 40.9601C150.13 43.2641 150.216 45.6961 150.386 48.2561C150.557 51.3281 150.472 54.1014 150.13 56.5761C149.789 59.0508 149.448 61.3121 149.106 63.3601C148.85 65.4081 148.68 67.3708 148.594 69.2481C148.509 71.0401 148.765 72.8748 149.362 74.7521L150.002 77.9521L147.826 81.6641L130.802 84.9921L126.194 82.0481C126.28 81.7068 126.749 81.2374 127.602 80.6401C128.541 79.9574 129.01 79.2748 129.01 78.5921C129.01 77.5681 129.01 76.8428 129.01 76.4161C129.01 75.9894 128.925 75.3068 128.754 74.3681C128.584 73.9414 128.797 72.5761 129.394 70.2721C130.077 67.8828 130.376 64.6401 130.29 60.5441C130.29 58.4961 130.29 57.0028 130.29 56.0641C130.376 55.0401 130.418 54.4001 130.418 54.1441C130.504 53.8028 130.504 53.6748 130.418 53.7601C130.418 53.8454 130.333 53.8881 130.162 53.8881C130.248 53.2054 130.376 52.4374 130.546 51.5841C130.717 50.6454 130.888 49.7068 131.058 48.7681C131.229 48.2561 131.357 47.7441 131.442 47.2321C131.528 46.7201 131.613 46.1654 131.698 45.5681C131.954 45.3121 131.912 44.8001 131.57 44.0321C131.314 43.2641 131.016 42.6668 130.674 42.2401C130.418 41.8134 130.29 41.6428 130.29 41.7281C130.29 41.7281 130.376 41.7281 130.546 41.7281C130.717 41.7281 130.973 41.5574 131.314 41.2161C131.656 40.7894 131.997 39.9788 132.338 38.7841L131.442 33.1521C131.613 33.1521 131.741 33.1948 131.826 33.2801C131.997 33.3654 132.082 33.3228 132.082 33.1521C132.082 32.8961 132.04 32.4268 131.954 31.7441C131.869 31.0614 131.698 29.9948 131.442 28.5441C131.101 25.7281 131.058 24.0641 131.314 23.5521C131.57 22.9548 131.954 22.6988 132.466 22.7841C132.893 22.4428 133.234 22.1014 133.49 21.7601C133.832 21.4188 134.045 20.9921 134.13 20.4801C134.216 19.9681 134.173 19.2854 134.002 18.4321C133.917 17.4934 133.661 16.2988 133.234 14.8481C132.808 13.5681 132.85 12.2881 133.362 11.0081C133.874 9.7281 134.173 8.4481 134.258 7.1681L136.946 4.48009C138.141 4.48009 139.72 4.48009 141.682 4.48009C143.645 4.39476 145.352 4.30943 146.802 4.2241C149.874 3.9681 152.093 3.8401 153.458 3.8401L154.738 4.7361ZM215.678 3.8401L217.854 5.3761L218.878 8.4481C218.622 8.53343 218.324 8.66143 217.982 8.8321C217.385 9.17343 216.66 9.64277 215.806 10.2401C214.953 10.7521 214.1 11.3068 213.246 11.9041C212.478 12.4161 211.796 12.8854 211.198 13.3121C210.686 13.6534 210.388 13.8241 210.302 13.8241L208.766 14.5921C208.084 15.0188 207.316 15.4028 206.462 15.7441L204.03 17.0241C203.604 17.1948 203.22 17.3654 202.878 17.5361C202.622 17.7068 202.324 17.8774 201.982 18.0481C201.726 18.7308 201.3 19.4988 200.702 20.3521C200.105 21.2054 199.465 22.0588 198.782 22.9121C198.1 23.7654 197.374 24.5334 196.606 25.2161C195.924 25.8988 195.326 26.4534 194.814 26.8801C194.9 27.1361 194.9 27.4348 194.814 27.7761C194.814 28.1174 194.686 28.4588 194.43 28.8001C194.174 29.2268 193.918 30.1654 193.662 31.6161C193.406 32.9814 193.15 34.7308 192.894 36.8641C192.638 37.5468 192.084 38.1014 191.23 38.5281C190.462 38.8694 189.95 39.3814 189.694 40.0641C189.524 40.8321 189.31 41.6854 189.054 42.6241C188.884 43.5628 189.14 44.1174 189.822 44.2881C190.932 44.5441 191.572 44.7574 191.742 44.9281C191.572 46.1228 191.401 47.1468 191.23 48.0001C191.145 48.7681 191.017 49.5361 190.846 50.3041C190.761 51.0721 190.676 51.8828 190.59 52.7361C190.505 53.5041 190.42 54.4854 190.334 55.6801C190.164 58.1548 190.036 60.1174 189.95 61.5681C189.95 62.9334 189.993 63.7868 190.078 64.1281L193.15 74.3681C193.918 74.5388 194.942 74.7521 196.222 75.0081C197.588 75.1788 199.209 75.4774 201.086 75.9041C204.756 76.5868 206.676 76.7148 206.846 76.2881C206.761 75.6908 208.809 74.8801 212.99 73.8561C217.257 72.9174 219.39 72.1494 219.39 71.5521L222.078 71.8081L220.414 78.7201C220.244 78.8054 220.03 78.8481 219.774 78.8481C219.604 78.8481 219.433 78.8908 219.262 78.9761C218.836 79.0614 218.366 79.1468 217.854 79.2321C217.428 79.3174 216.873 79.4454 216.19 79.6161C214.825 79.8721 213.758 80.0854 212.99 80.2561C212.222 80.3414 211.753 80.4268 211.582 80.5121C209.534 80.7681 207.913 81.7494 206.718 83.4561C205.268 85.1628 204.5 85.8028 204.414 85.3761C203.561 85.7174 202.58 85.5894 201.47 84.9921C200.617 84.2241 198.868 84.1388 196.222 84.7361L183.422 83.2001L171.134 74.7521C172.5 73.7281 171.902 70.1014 169.342 63.8721C168.66 62.2508 168.062 60.8428 167.55 59.6481C167.124 58.4534 166.74 57.4721 166.398 56.7041C166.228 56.2774 166.057 55.8934 165.886 55.5521C165.801 55.1254 165.673 54.7414 165.502 54.4001C165.417 52.6934 165.63 50.7734 166.142 48.6401C166.74 46.4214 167.166 44.3308 167.422 42.3681L169.726 40.8321C170.921 40.0641 171.774 39.2961 172.286 38.5281C172.798 37.7601 172.542 36.7788 171.518 35.5841C171.689 34.5601 171.817 33.4508 171.902 32.2561C172.073 31.0614 172.201 29.9094 172.286 28.8001C172.457 27.6908 172.585 26.7521 172.67 25.9841C172.756 25.2161 172.798 24.7894 172.798 24.7041L177.79 17.5361C177.961 17.3654 178.516 17.1521 179.454 16.8961C180.393 16.6401 181.63 16.2988 183.166 15.8721C183.934 15.7014 184.489 15.4454 184.83 15.1041C185.257 14.6774 185.556 14.2934 185.726 13.9521C185.897 13.5254 186.025 13.1414 186.11 12.8001C186.281 12.4588 186.452 12.2454 186.622 12.1601L203.902 6.91209C205.353 6.6561 206.974 6.2721 208.766 5.7601C210.558 5.2481 211.924 4.65076 212.862 3.96809L215.678 3.8401ZM211.454 54.4001C211.54 54.3148 211.582 54.2294 211.582 54.1441V54.0161C210.985 53.0774 210.43 52.3094 209.918 51.7121C209.406 51.1148 209.065 50.6454 208.894 50.3041L213.374 45.3121H217.086C217.257 45.3121 217.684 45.3548 218.366 45.4401C219.134 45.4401 220.158 45.4828 221.438 45.5681C223.913 45.7388 225.278 45.3121 225.534 44.2881H240.382C241.748 44.2881 243.156 44.4161 244.606 44.6721C246.057 44.9281 247.294 45.1414 248.318 45.3121C248.318 45.9094 248.19 46.8481 247.934 48.1281C247.678 49.3228 247.508 50.3894 247.422 51.3281C246.825 51.5841 245.929 51.8401 244.734 52.0961C243.625 52.3521 242.9 52.6081 242.558 52.8641L237.182 52.4801L236.03 55.4241C236.798 55.9361 237.524 56.1921 238.206 56.1921C238.889 56.1068 239.785 56.1494 240.894 56.3201C240.98 57.0028 240.894 58.0694 240.638 59.5201C240.382 60.8854 240.041 62.6774 239.614 64.8961C239.273 67.1148 238.889 69.7174 238.462 72.7041C238.121 75.6908 237.908 79.1041 237.822 82.9441L225.79 85.1201L225.022 81.2801C225.108 80.8534 225.15 79.7014 225.15 77.8241C225.236 75.8614 225.236 73.0881 225.15 69.5041C225.065 67.7121 225.022 66.0481 225.022 64.5121C225.022 62.9761 225.022 61.5681 225.022 60.2881V54.2721C223.06 54.4428 221.097 54.6561 219.134 54.9121C217.257 55.1681 215.934 55.4241 215.166 55.6801L213.118 55.8081L211.454 54.4001ZM319.413 40.3201C319.413 40.5761 319.328 41.0028 319.157 41.6001C319.072 42.1121 318.944 42.6668 318.773 43.2641C318.603 43.8614 318.432 44.4161 318.261 44.9281C318.176 45.4401 318.133 45.8241 318.133 46.0801C315.147 46.3361 313.184 46.5921 312.245 46.8481C311.392 47.0188 310.88 47.1041 310.709 47.1041H302.133C300.853 47.1041 299.872 47.1041 299.189 47.1041C298.507 47.0188 297.952 46.9761 297.525 46.9761C297.184 46.9761 296.928 47.0188 296.757 47.1041C296.587 47.1041 296.331 47.1468 295.989 47.2321L293.301 48.8961L289.333 47.1041C289.248 46.6774 288.821 46.2081 288.053 45.6961C287.371 45.1841 286.901 44.5868 286.645 43.9041L290.741 38.2721C292.448 38.2721 293.344 38.3148 293.429 38.4001C293.6 38.4001 293.643 38.3574 293.557 38.2721C293.557 38.1868 293.813 38.1014 294.325 38.0161C294.837 37.8454 295.435 37.7174 296.117 37.6321L298.037 37.2481C298.635 37.1628 301.408 37.2908 306.357 37.6321C306.443 37.6321 307.04 37.8454 308.149 38.2721C308.576 38.4428 309.643 38.4001 311.349 38.1441C313.141 37.8028 315.147 37.6321 317.365 37.6321L319.413 40.3201ZM319.925 75.1361C319.755 75.6481 319.627 76.2454 319.541 76.9281C319.541 77.6108 319.627 78.0801 319.797 78.3361C319.627 78.5068 319.115 78.7201 318.261 78.9761C317.408 79.2321 316.213 79.6588 314.677 80.2561C313.056 80.6828 311.52 80.7681 310.069 80.5121C308.619 80.2561 307.211 80.2988 305.845 80.6401C301.664 80.6401 297.355 81.2801 292.917 82.5601C291.723 82.9014 290.699 83.2001 289.845 83.4561C288.992 83.7121 288.267 83.9254 287.669 84.0961C287.328 84.2668 286.987 84.3948 286.645 84.4801C286.389 84.4801 286.133 84.5228 285.877 84.6081L275.893 84.9921C275.125 85.2481 274.315 85.3334 273.461 85.2481C272.608 85.0774 271.755 84.9068 270.901 84.7361C270.048 84.4801 269.28 84.2241 268.597 83.9681C267.915 83.7121 267.36 83.5841 266.933 83.5841C266.507 83.5841 265.781 83.6268 264.757 83.7121C263.733 83.7121 262.795 83.7121 261.941 83.7121C261.088 83.1148 260.32 82.5174 259.637 81.9201C258.955 81.2374 258.912 80.0854 259.509 78.4641C259.68 77.6108 259.979 76.7574 260.405 75.9041C260.917 74.9654 261.088 74.0268 260.917 73.0881C260.832 72.7468 260.619 72.1921 260.277 71.4241C260.021 70.6561 259.808 69.8454 259.637 68.9921C259.552 68.1388 259.552 67.2854 259.637 66.4321C259.808 65.5788 260.277 64.8534 261.045 64.2561C261.728 63.1468 262.027 62.1228 261.941 61.1841C261.856 60.1601 261.472 59.0934 260.789 57.9841C261.301 57.3868 261.6 56.7041 261.685 55.9361C261.856 55.0828 261.899 54.2721 261.813 53.5041C261.728 52.7361 261.557 52.0534 261.301 51.4561C261.131 50.8588 260.96 50.4321 260.789 50.1761C261.045 48.9814 261.301 47.4028 261.557 45.4401C261.813 43.3921 262.027 41.3441 262.197 39.2961C262.453 37.1628 262.624 35.2001 262.709 33.4081C262.795 31.6161 262.795 30.2934 262.709 29.4401C262.624 28.3308 262.709 27.1788 262.965 25.9841C263.221 24.7894 263.52 23.5948 263.861 22.4001C264.203 21.1201 264.459 19.8828 264.629 18.6881C264.8 17.4934 264.757 16.3841 264.501 15.3601L264.757 14.5921C264.928 14.4214 264.629 13.0988 263.861 10.6241L265.909 6.1441H266.037C267.744 6.05876 269.493 5.97343 271.285 5.8881C273.077 5.80277 274.699 5.71743 276.149 5.6321C277.685 5.54676 278.923 5.5041 279.861 5.5041C280.885 5.41876 281.44 5.3761 281.525 5.3761H299.189C299.787 5.3761 300.555 5.67476 301.493 6.27209C302.517 6.7841 305.931 7.0401 311.733 7.0401C311.819 7.38143 311.904 7.72277 311.989 8.06409C312.075 8.40543 312.16 8.74676 312.245 9.0881C312.501 10.6241 312.8 11.8188 313.141 12.6721L312.373 13.9521C311.093 14.0374 310.112 14.0801 309.429 14.0801C308.747 14.0801 308.235 14.0801 307.893 14.0801C307.637 13.9948 307.467 13.9521 307.381 13.9521C307.296 13.8668 307.211 13.8241 307.125 13.8241L297.141 12.5441C294.667 12.0321 291.595 12.3308 287.925 13.4401C286.304 13.8668 284.981 13.9948 283.957 13.8241C282.933 13.5681 282.251 13.5254 281.909 13.6961C280.885 13.3548 280.032 13.3548 279.349 13.6961C278.667 14.0374 278.453 14.6774 278.709 15.6161C278.965 16.4694 279.264 16.9814 279.605 17.1521C279.947 17.3228 280.203 17.6641 280.373 18.1761C280.203 18.4321 280.245 18.8161 280.501 19.3281C280.843 19.7548 281.227 20.1814 281.653 20.6081C282.165 21.1201 282.677 21.4614 283.189 21.6321C283.701 21.7174 283.957 21.8028 283.957 21.8881C283.957 22.0588 283.744 22.9548 283.317 24.5761C282.891 26.1121 282.549 27.9894 282.293 30.2081C282.037 32.4268 281.952 34.8161 282.037 37.3761C282.208 39.9361 282.848 42.3254 283.957 44.5441C283.531 45.4828 283.147 47.2748 282.805 49.9201C282.464 52.4801 282.165 55.1254 281.909 57.8561C281.739 60.5868 281.611 63.0614 281.525 65.2801C281.44 67.4134 281.397 68.5654 281.397 68.7361C281.312 68.7361 281.184 68.9068 281.013 69.2481C280.928 69.5041 280.8 69.8028 280.629 70.1441C280.459 70.4854 280.245 70.7841 279.989 71.0401C279.733 71.2108 279.435 71.2108 279.093 71.0401V72.1921C279.093 72.1921 279.349 72.1921 279.861 72.1921H280.373C280.288 72.6188 280.245 73.2161 280.245 73.9841C280.245 74.7521 280.203 75.3921 280.117 75.9041L289.845 74.6241C291.552 74.7948 293.515 74.8374 295.733 74.7521C298.037 74.6668 300.597 74.3681 303.413 73.8561C306.229 73.4294 308.533 73.3014 310.325 73.4721C312.117 73.6428 313.44 73.3441 314.293 72.5761L317.493 72.4481L319.925 75.1361ZM351.069 82.9441L349.533 83.4561C348.339 83.8828 346.931 84.1814 345.309 84.3521C343.773 84.4374 342.792 84.4801 342.365 84.4801C342.109 84.4801 341.512 84.4374 340.573 84.3521C339.72 84.1814 339.08 84.0961 338.653 84.0961C338.397 84.0961 338.056 84.3094 337.629 84.7361L331.869 82.6881C331.869 82.2614 331.869 81.8774 331.869 81.5361C331.955 81.1948 332.04 80.8108 332.125 80.3841C332.296 79.1894 332.424 78.0801 332.509 77.0561C332.68 75.9468 332.68 74.9228 332.509 73.9841C333.192 73.3014 333.277 71.2108 332.765 67.7121C332.253 64.1281 331.997 61.8668 331.997 60.9281C331.997 60.6721 332.083 59.9894 332.253 58.8801C332.424 57.7708 332.595 56.7894 332.765 55.9361C332.851 55.6801 333.021 55.3388 333.277 54.9121C333.619 54.4854 333.789 54.0161 333.789 53.5041C333.619 51.0294 333.704 49.0241 334.045 47.4881C334.472 45.8668 334.6 44.2454 334.429 42.6241C334.344 42.1974 334.387 41.7708 334.557 41.3441C334.728 40.9174 334.813 40.3628 334.813 39.6801V35.4561C334.813 34.2614 334.813 32.9388 334.813 31.4881C334.813 29.9521 334.856 28.2028 334.941 26.2401C335.027 22.4001 335.069 19.8401 335.069 18.5601C335.155 17.2801 335.283 16.3841 335.453 15.8721C335.539 15.0188 335.752 14.3361 336.093 13.8241C336.52 13.3121 336.733 12.4588 336.733 11.2641C336.733 11.1788 336.563 10.9228 336.221 10.4961C335.965 10.0694 335.624 9.51476 335.197 8.8321C334.941 8.49077 334.771 8.0641 334.685 7.5521C334.6 7.0401 334.557 6.57076 334.557 6.1441C334.643 5.6321 334.685 5.20543 334.685 4.8641C334.771 4.52276 334.813 3.54143 334.813 1.9201C337.117 1.23743 339.464 0.896095 341.853 0.896095C344.243 0.896095 346.163 0.810763 347.613 0.640099C348.125 0.554766 348.509 0.469432 348.765 0.384094C349.107 0.298762 349.405 0.256096 349.661 0.256096C349.917 0.170764 350.216 0.128098 350.557 0.128098C350.984 0.0427653 351.581 9.91821e-05 352.349 9.91821e-05C352.691 0.853432 353.16 1.7921 353.757 2.8161C354.355 3.8401 354.824 4.77876 355.165 5.6321C356.275 7.1681 357.341 7.89343 358.365 7.8081C359.389 7.72277 360.328 7.33877 361.181 6.6561C362.12 5.97343 362.888 5.2481 363.485 4.48009C364.083 3.62676 364.467 3.2001 364.637 3.2001L379.101 3.32809L390.109 10.8801C390.536 11.3068 391.091 11.8188 391.773 12.4161C392.456 12.9281 393.181 13.6534 393.949 14.5921C395.656 16.3841 396.936 17.2374 397.789 17.1521L400.861 21.6321C400.691 21.8881 400.307 22.6561 399.709 23.9361C399.197 25.1308 398.429 26.8374 397.405 29.0561C395.443 33.6641 394.461 37.2481 394.461 39.8081L391.901 41.3441C390.195 42.0268 389.341 43.7761 389.341 46.5921C387.891 46.4214 385.501 46.9761 382.173 48.2561C381.235 48.6828 380.211 48.9814 379.101 49.1521C377.992 49.2374 376.968 49.3228 376.029 49.4081C375.432 49.4934 374.835 49.5361 374.237 49.5361C373.725 49.5361 373.171 49.5361 372.573 49.5361L371.165 52.7361C370.141 51.9681 368.989 51.4561 367.709 51.2001C366.429 50.9441 365.149 50.8588 363.869 50.9441C362.675 51.0294 361.523 51.2001 360.413 51.4561C359.304 51.7121 358.365 52.0108 357.597 52.3521C354.781 53.3761 353.331 53.8881 353.245 53.8881H352.477C352.563 53.9734 352.605 54.1014 352.605 54.2721C352.435 55.1254 352.136 56.1494 351.709 57.3441C351.368 58.4534 351.197 59.2214 351.197 59.6481C351.197 60.1601 351.24 60.8854 351.325 61.8241C351.411 62.6774 351.496 63.8294 351.581 65.2801C351.667 66.6454 351.709 67.7974 351.709 68.7361C351.795 69.6748 351.837 70.4001 351.837 70.9121L352.349 74.3681C352.52 75.0508 352.648 75.7334 352.733 76.4161C352.819 77.0134 352.947 77.6534 353.117 78.3361L351.069 82.9441ZM355.805 14.3361C355.805 15.0188 355.805 15.8294 355.805 16.7681C355.891 17.7068 355.976 18.7734 356.061 19.9681C356.488 25.2588 356.616 28.4161 356.445 29.4401C354.739 30.4641 353.715 32.0001 353.373 34.0481C353.117 35.1574 352.861 36.2241 352.605 37.2481C352.349 38.1868 352.051 38.9974 351.709 39.6801L351.453 39.9361C351.453 40.8748 351.453 41.5574 351.453 41.9841C351.539 42.4108 351.581 42.9228 351.581 43.5201L354.013 45.1841L356.445 44.5441C356.445 46.4214 358.749 46.3788 363.357 44.4161C367.88 42.5388 370.44 41.6001 371.037 41.6001H376.413C377.096 40.6614 377.907 39.6801 378.845 38.6561C379.784 37.5468 380.253 36.8641 380.253 36.6081L381.917 27.2641L381.149 24.0641L364.125 11.9041H358.493L355.805 14.3361ZM392.925 83.2001C392.755 82.4321 392.243 81.9201 391.389 81.6641C391.048 81.3228 390.92 80.8534 391.005 80.2561C391.091 79.6588 391.005 79.2748 390.749 79.1041C390.664 78.9334 390.579 78.8481 390.493 78.8481C390.408 78.8481 390.28 78.8054 390.109 78.7201C390.024 78.5494 389.768 78.2508 389.341 77.8241C389.085 77.4828 388.787 77.1414 388.445 76.8001C388.104 76.3734 387.72 75.8188 387.293 75.1361C386.355 73.9414 385.629 73.0028 385.117 72.3201C384.605 71.5521 384.221 71.0828 383.965 70.9121C383.624 70.7414 383.112 70.4001 382.429 69.8881C381.747 69.3761 381.277 69.0774 381.021 68.9921C380.765 68.7361 380.552 68.4374 380.381 68.0961C380.211 67.7548 380.04 67.4988 379.869 67.3281C379.699 67.1574 379.485 66.5601 379.229 65.5361C378.973 64.5121 378.717 63.6161 378.461 62.8481C377.523 61.9948 376.115 60.4588 374.237 58.2401C373.64 57.6428 373.299 57.2588 373.213 57.0881L374.877 54.6561L381.021 57.7281C381.107 57.8134 381.533 57.8134 382.301 57.7281C383.155 57.6428 384.051 57.6001 384.989 57.6001C385.928 57.5148 386.824 57.5148 387.677 57.6001C388.616 57.6854 389.213 57.9414 389.469 58.3681C389.811 58.7948 390.237 59.0934 390.749 59.2641C391.261 59.4348 391.773 59.6054 392.285 59.7761C392.883 59.8614 393.352 59.9468 393.693 60.0321C394.12 60.1174 394.376 60.2881 394.461 60.5441L397.021 65.2801C397.363 65.7068 397.96 66.4321 398.813 67.4561C399.752 68.3948 400.989 69.7174 402.525 71.4241C405.597 75.0081 407.176 76.8428 407.261 76.9281L406.877 81.4081L396.637 84.3521L392.925 83.2001ZM450.488 4.7361V14.7201C449.464 18.7308 448.611 22.2721 447.928 25.3441C447.331 28.3308 446.862 31.1041 446.52 33.6641C446.179 36.2241 445.966 38.6561 445.88 40.9601C445.88 43.2641 445.966 45.6961 446.136 48.2561C446.307 51.3281 446.222 54.1014 445.88 56.5761C445.539 59.0508 445.198 61.3121 444.856 63.3601C444.6 65.4081 444.43 67.3708 444.344 69.2481C444.259 71.0401 444.515 72.8748 445.112 74.7521L445.752 77.9521L443.576 81.6641L426.552 84.9921L421.944 82.0481C422.03 81.7068 422.499 81.2374 423.352 80.6401C424.291 79.9574 424.76 79.2748 424.76 78.5921C424.76 77.5681 424.76 76.8428 424.76 76.4161C424.76 75.9894 424.675 75.3068 424.504 74.3681C424.334 73.9414 424.547 72.5761 425.144 70.2721C425.827 67.8828 426.126 64.6401 426.04 60.5441C426.04 58.4961 426.04 57.0028 426.04 56.0641C426.126 55.0401 426.168 54.4001 426.168 54.1441C426.254 53.8028 426.254 53.6748 426.168 53.7601C426.168 53.8454 426.083 53.8881 425.912 53.8881C425.998 53.2054 426.126 52.4374 426.296 51.5841C426.467 50.6454 426.638 49.7068 426.808 48.7681C426.979 48.2561 427.107 47.7441 427.192 47.2321C427.278 46.7201 427.363 46.1654 427.448 45.5681C427.704 45.3121 427.662 44.8001 427.32 44.0321C427.064 43.2641 426.766 42.6668 426.424 42.2401C426.168 41.8134 426.04 41.6428 426.04 41.7281C426.04 41.7281 426.126 41.7281 426.296 41.7281C426.467 41.7281 426.723 41.5574 427.064 41.2161C427.406 40.7894 427.747 39.9788 428.088 38.7841L427.192 33.1521C427.363 33.1521 427.491 33.1948 427.576 33.2801C427.747 33.3654 427.832 33.3228 427.832 33.1521C427.832 32.8961 427.79 32.4268 427.704 31.7441C427.619 31.0614 427.448 29.9948 427.192 28.5441C426.851 25.7281 426.808 24.0641 427.064 23.5521C427.32 22.9548 427.704 22.6988 428.216 22.7841C428.643 22.4428 428.984 22.1014 429.24 21.7601C429.582 21.4188 429.795 20.9921 429.88 20.4801C429.966 19.9681 429.923 19.2854 429.752 18.4321C429.667 17.4934 429.411 16.2988 428.984 14.8481C428.558 13.5681 428.6 12.2881 429.112 11.0081C429.624 9.7281 429.923 8.4481 430.008 7.1681L432.696 4.48009C433.891 4.48009 435.47 4.48009 437.432 4.48009C439.395 4.39476 441.102 4.30943 442.552 4.2241C445.624 3.9681 447.843 3.8401 449.208 3.8401L450.488 4.7361ZM535.236 81.7921L530.756 82.5601C529.732 82.7308 528.666 82.7308 527.556 82.5601C526.447 82.3894 525.295 82.3041 524.1 82.3041C523.844 82.3041 523.46 82.3041 522.948 82.3041C522.436 82.3041 521.839 82.3041 521.156 82.3041C520.559 82.3041 519.962 82.3468 519.364 82.4321C518.767 82.4321 518.255 82.4321 517.828 82.4321L515.012 80.5121C515.268 78.8054 515.183 77.5681 514.756 76.8001C514.415 76.0321 514.159 75.3068 513.988 74.6241C513.818 74.1121 513.476 73.3014 512.964 72.1921C512.452 71.0828 511.983 69.8028 511.556 68.3521C511.556 68.0961 511.13 67.3281 510.276 66.0481C509.423 64.7681 508.74 63.6161 508.228 62.5921L506.692 63.2321C506.266 63.2321 505.796 63.3601 505.284 63.6161C504.772 63.8721 503.492 64.0001 501.444 64.0001C501.188 63.4881 500.762 63.1468 500.164 62.9761C499.567 62.7201 498.884 62.6774 498.116 62.8481C497.434 62.9334 496.708 63.1894 495.94 63.6161C495.258 64.0428 494.66 64.5548 494.148 65.1521L488.9 65.9201C488.559 65.1521 488.175 64.5548 487.748 64.1281C487.407 63.6161 487.023 63.1468 486.596 62.7201C486.255 62.2934 485.956 61.8241 485.7 61.3121C485.444 60.8001 485.316 60.1174 485.316 59.2641C487.023 58.8374 488.004 58.2828 488.26 57.6001C488.602 56.9174 488.858 56.6188 489.028 56.7041C489.54 56.9601 490.01 57.0881 490.436 57.0881C489.839 57.0881 489.668 57.0028 489.924 56.8321C490.18 56.6614 491.332 56.2348 493.38 55.5521L502.724 54.4001L504.644 55.8081C506.01 56.1494 507.034 56.2348 507.716 56.0641C508.399 55.8934 508.868 55.5948 509.124 55.1681C509.38 54.6561 509.508 54.1014 509.508 53.5041C509.594 52.9068 509.679 52.3948 509.764 51.9681C509.935 51.0294 509.722 50.2614 509.124 49.6641C508.612 48.9814 507.887 48.3841 506.948 47.8721C506.778 46.9334 506.436 45.8668 505.924 44.6721C505.498 43.3921 504.943 41.8988 504.26 40.1921C503.663 38.5708 503.108 36.8641 502.596 35.0721C502.17 33.1948 501.786 31.4881 501.444 29.9521C501.103 28.4161 500.847 27.1361 500.676 26.1121C500.506 25.0881 500.378 24.4908 500.292 24.3201C499.098 23.5521 498.116 23.5094 497.348 24.1921C496.58 24.7894 495.94 25.6854 495.428 26.8801C495.002 28.0748 494.703 29.3548 494.532 30.7201C494.447 32.0001 494.447 32.8961 494.532 33.4081C494.447 33.5788 494.234 33.8774 493.892 34.3041C493.551 34.6454 493.167 35.0294 492.74 35.4561C492.314 35.8828 491.93 36.3094 491.588 36.7361C491.247 37.0774 491.034 37.3334 490.948 37.5041C490.607 38.1014 490.522 38.7414 490.692 39.4241C490.863 40.1068 490.735 40.7041 490.308 41.2161C488.602 44.2881 486.596 46.7201 484.292 48.5121C483.695 49.0241 483.226 49.7494 482.884 50.6881C482.543 51.6268 482.33 52.6081 482.244 53.6321C482.159 54.6561 482.244 55.6801 482.5 56.7041C482.756 57.6428 483.226 58.4108 483.908 59.0081C483.055 59.5201 482.372 60.0748 481.86 60.6721C481.434 61.1841 481.05 61.7814 480.708 62.4641C480.452 63.0614 480.196 63.7441 479.94 64.5121C479.684 65.1948 479.386 65.9628 479.044 66.8161C477.594 70.6561 476.868 72.6614 476.868 72.8321L475.076 76.5441L473.412 83.3281C473.498 84.6081 473.028 85.3761 472.004 85.6321C471.066 85.8881 469.53 86.0161 467.396 86.0161C465.348 86.5281 463.556 86.7841 462.02 86.7841C460.484 86.6988 459.972 85.8881 460.484 84.3521C462.703 79.0614 464.324 75.1361 465.348 72.5761C466.458 69.9308 467.012 67.9254 467.012 66.5601C467.012 66.1334 467.183 65.7921 467.524 65.5361C467.951 65.1948 468.292 64.9388 468.548 64.7681C468.634 64.5974 468.932 63.7014 469.444 62.0801C470.042 60.4588 470.682 58.6668 471.364 56.7041C472.047 54.6561 472.687 52.7361 473.284 50.9441C473.967 49.0668 474.479 47.7868 474.82 47.1041C475.588 45.4828 476.484 43.6481 477.508 41.6001C478.618 39.5521 479.898 37.5894 481.348 35.7121C482.116 34.6881 482.756 33.2801 483.268 31.4881C483.866 29.6961 484.42 27.7334 484.932 25.6001C485.444 23.4668 485.999 21.2908 486.596 19.0721C487.194 16.8534 487.962 14.8054 488.9 12.9281C489.412 12.7574 490.906 10.8801 493.38 7.2961C493.551 7.12543 493.679 6.95477 493.764 6.7841C493.935 6.5281 494.106 6.31477 494.276 6.1441L510.66 5.12009C511.002 5.54677 511.386 6.05877 511.812 6.6561C512.239 7.25343 512.708 7.89343 513.22 8.5761C514.842 10.6241 515.823 12.2454 516.164 13.4401C516.506 14.6348 516.719 15.4454 516.804 15.8721C516.634 16.1281 517.53 19.0294 519.492 24.5761C520.004 25.9414 520.431 27.4774 520.772 29.1841C521.114 30.8908 521.37 32.5121 521.54 34.0481C521.711 35.4988 521.796 36.7788 521.796 37.8881C521.796 38.9121 521.754 39.4668 521.668 39.5521C521.498 39.6374 522.863 40.7041 525.764 42.7521C526.447 43.2641 526.831 43.7334 526.916 44.1601C527.087 44.5868 527.087 44.9708 526.916 45.3121C526.831 45.6534 526.66 45.9521 526.404 46.2081C526.148 46.4641 526.02 46.6348 526.02 46.7201L529.476 51.3281C529.476 51.3281 530.458 55.0401 532.42 62.4641C533.53 66.0481 534.34 69.1201 534.852 71.6801C535.364 74.1548 535.62 76.0748 535.62 77.4401C535.62 77.6108 535.663 77.7388 535.748 77.8241C535.748 77.7388 535.834 77.9521 536.004 78.4641L535.236 81.7921ZM49.4084 141.928L40.7044 141.8L33.5364 144.232C33.2804 144.232 32.4271 145.597 30.9764 148.328C30.379 149.693 29.6537 151.187 28.8004 152.808C28.0324 154.429 27.4777 155.453 27.1364 155.88L24.1924 175.08C24.0217 175.08 23.4244 176.531 22.4004 179.432C21.9737 180.883 21.5471 182.077 21.1204 183.016C20.6937 183.869 20.3524 184.552 20.0964 185.064C20.0964 185.661 20.9071 187.283 22.5284 189.928L25.6004 188.136L28.4164 193.64L26.7524 196.84C27.0084 197.267 27.2217 197.651 27.3924 197.992C27.5631 198.248 27.7337 198.504 27.9044 198.76L28.2884 199.528C28.2884 199.784 28.8004 200.467 29.8244 201.576C30.7631 202.771 31.5311 203.368 32.1284 203.368C33.0671 203.368 33.7497 203.197 34.1764 202.856C34.6884 202.515 35.0724 202.344 35.3284 202.344C35.5844 202.344 35.8831 202.515 36.2244 202.856C36.5657 203.112 36.8644 203.283 37.1204 203.368C41.1311 203.88 44.6297 202.984 47.6164 200.68C48.5551 200.509 49.7924 200.339 51.3284 200.168C52.8644 199.997 54.1444 199.357 55.1684 198.248C55.5097 198.163 55.9364 197.907 56.4484 197.48C56.9604 197.053 57.5151 196.584 58.1124 196.072C58.7097 195.475 59.3497 194.877 60.0324 194.28C60.7151 193.683 61.4404 193.171 62.2084 192.744C62.6351 192.488 62.9764 192.701 63.2324 193.384C63.5737 194.067 63.9151 194.323 64.2564 194.152L65.5364 195.688L63.3604 202.216L58.4964 206.056L51.5844 207.976C49.4511 208.659 47.1471 209.384 44.6724 210.152C42.2831 210.92 40.5337 211.389 39.4244 211.56C38.4857 211.645 37.4617 211.859 36.3524 212.2C35.2431 212.456 34.1764 212.755 33.1524 213.096C32.1284 213.352 31.2324 213.608 30.4644 213.864C29.6964 214.035 29.2271 214.12 29.0564 214.12C25.8137 214.12 23.467 214.163 22.0164 214.248C20.5657 214.248 19.4991 214.248 18.8164 214.248L7.29638 205.8C7.12572 204.179 5.84572 201.619 3.45638 198.12C1.15238 194.963 0.000383377 193 0.000383377 192.232L1.15238 181.736C1.40838 179.944 1.62172 178.109 1.79238 176.232C1.96305 174.269 2.09105 172.477 2.17638 170.856C2.26172 169.235 2.30438 167.827 2.30438 166.632C2.38972 165.437 2.43238 164.712 2.43238 164.456C3.11505 164.115 4.09638 163.304 5.37638 162.024C6.65638 160.659 7.80838 158.781 8.83238 156.392C10.9657 151.955 11.7337 148.029 11.1364 144.616C11.5631 144.445 12.7577 144.147 14.7204 143.72C16.6831 143.293 18.6884 142.653 20.7364 141.8C22.7844 141.032 24.3631 140.435 25.4724 140.008C26.5817 139.581 27.2217 139.325 27.3924 139.24C27.4777 139.155 27.8191 139.027 28.4164 138.856C29.0991 138.685 29.8244 138.557 30.5924 138.472C31.4457 138.301 32.2564 138.173 33.0244 138.088C33.7924 137.917 34.3471 137.832 34.6884 137.832L38.6564 133.992L50.1764 133.864L52.9924 135.656L52.2244 139.752L49.4084 141.928ZM96.4444 211.944L94.9084 212.456C93.7137 212.883 92.3057 213.181 90.6844 213.352C89.1484 213.437 88.1671 213.48 87.7404 213.48C87.4844 213.48 86.8871 213.437 85.9484 213.352C85.0951 213.181 84.4551 213.096 84.0284 213.096C83.7724 213.096 83.431 213.309 83.0044 213.736L77.2444 211.688C77.2444 211.261 77.2444 210.877 77.2444 210.536C77.3297 210.195 77.415 209.811 77.5004 209.384C77.671 208.189 77.799 207.08 77.8844 206.056C78.055 204.947 78.055 203.923 77.8844 202.984C78.567 202.301 78.6524 200.211 78.1404 196.712C77.6284 193.128 77.3724 190.867 77.3724 189.928C77.3724 189.672 77.4577 188.989 77.6284 187.88C77.799 186.771 77.9697 185.789 78.1404 184.936C78.2257 184.68 78.3964 184.339 78.6524 183.912C78.9937 183.485 79.1644 183.016 79.1644 182.504C78.9937 180.029 79.0791 178.024 79.4204 176.488C79.847 174.867 79.975 173.245 79.8044 171.624C79.719 171.197 79.7617 170.771 79.9324 170.344C80.103 169.917 80.1884 169.363 80.1884 168.68V164.456C80.1884 163.261 80.1884 161.939 80.1884 160.488C80.1884 158.952 80.231 157.203 80.3164 155.24C80.4017 151.4 80.4444 148.84 80.4444 147.56C80.5297 146.28 80.6577 145.384 80.8284 144.872C80.9137 144.019 81.1271 143.336 81.4684 142.824C81.8951 142.312 82.1084 141.459 82.1084 140.264C82.1084 140.179 81.9377 139.923 81.5964 139.496C81.3404 139.069 80.999 138.515 80.5724 137.832C80.3164 137.491 80.1457 137.064 80.0604 136.552C79.975 136.04 79.9324 135.571 79.9324 135.144C80.0177 134.632 80.0604 134.205 80.0604 133.864C80.1457 133.523 80.1884 132.541 80.1884 130.92C82.4924 130.237 84.8391 129.896 87.2284 129.896C89.6177 129.896 91.5377 129.811 92.9884 129.64C93.5004 129.555 93.8844 129.469 94.1404 129.384C94.4817 129.299 94.7804 129.256 95.0364 129.256C95.2924 129.171 95.5911 129.128 95.9324 129.128C96.3591 129.043 96.9564 129 97.7244 129C98.0657 129.853 98.5351 130.792 99.1324 131.816C99.7297 132.84 100.199 133.779 100.54 134.632C101.65 136.168 102.716 136.893 103.74 136.808C104.764 136.723 105.703 136.339 106.556 135.656C107.495 134.973 108.263 134.248 108.86 133.48C109.458 132.627 109.842 132.2 110.012 132.2L124.476 132.328L135.484 139.88C135.911 140.307 136.466 140.819 137.148 141.416C137.831 141.928 138.556 142.653 139.324 143.592C141.031 145.384 142.311 146.237 143.164 146.152L146.236 150.632C146.066 150.888 145.682 151.656 145.084 152.936C144.572 154.131 143.804 155.837 142.78 158.056C140.818 162.664 139.836 166.248 139.836 168.808L137.276 170.344C135.57 171.027 134.716 172.776 134.716 175.592C133.266 175.421 130.876 175.976 127.548 177.256C126.61 177.683 125.586 177.981 124.476 178.152C123.367 178.237 122.343 178.323 121.404 178.408C120.807 178.493 120.21 178.536 119.612 178.536C119.1 178.536 118.546 178.536 117.948 178.536L116.54 181.736C115.516 180.968 114.364 180.456 113.084 180.2C111.804 179.944 110.524 179.859 109.244 179.944C108.05 180.029 106.898 180.2 105.788 180.456C104.679 180.712 103.74 181.011 102.972 181.352C100.156 182.376 98.7057 182.888 98.6204 182.888H97.8524C97.9377 182.973 97.9804 183.101 97.9804 183.272C97.8097 184.125 97.5111 185.149 97.0844 186.344C96.7431 187.453 96.5724 188.221 96.5724 188.648C96.5724 189.16 96.6151 189.885 96.7004 190.824C96.7857 191.677 96.8711 192.829 96.9564 194.28C97.0417 195.645 97.0844 196.797 97.0844 197.736C97.1697 198.675 97.2124 199.4 97.2124 199.912L97.7244 203.368C97.8951 204.051 98.0231 204.733 98.1084 205.416C98.1937 206.013 98.3217 206.653 98.4924 207.336L96.4444 211.944ZM101.18 143.336C101.18 144.019 101.18 144.829 101.18 145.768C101.266 146.707 101.351 147.773 101.436 148.968C101.863 154.259 101.991 157.416 101.82 158.44C100.114 159.464 99.0897 161 98.7484 163.048C98.4924 164.157 98.2364 165.224 97.9804 166.248C97.7244 167.187 97.4257 167.997 97.0844 168.68L96.8284 168.936C96.8284 169.875 96.8284 170.557 96.8284 170.984C96.9137 171.411 96.9564 171.923 96.9564 172.52L99.3884 174.184L101.82 173.544C101.82 175.421 104.124 175.379 108.732 173.416C113.255 171.539 115.815 170.6 116.412 170.6H121.788C122.471 169.661 123.282 168.68 124.22 167.656C125.159 166.547 125.628 165.864 125.628 165.608L127.292 156.264L126.524 153.064L109.5 140.904H103.868L101.18 143.336ZM138.3 212.2C138.13 211.432 137.618 210.92 136.764 210.664C136.423 210.323 136.295 209.853 136.38 209.256C136.466 208.659 136.38 208.275 136.124 208.104C136.039 207.933 135.954 207.848 135.868 207.848C135.783 207.848 135.655 207.805 135.484 207.72C135.399 207.549 135.143 207.251 134.716 206.824C134.46 206.483 134.162 206.141 133.82 205.8C133.479 205.373 133.095 204.819 132.668 204.136C131.73 202.941 131.004 202.003 130.492 201.32C129.98 200.552 129.596 200.083 129.34 199.912C128.999 199.741 128.487 199.4 127.804 198.888C127.122 198.376 126.652 198.077 126.396 197.992C126.14 197.736 125.927 197.437 125.756 197.096C125.586 196.755 125.415 196.499 125.244 196.328C125.074 196.157 124.86 195.56 124.604 194.536C124.348 193.512 124.092 192.616 123.836 191.848C122.898 190.995 121.49 189.459 119.612 187.24C119.015 186.643 118.674 186.259 118.588 186.088L120.252 183.656L126.396 186.728C126.482 186.813 126.908 186.813 127.676 186.728C128.53 186.643 129.426 186.6 130.364 186.6C131.303 186.515 132.199 186.515 133.052 186.6C133.991 186.685 134.588 186.941 134.844 187.368C135.186 187.795 135.612 188.093 136.124 188.264C136.636 188.435 137.148 188.605 137.66 188.776C138.258 188.861 138.727 188.947 139.068 189.032C139.495 189.117 139.751 189.288 139.836 189.544L142.396 194.28C142.738 194.707 143.335 195.432 144.188 196.456C145.127 197.395 146.364 198.717 147.9 200.424C150.972 204.008 152.551 205.843 152.636 205.928L152.252 210.408L142.012 213.352L138.3 212.2ZM224.663 169.32C224.663 169.576 224.578 170.003 224.407 170.6C224.322 171.112 224.194 171.667 224.023 172.264C223.853 172.861 223.682 173.416 223.511 173.928C223.426 174.44 223.383 174.824 223.383 175.08C220.397 175.336 218.434 175.592 217.495 175.848C216.642 176.019 216.13 176.104 215.959 176.104H207.383C206.103 176.104 205.122 176.104 204.439 176.104C203.757 176.019 203.202 175.976 202.775 175.976C202.434 175.976 202.178 176.019 202.007 176.104C201.837 176.104 201.581 176.147 201.239 176.232L198.551 177.896L194.583 176.104C194.498 175.677 194.071 175.208 193.303 174.696C192.621 174.184 192.151 173.587 191.895 172.904L195.991 167.272C197.698 167.272 198.594 167.315 198.679 167.4C198.85 167.4 198.893 167.357 198.807 167.272C198.807 167.187 199.063 167.101 199.575 167.016C200.087 166.845 200.685 166.717 201.367 166.632L203.287 166.248C203.885 166.163 206.658 166.291 211.607 166.632C211.693 166.632 212.29 166.845 213.399 167.272C213.826 167.443 214.893 167.4 216.599 167.144C218.391 166.803 220.397 166.632 222.615 166.632L224.663 169.32ZM225.175 204.136C225.005 204.648 224.877 205.245 224.791 205.928C224.791 206.611 224.877 207.08 225.047 207.336C224.877 207.507 224.365 207.72 223.511 207.976C222.658 208.232 221.463 208.659 219.927 209.256C218.306 209.683 216.77 209.768 215.319 209.512C213.869 209.256 212.461 209.299 211.095 209.64C206.914 209.64 202.605 210.28 198.167 211.56C196.973 211.901 195.949 212.2 195.095 212.456C194.242 212.712 193.517 212.925 192.919 213.096C192.578 213.267 192.237 213.395 191.895 213.48C191.639 213.48 191.383 213.523 191.127 213.608L181.143 213.992C180.375 214.248 179.565 214.333 178.711 214.248C177.858 214.077 177.005 213.907 176.151 213.736C175.298 213.48 174.53 213.224 173.847 212.968C173.165 212.712 172.61 212.584 172.183 212.584C171.757 212.584 171.031 212.627 170.007 212.712C168.983 212.712 168.045 212.712 167.191 212.712C166.338 212.115 165.57 211.517 164.887 210.92C164.205 210.237 164.162 209.085 164.759 207.464C164.93 206.611 165.229 205.757 165.655 204.904C166.167 203.965 166.338 203.027 166.167 202.088C166.082 201.747 165.869 201.192 165.527 200.424C165.271 199.656 165.058 198.845 164.887 197.992C164.802 197.139 164.802 196.285 164.887 195.432C165.058 194.579 165.527 193.853 166.295 193.256C166.978 192.147 167.277 191.123 167.191 190.184C167.106 189.16 166.722 188.093 166.039 186.984C166.551 186.387 166.85 185.704 166.935 184.936C167.106 184.083 167.149 183.272 167.063 182.504C166.978 181.736 166.807 181.053 166.551 180.456C166.381 179.859 166.21 179.432 166.039 179.176C166.295 177.981 166.551 176.403 166.807 174.44C167.063 172.392 167.277 170.344 167.447 168.296C167.703 166.163 167.874 164.2 167.959 162.408C168.045 160.616 168.045 159.293 167.959 158.44C167.874 157.331 167.959 156.179 168.215 154.984C168.471 153.789 168.77 152.595 169.111 151.4C169.453 150.12 169.709 148.883 169.879 147.688C170.05 146.493 170.007 145.384 169.751 144.36L170.007 143.592C170.178 143.421 169.879 142.099 169.111 139.624L171.159 135.144H171.287C172.994 135.059 174.743 134.973 176.535 134.888C178.327 134.803 179.949 134.717 181.399 134.632C182.935 134.547 184.173 134.504 185.111 134.504C186.135 134.419 186.69 134.376 186.775 134.376H204.439C205.037 134.376 205.805 134.675 206.743 135.272C207.767 135.784 211.181 136.04 216.983 136.04C217.069 136.381 217.154 136.723 217.239 137.064C217.325 137.405 217.41 137.747 217.495 138.088C217.751 139.624 218.05 140.819 218.391 141.672L217.623 142.952C216.343 143.037 215.362 143.08 214.679 143.08C213.997 143.08 213.485 143.08 213.143 143.08C212.887 142.995 212.717 142.952 212.631 142.952C212.546 142.867 212.461 142.824 212.375 142.824L202.391 141.544C199.917 141.032 196.845 141.331 193.175 142.44C191.554 142.867 190.231 142.995 189.207 142.824C188.183 142.568 187.501 142.525 187.159 142.696C186.135 142.355 185.282 142.355 184.599 142.696C183.917 143.037 183.703 143.677 183.959 144.616C184.215 145.469 184.514 145.981 184.855 146.152C185.197 146.323 185.453 146.664 185.623 147.176C185.453 147.432 185.495 147.816 185.751 148.328C186.093 148.755 186.477 149.181 186.903 149.608C187.415 150.12 187.927 150.461 188.439 150.632C188.951 150.717 189.207 150.803 189.207 150.888C189.207 151.059 188.994 151.955 188.567 153.576C188.141 155.112 187.799 156.989 187.543 159.208C187.287 161.427 187.202 163.816 187.287 166.376C187.458 168.936 188.098 171.325 189.207 173.544C188.781 174.483 188.397 176.275 188.055 178.92C187.714 181.48 187.415 184.125 187.159 186.856C186.989 189.587 186.861 192.061 186.775 194.28C186.69 196.413 186.647 197.565 186.647 197.736C186.562 197.736 186.434 197.907 186.263 198.248C186.178 198.504 186.05 198.803 185.879 199.144C185.709 199.485 185.495 199.784 185.239 200.04C184.983 200.211 184.685 200.211 184.343 200.04V201.192C184.343 201.192 184.599 201.192 185.111 201.192H185.623C185.538 201.619 185.495 202.216 185.495 202.984C185.495 203.752 185.453 204.392 185.367 204.904L195.095 203.624C196.802 203.795 198.765 203.837 200.983 203.752C203.287 203.667 205.847 203.368 208.663 202.856C211.479 202.429 213.783 202.301 215.575 202.472C217.367 202.643 218.69 202.344 219.543 201.576L222.743 201.448L225.175 204.136ZM306.111 210.792L301.631 211.56C300.607 211.731 299.541 211.731 298.431 211.56C297.322 211.389 296.17 211.304 294.975 211.304C294.719 211.304 294.335 211.304 293.823 211.304C293.311 211.304 292.714 211.304 292.031 211.304C291.434 211.304 290.837 211.347 290.239 211.432C289.642 211.432 289.13 211.432 288.703 211.432L285.887 209.512C286.143 207.805 286.058 206.568 285.631 205.8C285.29 205.032 285.034 204.307 284.863 203.624C284.693 203.112 284.351 202.301 283.839 201.192C283.327 200.083 282.858 198.803 282.431 197.352C282.431 197.096 282.005 196.328 281.151 195.048C280.298 193.768 279.615 192.616 279.103 191.592L277.567 192.232C277.141 192.232 276.671 192.36 276.159 192.616C275.647 192.872 274.367 193 272.319 193C272.063 192.488 271.637 192.147 271.039 191.976C270.442 191.72 269.759 191.677 268.991 191.848C268.309 191.933 267.583 192.189 266.815 192.616C266.133 193.043 265.535 193.555 265.023 194.152L259.775 194.92C259.434 194.152 259.05 193.555 258.623 193.128C258.282 192.616 257.898 192.147 257.471 191.72C257.13 191.293 256.831 190.824 256.575 190.312C256.319 189.8 256.191 189.117 256.191 188.264C257.898 187.837 258.879 187.283 259.135 186.6C259.477 185.917 259.733 185.619 259.903 185.704C260.415 185.96 260.885 186.088 261.311 186.088C260.714 186.088 260.543 186.003 260.799 185.832C261.055 185.661 262.207 185.235 264.255 184.552L273.599 183.4L275.519 184.808C276.885 185.149 277.909 185.235 278.591 185.064C279.274 184.893 279.743 184.595 279.999 184.168C280.255 183.656 280.383 183.101 280.383 182.504C280.469 181.907 280.554 181.395 280.639 180.968C280.81 180.029 280.597 179.261 279.999 178.664C279.487 177.981 278.762 177.384 277.823 176.872C277.653 175.933 277.311 174.867 276.799 173.672C276.373 172.392 275.818 170.899 275.135 169.192C274.538 167.571 273.983 165.864 273.471 164.072C273.045 162.195 272.661 160.488 272.319 158.952C271.978 157.416 271.722 156.136 271.551 155.112C271.381 154.088 271.253 153.491 271.167 153.32C269.973 152.552 268.991 152.509 268.223 153.192C267.455 153.789 266.815 154.685 266.303 155.88C265.877 157.075 265.578 158.355 265.407 159.72C265.322 161 265.322 161.896 265.407 162.408C265.322 162.579 265.109 162.877 264.767 163.304C264.426 163.645 264.042 164.029 263.615 164.456C263.189 164.883 262.805 165.309 262.463 165.736C262.122 166.077 261.909 166.333 261.823 166.504C261.482 167.101 261.397 167.741 261.567 168.424C261.738 169.107 261.61 169.704 261.183 170.216C259.477 173.288 257.471 175.72 255.167 177.512C254.57 178.024 254.101 178.749 253.759 179.688C253.418 180.627 253.205 181.608 253.119 182.632C253.034 183.656 253.119 184.68 253.375 185.704C253.631 186.643 254.101 187.411 254.783 188.008C253.93 188.52 253.247 189.075 252.735 189.672C252.309 190.184 251.925 190.781 251.583 191.464C251.327 192.061 251.071 192.744 250.815 193.512C250.559 194.195 250.261 194.963 249.919 195.816C248.469 199.656 247.743 201.661 247.743 201.832L245.951 205.544L244.287 212.328C244.373 213.608 243.903 214.376 242.879 214.632C241.941 214.888 240.405 215.016 238.271 215.016C236.223 215.528 234.431 215.784 232.895 215.784C231.359 215.699 230.847 214.888 231.359 213.352C233.578 208.061 235.199 204.136 236.223 201.576C237.333 198.931 237.887 196.925 237.887 195.56C237.887 195.133 238.058 194.792 238.399 194.536C238.826 194.195 239.167 193.939 239.423 193.768C239.509 193.597 239.807 192.701 240.319 191.08C240.917 189.459 241.557 187.667 242.239 185.704C242.922 183.656 243.562 181.736 244.159 179.944C244.842 178.067 245.354 176.787 245.695 176.104C246.463 174.483 247.359 172.648 248.383 170.6C249.493 168.552 250.773 166.589 252.223 164.712C252.991 163.688 253.631 162.28 254.143 160.488C254.741 158.696 255.295 156.733 255.807 154.6C256.319 152.467 256.874 150.291 257.471 148.072C258.069 145.853 258.837 143.805 259.775 141.928C260.287 141.757 261.781 139.88 264.255 136.296C264.426 136.125 264.554 135.955 264.639 135.784C264.81 135.528 264.981 135.315 265.151 135.144L281.535 134.12C281.877 134.547 282.261 135.059 282.687 135.656C283.114 136.253 283.583 136.893 284.095 137.576C285.717 139.624 286.698 141.245 287.039 142.44C287.381 143.635 287.594 144.445 287.679 144.872C287.509 145.128 288.405 148.029 290.367 153.576C290.879 154.941 291.306 156.477 291.647 158.184C291.989 159.891 292.245 161.512 292.415 163.048C292.586 164.499 292.671 165.779 292.671 166.888C292.671 167.912 292.629 168.467 292.543 168.552C292.373 168.637 293.738 169.704 296.639 171.752C297.322 172.264 297.706 172.733 297.791 173.16C297.962 173.587 297.962 173.971 297.791 174.312C297.706 174.653 297.535 174.952 297.279 175.208C297.023 175.464 296.895 175.635 296.895 175.72L300.351 180.328C300.351 180.328 301.333 184.04 303.295 191.464C304.405 195.048 305.215 198.12 305.727 200.68C306.239 203.155 306.495 205.075 306.495 206.44C306.495 206.611 306.538 206.739 306.623 206.824C306.623 206.739 306.709 206.952 306.879 207.464L306.111 210.792ZM368.558 147.432C367.705 147.432 366.724 147.432 365.614 147.432C364.505 147.347 363.225 147.261 361.774 147.176C359.3 147.091 357.038 147.048 354.99 147.048C352.942 146.963 351.577 146.835 350.894 146.664V156.392C349.7 157.331 348.846 159.208 348.334 162.024C347.652 170.472 347.225 177.256 347.054 182.376C346.884 187.411 346.841 191.336 346.926 194.152C347.012 195.859 347.097 197.309 347.182 198.504C347.268 199.613 347.396 200.509 347.566 201.192L348.974 207.976L348.334 209L332.846 212.456H332.462C332.292 212.456 332.078 212.499 331.822 212.584C331.652 212.584 331.481 212.584 331.31 212.584L327.086 209.64C327.086 209.555 327.129 209.512 327.214 209.512C327.3 209.427 327.385 209.299 327.47 209.128C327.556 208.872 327.641 208.488 327.726 207.976C327.812 207.379 327.854 206.568 327.854 205.544C327.854 204.691 327.854 204.093 327.854 203.752C327.94 203.411 327.897 202.856 327.726 202.088C327.556 201.064 327.556 198.76 327.726 195.176C327.812 191.592 327.214 189.8 325.934 189.8C326.105 188.861 326.19 187.752 326.19 186.472C326.276 185.192 326.361 183.997 326.446 182.888C326.532 182.205 326.574 181.565 326.574 180.968C326.574 180.285 326.574 179.603 326.574 178.92C326.66 178.835 326.702 178.749 326.702 178.664C326.788 178.579 326.873 178.493 326.958 178.408L327.086 178.28C327.513 177.597 327.726 177.085 327.726 176.744C327.726 176.317 327.897 175.379 328.238 173.928V168.424C329.86 168.68 330.201 167.315 329.262 164.328C328.494 161.085 328.366 159.464 328.878 159.464C329.134 158.355 329.39 157.075 329.646 155.624C329.817 154.429 329.988 153.149 330.158 151.784C330.329 150.333 330.5 148.883 330.67 147.432L330.158 147.048C329.561 147.56 328.836 147.731 327.982 147.56C327.214 147.389 326.489 147.261 325.806 147.176C323.844 147.432 322.18 147.645 320.814 147.816C319.449 147.987 318.34 148.285 317.486 148.712C316.974 148.883 316.505 149.011 316.078 149.096C315.652 149.181 315.438 149.779 315.438 150.888L308.142 152.424L305.838 150.76C305.497 149.907 305.198 149.096 304.942 148.328C304.686 147.475 304.516 146.451 304.43 145.256L305.966 141.544C307.161 141.373 308.1 141.288 308.782 141.288C309.55 141.288 310.105 141.331 310.446 141.416C310.873 141.416 311.172 141.459 311.342 141.544C311.513 141.629 311.684 141.672 311.854 141.672C312.793 141.245 313.774 140.861 314.798 140.52C315.822 140.093 317.017 139.709 318.382 139.368C319.833 139.027 321.497 138.728 323.374 138.472C325.337 138.131 327.684 137.789 330.414 137.448L342.062 136.936L343.342 137.96C343.769 138.216 344.238 138.472 344.75 138.728C345.262 138.899 345.774 138.984 346.286 138.984C346.884 139.069 347.438 138.856 347.95 138.344C348.121 138.173 348.292 137.917 348.462 137.576C349.145 137.405 350.254 137.405 351.79 137.576C353.412 137.661 355.844 137.96 359.086 138.472C364.718 139.411 368.43 139.923 370.222 140.008L370.99 141.288V145.512L368.558 147.432ZM446.313 155.24C446.655 157.117 446.783 158.995 446.697 160.872C446.697 162.664 446.655 164.413 446.569 166.12C446.569 167.827 446.612 169.491 446.697 171.112C446.868 172.648 447.295 174.099 447.977 175.464C447.721 175.891 447.209 176.744 446.441 178.024C445.759 179.304 445.247 180.627 444.905 181.992C444.564 183.272 444.607 184.253 445.033 184.936C445.46 185.619 445.631 186.045 445.545 186.216C445.46 186.472 445.375 186.771 445.289 187.112C445.204 187.368 445.076 187.709 444.905 188.136C444.649 188.819 444.223 189.672 443.625 190.696C443.113 191.72 442.388 192.915 441.449 194.28C440.511 195.645 439.871 196.84 439.529 197.864C439.273 198.803 439.103 199.656 439.017 200.424C439.017 201.192 439.017 201.875 439.017 202.472C439.017 203.069 438.847 203.624 438.505 204.136C438.335 204.307 437.951 204.435 437.353 204.52C436.756 204.52 436.031 204.605 435.177 204.776C434.324 204.947 433.385 205.245 432.361 205.672C431.423 206.013 430.527 206.568 429.673 207.336C428.052 207.677 426.772 208.147 425.833 208.744C424.98 209.256 423.657 209.597 421.865 209.768C419.903 210.195 418.58 210.749 417.897 211.432C417.215 212.029 416.745 212.328 416.489 212.328C414.015 212.328 412.095 212.413 410.729 212.584C409.364 212.669 408.468 212.797 408.041 212.968L406.761 213.224C406.505 213.309 405.951 213.352 405.097 213.352L387.177 207.848L378.089 197.608C378.089 194.963 378.047 192.744 377.961 190.952C377.961 189.075 377.919 187.453 377.833 186.088C377.833 184.637 377.833 183.272 377.833 181.992C377.833 180.712 377.876 179.304 377.961 177.768C378.303 177.512 378.857 176.744 379.625 175.464C380.479 174.099 381.332 172.605 382.185 170.984C383.039 169.277 383.849 167.528 384.617 165.736C385.385 163.944 385.983 162.451 386.409 161.256C386.751 159.976 387.049 158.995 387.305 158.312C387.561 157.544 387.775 156.904 387.945 156.392C388.201 155.88 388.415 155.368 388.585 154.856C388.756 154.344 388.927 153.704 389.097 152.936L392.425 149.608C392.425 149.523 392.895 148.925 393.833 147.816C394.857 146.621 396.009 145.341 397.289 143.976C398.655 142.525 400.063 141.203 401.513 140.008C402.964 138.813 404.159 138.173 405.097 138.088L411.369 137.448L413.929 137.704C414.271 137.789 414.569 137.832 414.825 137.832C415.167 137.832 415.465 137.832 415.721 137.832H416.617L420.969 141.8C421.055 142.739 421.268 143.507 421.609 144.104C422.036 144.701 422.889 145.171 424.169 145.512C425.535 145.853 426.26 146.024 426.345 146.024C426.431 146.109 426.431 146.195 426.345 146.28C427.967 146.28 429.673 145.853 431.465 145C433.257 144.061 435.007 143.592 436.713 143.592C437.14 143.592 437.609 143.805 438.121 144.232C438.633 144.659 439.145 145.171 439.657 145.768L441.193 147.432C441.705 148.029 442.175 148.371 442.601 148.456C442.431 150.077 442.473 151.272 442.729 152.04C443.071 152.723 443.455 153.235 443.881 153.576C444.393 153.832 444.863 154.045 445.289 154.216C445.801 154.387 446.143 154.728 446.313 155.24ZM424.809 194.152C425.321 193.811 425.748 193.597 426.089 193.512C426.431 193.341 426.729 193.085 426.985 192.744C427.327 192.403 427.625 191.848 427.881 191.08C428.223 190.227 428.607 188.947 429.033 187.24C429.545 185.533 429.972 184.125 430.313 183.016C430.655 181.821 430.911 180.84 431.081 180.072C431.252 179.219 431.38 178.451 431.465 177.768C431.551 177.085 431.593 176.36 431.593 175.592C431.593 174.141 431.679 172.52 431.849 170.728C432.02 168.851 431.849 166.888 431.337 164.84C430.911 163.389 430.612 161.768 430.441 159.976C430.356 158.184 430.228 156.648 430.057 155.368C429.204 154.856 428.692 154.045 428.521 152.936C428.351 151.827 427.796 150.76 426.857 149.736C426.345 149.309 425.791 149.053 425.193 148.968C424.681 148.883 424.169 148.883 423.657 148.968C423.231 149.053 422.804 149.181 422.377 149.352C422.036 149.523 421.78 149.608 421.609 149.608C421.353 149.608 420.841 149.565 420.073 149.48C419.305 149.309 418.409 149.267 417.385 149.352C416.447 149.352 415.465 149.523 414.441 149.864C413.503 150.12 412.735 150.675 412.137 151.528C409.492 154.515 407.956 156.392 407.529 157.16C406.335 159.379 405.268 161.512 404.329 163.56C403.476 165.608 402.708 167.144 402.025 168.168C401.684 169.021 400.959 170.301 399.849 172.008C398.825 173.715 398.313 176.147 398.313 179.304C398.399 179.56 398.271 180.2 397.929 181.224C397.588 182.163 397.247 183.315 396.905 184.68C396.649 186.045 396.436 187.453 396.265 188.904C396.095 190.269 396.223 191.507 396.649 192.616C396.991 193.469 397.716 194.835 398.825 196.712C399.935 198.504 401.855 200.424 404.585 202.472C406.292 203.581 407.444 204.733 408.041 205.928C408.639 207.037 409.151 207.592 409.577 207.592C410.004 207.592 410.687 207.592 411.625 207.592C412.564 207.507 413.247 207.677 413.673 208.104L424.809 194.152ZM481.069 211.944L479.533 212.456C478.339 212.883 476.931 213.181 475.309 213.352C473.773 213.437 472.792 213.48 472.365 213.48C472.109 213.48 471.512 213.437 470.573 213.352C469.72 213.181 469.08 213.096 468.653 213.096C468.397 213.096 468.056 213.309 467.629 213.736L461.869 211.688C461.869 211.261 461.869 210.877 461.869 210.536C461.955 210.195 462.04 209.811 462.125 209.384C462.296 208.189 462.424 207.08 462.509 206.056C462.68 204.947 462.68 203.923 462.509 202.984C463.192 202.301 463.277 200.211 462.765 196.712C462.253 193.128 461.997 190.867 461.997 189.928C461.997 189.672 462.083 188.989 462.253 187.88C462.424 186.771 462.595 185.789 462.765 184.936C462.851 184.68 463.021 184.339 463.277 183.912C463.619 183.485 463.789 183.016 463.789 182.504C463.619 180.029 463.704 178.024 464.045 176.488C464.472 174.867 464.6 173.245 464.429 171.624C464.344 171.197 464.387 170.771 464.557 170.344C464.728 169.917 464.813 169.363 464.813 168.68V164.456C464.813 163.261 464.813 161.939 464.813 160.488C464.813 158.952 464.856 157.203 464.941 155.24C465.027 151.4 465.069 148.84 465.069 147.56C465.155 146.28 465.283 145.384 465.453 144.872C465.539 144.019 465.752 143.336 466.093 142.824C466.52 142.312 466.733 141.459 466.733 140.264C466.733 140.179 466.563 139.923 466.221 139.496C465.965 139.069 465.624 138.515 465.197 137.832C464.941 137.491 464.771 137.064 464.685 136.552C464.6 136.04 464.557 135.571 464.557 135.144C464.643 134.632 464.685 134.205 464.685 133.864C464.771 133.523 464.813 132.541 464.813 130.92C467.117 130.237 469.464 129.896 471.853 129.896C474.243 129.896 476.163 129.811 477.613 129.64C478.125 129.555 478.509 129.469 478.765 129.384C479.107 129.299 479.405 129.256 479.661 129.256C479.917 129.171 480.216 129.128 480.557 129.128C480.984 129.043 481.581 129 482.349 129C482.691 129.853 483.16 130.792 483.757 131.816C484.355 132.84 484.824 133.779 485.165 134.632C486.275 136.168 487.341 136.893 488.365 136.808C489.389 136.723 490.328 136.339 491.181 135.656C492.12 134.973 492.888 134.248 493.485 133.48C494.083 132.627 494.467 132.2 494.637 132.2L509.101 132.328L520.109 139.88C520.536 140.307 521.091 140.819 521.773 141.416C522.456 141.928 523.181 142.653 523.949 143.592C525.656 145.384 526.936 146.237 527.789 146.152L530.861 150.632C530.691 150.888 530.307 151.656 529.709 152.936C529.197 154.131 528.429 155.837 527.405 158.056C525.443 162.664 524.461 166.248 524.461 168.808L521.901 170.344C520.195 171.027 519.341 172.776 519.341 175.592C517.891 175.421 515.501 175.976 512.173 177.256C511.235 177.683 510.211 177.981 509.101 178.152C507.992 178.237 506.968 178.323 506.029 178.408C505.432 178.493 504.835 178.536 504.237 178.536C503.725 178.536 503.171 178.536 502.573 178.536L501.165 181.736C500.141 180.968 498.989 180.456 497.709 180.2C496.429 179.944 495.149 179.859 493.869 179.944C492.675 180.029 491.523 180.2 490.413 180.456C489.304 180.712 488.365 181.011 487.597 181.352C484.781 182.376 483.331 182.888 483.245 182.888H482.477C482.563 182.973 482.605 183.101 482.605 183.272C482.435 184.125 482.136 185.149 481.709 186.344C481.368 187.453 481.197 188.221 481.197 188.648C481.197 189.16 481.24 189.885 481.325 190.824C481.411 191.677 481.496 192.829 481.581 194.28C481.667 195.645 481.709 196.797 481.709 197.736C481.795 198.675 481.837 199.4 481.837 199.912L482.349 203.368C482.52 204.051 482.648 204.733 482.733 205.416C482.819 206.013 482.947 206.653 483.117 207.336L481.069 211.944ZM485.805 143.336C485.805 144.019 485.805 144.829 485.805 145.768C485.891 146.707 485.976 147.773 486.061 148.968C486.488 154.259 486.616 157.416 486.445 158.44C484.739 159.464 483.715 161 483.373 163.048C483.117 164.157 482.861 165.224 482.605 166.248C482.349 167.187 482.051 167.997 481.709 168.68L481.453 168.936C481.453 169.875 481.453 170.557 481.453 170.984C481.539 171.411 481.581 171.923 481.581 172.52L484.013 174.184L486.445 173.544C486.445 175.421 488.749 175.379 493.357 173.416C497.88 171.539 500.44 170.6 501.037 170.6H506.413C507.096 169.661 507.907 168.68 508.845 167.656C509.784 166.547 510.253 165.864 510.253 165.608L511.917 156.264L511.149 153.064L494.125 140.904H488.493L485.805 143.336ZM522.925 212.2C522.755 211.432 522.243 210.92 521.389 210.664C521.048 210.323 520.92 209.853 521.005 209.256C521.091 208.659 521.005 208.275 520.749 208.104C520.664 207.933 520.579 207.848 520.493 207.848C520.408 207.848 520.28 207.805 520.109 207.72C520.024 207.549 519.768 207.251 519.341 206.824C519.085 206.483 518.787 206.141 518.445 205.8C518.104 205.373 517.72 204.819 517.293 204.136C516.355 202.941 515.629 202.003 515.117 201.32C514.605 200.552 514.221 200.083 513.965 199.912C513.624 199.741 513.112 199.4 512.429 198.888C511.747 198.376 511.277 198.077 511.021 197.992C510.765 197.736 510.552 197.437 510.381 197.096C510.211 196.755 510.04 196.499 509.869 196.328C509.699 196.157 509.485 195.56 509.229 194.536C508.973 193.512 508.717 192.616 508.461 191.848C507.523 190.995 506.115 189.459 504.237 187.24C503.64 186.643 503.299 186.259 503.213 186.088L504.877 183.656L511.021 186.728C511.107 186.813 511.533 186.813 512.301 186.728C513.155 186.643 514.051 186.6 514.989 186.6C515.928 186.515 516.824 186.515 517.677 186.6C518.616 186.685 519.213 186.941 519.469 187.368C519.811 187.795 520.237 188.093 520.749 188.264C521.261 188.435 521.773 188.605 522.285 188.776C522.883 188.861 523.352 188.947 523.693 189.032C524.12 189.117 524.376 189.288 524.461 189.544L527.021 194.28C527.363 194.707 527.96 195.432 528.813 196.456C529.752 197.395 530.989 198.717 532.525 200.424C535.597 204.008 537.176 205.843 537.261 205.928L536.877 210.408L526.637 213.352L522.925 212.2Z" fill="white"/>
</svg>
