<svg width="154" height="154" viewBox="0 0 154 154" fill="none" xmlns="http://www.w3.org/2000/svg">
<rect x="26" y="26" width="100" height="100" rx="20" fill="#F5FFFD"/>
<path d="M126.897 58.4912C126.49 60.3412 123.66 54.0149 123.757 52.4208C123.806 51.603 124.67 52.2102 125.606 53.8932C126.534 55.564 127.077 57.6727 126.897 58.4912Z" fill="#327468"/>
<path d="M124.606 61.812C124.661 61.8426 124.709 61.8849 124.746 61.9358C124.782 61.9867 124.807 62.0451 124.819 62.1068C124.835 62.2048 124.77 62.3365 124.524 62.4177C123.057 62.9943 118.174 61.9583 116.998 60.9453C116.295 60.3396 117.442 60.1352 119.534 60.4376C121.283 60.6479 122.991 61.1109 124.606 61.812Z" fill="#327468"/>
<path d="M124.344 65.0677C125.162 64.8066 124.84 65.841 123.608 67.3747C122.376 68.9084 120.68 70.3694 119.878 70.6144C119.076 70.8594 119.441 69.8005 120.663 68.2752C121.885 66.7499 123.527 65.3295 124.344 65.0677Z" fill="#327468"/>
<path d="M133.556 18.324C129.141 13.6433 120.98 13.4864 116.72 18.324C113.534 21.9435 113.383 27.4045 115.69 31.3318V37.7491L122.921 36.4727C127.044 37.4214 131.66 36.3593 134.357 33.037C137.73 28.8792 137.305 22.2988 133.556 18.324ZM127.535 30.7912C125.097 30.7261 122.381 30.5615 121.416 30.2023C120.45 29.8432 121.612 29.2536 124.131 29.1066C128.797 28.834 134.193 30.9703 127.535 30.7912ZM127.208 24.9014C124.197 25.1962 120.794 25.1472 119.583 24.7873C118.373 24.4274 119.828 23.8792 122.839 23.576C125.85 23.2728 129.255 23.3233 130.464 23.6908C131.673 24.0584 130.218 24.6074 127.208 24.9014Z" fill="#327468"/>
<path d="M31.9533 69.2892C31.4855 68.9776 32.9786 69.2058 10.7978 69.3382C10.4836 69.3417 10.1835 69.4691 9.9629 69.6929C9.7423 69.9166 9.61909 70.2185 9.62012 70.5327V90.4769C9.62173 90.7932 9.7481 91.0961 9.97176 91.3198C10.1954 91.5434 10.4983 91.6698 10.8146 91.6714H31.317C31.6333 91.6698 31.9362 91.5434 32.1599 91.3198C32.3835 91.0961 32.5099 90.7932 32.5115 90.4769V77.7954C32.5117 77.622 32.5496 77.4508 32.6227 77.2936C32.6957 77.1363 32.802 76.9969 32.9343 76.8848C33.0666 76.7728 33.2216 76.6909 33.3887 76.6448C33.5558 76.5986 33.731 76.5894 33.902 76.6177L41.9687 77.0105L31.9533 69.2892ZM19.3055 86.6323C12.1722 84.7671 10.7296 76.8153 14.6592 75.7847C18.5888 74.754 20.0421 78.5335 20.0421 78.5335C20.0421 78.5335 25.7596 74.2111 27.3882 78.5335C29.624 84.4685 19.3055 86.6323 19.3055 86.6323ZM25.3269 72.4148C21.5635 72.7088 17.2932 72.6598 15.7878 72.3C14.2825 71.9401 16.0987 71.3918 19.8621 71.0894C23.6255 70.7869 27.8966 70.8382 29.4005 71.2035C30.9234 71.5741 29.0896 72.12 25.3269 72.4148Z" fill="#327468"/>
<path d="M66.8022 57.6729C66.2953 58.5917 67.208 59.192 67.4569 58.9164C69.6223 56.519 72.3045 60.4547 72.2808 59.1621C72.2172 55.1039 67.3099 56.7571 66.8022 57.6729Z" fill="#191919"/>
<path d="M77.225 58.9819C77.1446 60.2583 79.1316 56.5401 81.1347 59.0639C81.3644 59.3556 82.2832 58.8341 81.8384 57.8854C81.3935 56.9367 77.4754 54.9903 77.225 58.9819Z" fill="#191919"/>
<path d="M83.1302 65.5753C83.2206 64.7729 83.1792 64.3318 83.0812 64.266C82.7244 64.0876 82.0177 68.1029 78.9419 72.6121C76.827 75.7109 73.6991 78.786 69.9594 78.4858C67.2933 78.2714 64.8124 76.3189 62.9081 74.4276C61.7833 73.3104 61.4586 73.2882 62.3354 74.7055C62.972 75.7156 63.7427 76.6347 64.6263 77.4376C68.1325 80.6604 72.1861 80.7906 75.5881 78.433C79.5338 75.7032 82.6509 69.8464 83.1302 65.5753Z" fill="#191919"/>
<path d="M90.3138 85.5038C88.7533 85.9227 88.6445 86.1853 90.2479 86.1417C98.6982 85.912 105.264 88.0084 112.204 96.1547C112.679 96.7114 113.088 97.2014 113.465 97.6432C113.836 98.15 114.234 98.6357 114.659 99.0981C108.505 105.584 101.153 111.826 92.9968 115.59C87.7043 118.032 81.3918 119.089 83.9493 118.993C92.9309 118.657 101.379 113.159 108.082 107.573C114.348 102.365 119.875 96.3269 124.508 89.6248C124.9 89.0513 126.01 87.9403 125.883 87.2037C125.779 86.6019 123.936 85.366 122.725 83.6692C120.71 80.8415 122.802 78.1945 125.277 76.6179C126.265 75.9885 126.732 75.6853 126.57 75.6523C126.326 75.6767 126.088 75.7433 125.867 75.8491C122.402 77.1508 119.779 79.7917 121.171 83.2113C121.934 84.7984 123.021 86.2084 124.361 87.3507C123.366 89.2489 121.664 91.0337 120.303 92.7007C118.625 94.7644 116.873 96.7672 115.051 98.7053C115.036 98.6586 115.014 98.6145 114.985 98.5743C110.37 89.2244 99.8728 82.9349 90.3138 85.5038Z" fill="#191919"/>
<path d="M75.9815 81.2007C75.6752 80.7879 75.4402 80.7749 75.3598 81.2826C74.8644 84.4005 80.1791 90.7574 79.8774 88.5797C79.7365 87.5667 78.4019 85.2994 77.2595 83.3439C76.6913 82.3745 76.2809 81.6057 75.9815 81.2007Z" fill="#191919"/>
<path d="M142.946 89.4135C141.509 92.8783 139.669 96.1622 137.466 99.1977C128.523 111.514 125.061 116.077 112.694 125.375C106.057 130.367 98.7969 135.165 90.8038 137.55C81.0855 140.447 70.4515 140.82 60.8649 137.157C57.0747 135.78 53.6379 133.579 50.8028 130.711C46.2086 125.881 43.946 118.178 45.4858 111.65C47.057 104.989 52.0869 101.192 52.2424 100.688C52.3189 100.446 50.0218 102.169 48.1688 104.468C46.371 106.699 45.099 109.306 44.4474 112.096C43.7959 114.886 43.7815 117.787 44.4054 120.584C45.1253 124.833 47.0898 128.773 50.0502 131.905C49.7393 131.594 47.482 131.843 47.0073 131.839C41.5455 131.8 37.5685 131.59 24.3303 132.265C24.2981 129.614 24.2813 126.982 24.2491 124.378C23.949 100.131 22.5646 88.5805 22.2039 98.2987C21.9742 104.577 22.7438 118.543 22.7438 133.934L23.6274 133.901C32.5095 133.901 37.3426 133.426 50.7378 133.426C63.6015 143.227 81.9883 143.212 96.483 137.271C110.738 131.429 123.488 120.233 132.462 107.755C137.723 100.44 139.347 98.5897 141.46 94.1103C143.162 90.4955 144.233 86.3209 142.946 89.4135Z" fill="#191919"/>
<path d="M136.664 92.2599C136.31 92.7714 136.353 92.9965 136.975 92.7959C137.996 92.367 138.899 91.6996 139.609 90.8495C142.749 87.3349 143.432 81.8556 142.194 83.4704C141.441 84.4521 140.182 87.446 138.546 89.7691C137.728 90.9353 137.013 91.7569 136.664 92.2599Z" fill="#191919"/>
<path d="M139.446 83.1636C140.929 80.9017 141.154 79.5242 140.264 80.1697C139.374 80.8152 137.527 83.0617 135.863 85.0617C134.199 87.0618 133.478 88.2616 134.554 87.8757C135.631 87.4898 137.968 85.4178 139.446 83.1636Z" fill="#191919"/>
<path d="M73.5072 68.6185C71.7055 68.4493 71.4176 68.8942 73.1312 69.715C73.4247 69.8527 73.7478 69.9157 74.0715 69.8982C74.3953 69.8808 74.7097 69.7835 74.9867 69.615C75.2637 69.4466 75.4947 69.2122 75.6592 68.9328C75.8236 68.6533 75.9163 68.3376 75.9291 68.0136C75.9389 67.6909 75.9223 67.368 75.8793 67.0481C75.6259 63.6744 74.3479 61.4508 74.096 62.7601C74.0055 63.581 74.0055 64.4094 74.096 65.2303C74.3349 68.3834 74.3678 68.0312 74.2759 68.241C74.2032 68.3763 74.09 68.4854 73.9521 68.5531C73.8143 68.6208 73.6587 68.6437 73.5072 68.6185Z" fill="#191919"/>
<path d="M68.0954 73.4778C69.9652 74.3507 72.27 72.6501 71.2202 72.3001C70.3818 72.0207 69.3381 72.5574 68.1276 71.6455C67.6971 71.2738 67.2314 70.945 66.7371 70.6639C65.747 70.2733 66.2907 71.7565 66.9499 72.5949C67.268 72.9638 67.6577 73.2642 68.0954 73.4778Z" fill="#191919"/>
<path d="M83.2616 60.1274L76.6842 60.9291C76.6521 60.9291 76.6352 60.9451 76.6191 60.9451C75.9605 60.5842 75.2259 60.3842 74.4752 60.3614C73.7245 60.3387 72.9791 60.4938 72.2998 60.8142C72.2998 60.8142 66.2133 60.135 66.2133 60.1251L63.2355 58.8824C66.7508 49.6664 76.0655 45.9734 82.8037 53.1067C82.9835 53.2994 83.2207 53.4289 83.4801 53.4761C83.7394 53.5233 84.007 53.4856 84.2432 53.3685C85.7381 52.6954 86.9959 51.5883 87.8533 50.191C88.7107 48.7936 89.128 47.1707 89.051 45.5331C88.1651 28.0928 68.224 24.9833 55.691 31.3639C43.158 37.7444 39.74 49.723 43.995 59.145C47.7032 67.3602 56.4131 69.8127 59.1619 70.3855C59.1619 75.325 59.9031 80.5532 62.8756 88.4315C63.3927 89.859 64.0106 91.2479 64.7247 92.5877C65.2485 93.5203 65.6244 93.9782 65.7393 93.9782C65.979 93.9782 65.2033 92.3702 64.005 88.2025C61.4253 79.2615 60.1512 72.4896 61.1252 63.3341L60.4054 63.4321C59.954 63.5005 59.4927 63.4572 59.062 63.306C58.6312 63.1547 58.2441 62.9002 57.9345 62.5646C57.6945 62.2651 57.5404 61.906 57.4886 61.5257C57.4368 61.1454 57.4893 60.7581 57.6405 60.4053C58.1627 59.2882 59.5111 59.2024 60.7324 59.4099C61.2737 59.501 61.6321 59.5899 61.8449 59.6228C62.9169 60.5072 65.7171 62.8334 66.3626 63.3694C67.0333 64.6787 68.0471 65.864 69.5364 66.0692C71.6291 66.3579 72.4461 63.5822 72.7271 61.9138C73.2741 61.6407 73.8825 61.5138 74.4931 61.5453C75.1037 61.5769 75.6958 61.7658 76.2118 62.0937C76.5556 63.7622 77.6023 66.3602 79.6636 66.0853C82.1506 65.7545 83.2769 62.7162 83.7868 60.8785C83.8178 60.794 83.8279 60.7033 83.8162 60.6141C83.8046 60.5249 83.7716 60.4398 83.72 60.366C83.6685 60.2923 83.5999 60.2321 83.5201 60.1905C83.4402 60.149 83.3516 60.1273 83.2616 60.1274ZM48.8051 54.5477C48.9016 55.7261 49.5769 57.5263 49.1979 58.671C49.1167 58.9168 47.3342 55.3984 47.2676 55.1695C46.0874 50.9534 46.4173 46.4575 48.2002 42.4589C50.2048 37.9228 55.7094 33.5584 60.9943 35.1288C62.7125 35.5216 62.4031 35.8432 60.7982 36.0614C51.7063 37.2965 48.0371 45.1288 48.8051 54.5477Z" fill="#191919"/>
<path d="M22.9219 25.1794C22.9219 25.1794 22.3446 75.6207 24.1325 62.5977C25.0628 55.8235 24.4273 42.5065 24.4434 26.6863C73.4642 26.7415 128.357 25.8724 106.986 25.2797C93.7652 24.9107 22.9219 25.1794 22.9219 25.1794Z" fill="#191919"/>
<path d="M130.774 58.7042C131.134 56.6261 131.183 50.7363 130.889 45.5495C130.594 40.3626 130.046 37.8419 129.678 39.9216C129.31 42.0012 129.261 47.8895 129.563 53.0755C129.866 58.2616 130.415 60.7815 130.774 58.7042Z" fill="#191919"/>
<path d="M132.459 128.877C132.174 118.143 131.608 112.941 131.249 117.244C130.929 121.073 130.955 129.158 130.955 132.721C130.955 132.837 130.925 132.829 130.758 132.836C128.821 132.913 128.071 132.954 120.631 133.147C103.005 133.606 103.331 134.624 120.205 134.652C122.507 134.656 126.989 134.685 130.153 134.472C130.879 134.423 131.586 134.478 132.116 133.933C132.674 133.357 132.57 133.02 132.459 128.877Z" fill="#191919"/>
<path d="M27.6665 141.082C27.3129 140.43 26.7459 139.92 26.0608 139.637C25.3757 139.354 24.6142 139.315 23.9039 139.527C20.9176 140.317 21.8365 146.065 26.9138 147.381C26.9777 147.402 27.0467 147.402 27.1106 147.381C27.2745 147.351 31.2722 146.485 32.5096 144.207C32.7278 143.803 32.8529 143.355 32.8756 142.896C32.8982 142.438 32.8179 141.98 32.6405 141.557C31.8273 139.404 29.5945 139.84 27.6665 141.082ZM31.7737 143.815C30.812 145.583 27.6343 146.4 27.0448 146.547C24.4598 145.827 23.0532 143.7 23.0532 142.047C23.0207 141.804 23.045 141.557 23.1241 141.324C23.2033 141.092 23.3353 140.881 23.5096 140.708C23.6839 140.536 23.8959 140.406 24.1289 140.328C24.3619 140.251 24.6096 140.229 24.8526 140.264C25.3431 140.287 25.8163 140.452 26.2143 140.74C26.6124 141.028 26.918 141.425 27.0938 141.883L27.3066 142.407L27.7484 142.063C28.2883 141.655 29.9238 140.659 30.972 140.968C31.1804 141.039 31.3683 141.16 31.5193 141.32C31.6704 141.48 31.78 141.674 31.8388 141.887C31.9753 142.192 32.0407 142.524 32.03 142.858C32.0192 143.192 31.9326 143.519 31.7768 143.815H31.7737Z" fill="#191919"/>
<path d="M41.7533 140.444C39.166 138.845 35.2832 140.766 35.6829 144.698C35.9731 147.545 38.9754 148.045 41.7855 147.463L45.5979 147.725L43.4708 144.718C43.6744 143.915 43.6178 143.069 43.3091 142.301C43.0004 141.533 42.4556 140.883 41.7533 140.444ZM43.8973 146.743C43.1607 146.636 42.4163 146.592 41.6722 146.612C41.6392 146.612 38.8613 147.246 37.4019 146.203C37.1471 146.017 36.9371 145.777 36.7871 145.499C36.6371 145.222 36.551 144.915 36.5351 144.6C36.451 144.127 36.471 143.642 36.5938 143.178C36.7166 142.713 36.9392 142.282 37.2461 141.913C37.5529 141.543 37.9367 141.245 38.3705 141.04C38.8044 140.834 39.2778 140.726 39.7579 140.722C40.2507 140.724 40.7356 140.846 41.1706 141.078C41.6056 141.309 41.9777 141.643 42.2548 142.051C42.5318 142.459 42.7054 142.927 42.7607 143.417C42.8159 143.907 42.7511 144.403 42.5719 144.862L43.8973 146.743Z" fill="#191919"/>
<path d="M51.4548 144.665L54.1056 149.312L57.6569 139.708L46.6309 142.129L51.4548 144.665ZM49.0987 142.456L55.2503 141.115L51.7166 143.847L49.0987 142.456ZM53.9418 147.316L52.3055 144.469L56.0681 141.559L53.9418 147.316Z" fill="#191919"/>
<path d="M114.888 148.101L119.01 143.405L123.509 147.561V138.202H114.888V148.101ZM115.738 139.054H122.659V145.614L118.945 142.195L115.738 145.843V139.054Z" fill="#191919"/>
<path d="M31.7568 21.842C36.2407 21.842 40.8794 18.2531 41.0501 13.1543C41.2209 8.05554 36.8303 4.37865 32.6734 3.89396C27.7308 3.31739 22.949 6.77299 22.2675 11.4369C21.4719 16.8665 26.3954 21.842 31.7568 21.842ZM25.5891 18.3243C26.3801 17.5191 27.3279 16.8846 28.3738 16.46C29.4198 16.0355 30.5416 15.8299 31.6702 15.8561C32.7987 15.8822 33.9098 16.1394 34.935 16.6119C35.9602 17.0844 36.8775 17.7621 37.6305 18.6031C36.8234 19.3789 35.8708 19.9875 34.8276 20.3936C33.7843 20.7998 32.671 20.9956 31.5518 20.9697C30.4326 20.9438 29.3295 20.6967 28.3062 20.2427C27.2828 19.7887 26.3594 19.1367 25.5891 18.3243ZM32.557 4.71249C36.3388 5.1321 40.3411 8.49122 40.1818 13.1053C40.1149 14.9098 39.4203 16.6343 38.2178 17.9813C37.3855 17.0659 36.3756 16.3295 35.2495 15.8171C34.1234 15.3047 32.9047 15.027 31.6678 15.0009C30.4309 14.9749 29.2016 15.2009 28.0549 15.6654C26.9082 16.1299 25.8681 16.8231 24.998 17.7026C19.8318 11.466 25.7101 3.95139 32.5585 4.71249H32.557Z" fill="#191919"/>
<path d="M50.0001 18.1471L88.3831 17.2283C89.5241 17.2042 90.6101 16.7336 91.4078 15.9175C92.2056 15.1015 92.6514 14.005 92.6496 12.8638C92.6452 11.7959 92.2235 10.7721 91.4746 10.0108C90.7257 9.24958 89.7088 8.81129 88.6411 8.78952C79.9045 8.66777 58.6349 8.41739 49.8653 8.70759C48.73 8.74067 47.6522 9.21506 46.861 10.03C46.0698 10.8449 45.6274 11.9362 45.6279 13.0721V13.7612C45.6339 14.9202 46.0961 16.0302 46.9143 16.851C47.7326 17.6719 48.8411 18.1375 50.0001 18.1471ZM46.4825 13.0935C46.4775 12.1785 46.8305 11.2978 47.4662 10.6397C48.1019 9.98151 48.9698 9.59807 49.8845 9.5713C59.5759 9.28569 78.9811 9.53914 88.6289 9.65323C89.4743 9.66864 90.28 10.0147 90.8733 10.6171C91.4666 11.2196 91.8002 12.0305 91.8027 12.8761C91.8115 13.7975 91.455 14.6849 90.8111 15.3442C90.1672 16.0034 89.2884 16.3808 88.367 16.3937L50.0981 17.3125C49.6281 17.325 49.1604 17.2433 48.7226 17.0721C48.2847 16.901 47.8855 16.6439 47.5485 16.3161C47.2116 15.9883 46.9436 15.5963 46.7606 15.1633C46.5775 14.7303 46.4829 14.265 46.4825 13.7949V13.0935Z" fill="#191919"/>
<path d="M30.6107 13.2851C33.9331 14.0646 37.0947 10.1289 34.2271 7.14956C33.6951 6.57228 32.9956 6.17606 32.2269 6.01648C31.4582 5.8569 30.6588 5.94196 29.9409 6.25974C29.223 6.57752 28.6226 7.11207 28.224 7.7884C27.8253 8.46472 27.6483 9.24889 27.7179 10.0309C27.8103 10.8038 28.1369 11.5299 28.6541 12.1116C29.1712 12.6933 29.854 13.1029 30.6107 13.2851ZM31.1674 6.80652C31.6106 6.77376 32.0556 6.83664 32.4723 6.99089C32.889 7.14515 33.2677 7.38718 33.5827 7.70058C33.8977 8.01399 34.1416 8.39144 34.298 8.80737C34.4544 9.2233 34.5195 9.66798 34.489 10.1113C34.4036 10.5086 34.2403 10.885 34.0087 11.2189C33.777 11.5527 33.4815 11.8374 33.1392 12.0565C32.7969 12.2755 32.4147 12.4246 32.0145 12.4951C31.6143 12.5656 31.2041 12.5562 30.8075 12.4673C30.2263 12.3256 29.702 12.0101 29.3045 11.5629C28.907 11.1158 28.6551 10.5581 28.5824 9.96427C28.537 9.20925 28.7779 8.46485 29.257 7.87956C29.7361 7.29428 30.4183 6.91112 31.1674 6.80652Z" fill="#191919"/>
<path d="M133.441 82.9835C132.969 83.4366 132.536 83.9292 132.148 84.456C131.765 85.0432 131.871 85.2431 132.492 84.9797C136.764 83.1673 139.573 78.6458 139.494 75.4084C140.59 69.6167 140.99 63.6626 141.49 60.8471C141.516 60.6985 141.502 60.5455 141.45 60.4041C141.397 60.2627 141.307 60.1379 141.19 60.0428C141.073 59.9476 140.933 59.8856 140.783 59.863C140.634 59.8405 140.482 59.8582 140.341 59.9145L128.581 64.6098C128.422 64.6732 128.286 64.7843 128.193 64.9278C128.099 65.0713 128.052 65.2402 128.058 65.4115L128.418 81.9039C129.122 82.4463 129.939 82.8246 130.807 83.0114C131.676 83.1982 132.576 83.1887 133.441 82.9835ZM135.502 65.6894C135.857 65.7787 136.17 65.9864 136.39 66.278C136.61 66.5696 136.724 66.9276 136.713 67.2928C136.71 67.6795 136.565 68.0517 136.306 68.3384C136.046 68.6251 135.69 68.8062 135.305 68.8472C134.946 68.8572 134.595 68.7419 134.311 68.521C134.027 68.3001 133.829 67.9874 133.751 67.6366C133.717 67.3895 133.737 67.1379 133.81 66.8994C133.883 66.6609 134.007 66.4412 134.174 66.2558C134.341 66.0703 134.546 65.9235 134.775 65.8257C135.005 65.7278 135.253 65.6813 135.502 65.6894ZM130.61 68.0294C130.975 66.7545 131.518 68.2905 131.821 71.498C132.123 74.7055 132.067 78.3372 131.707 79.6144C131.347 80.8916 130.806 79.3365 130.495 76.1458C130.184 72.9551 130.24 69.3234 130.61 68.0294Z" fill="#191919"/>
<path d="M87.5198 86.0755C84.3805 85.4216 81.3023 88.7425 81.3023 88.7425C81.3023 88.7425 87.0451 97.3834 78.2755 101.606C70.5864 105.305 63.6981 94.6529 63.6981 94.6529C61.876 94.758 60.0957 95.2411 58.4704 96.0716C56.8452 96.9021 55.4106 98.0618 54.2578 99.4768C56.8275 104.967 60.2376 110.024 64.3651 114.464C70.8115 121.139 86.6324 115.723 86.6324 115.723C86.6324 115.723 95.0091 112.648 100.883 108.132L87.5198 86.0755ZM70.5978 113.743C66.9309 114.151 63.5159 110.109 61.6315 107.476C60.7008 106.264 60.007 104.887 59.5863 103.418C59.1506 101.154 61.9416 104.54 63.5458 106.251C68.3092 111.322 68.3697 111.191 70.8919 112.844C71.6139 113.315 71.4148 113.651 70.5978 113.743Z" fill="#327468"/>
</svg>
