<svg width="154" height="154" viewBox="0 0 154 154" fill="none" xmlns="http://www.w3.org/2000/svg">
<rect x="16" y="40" width="100" height="100" rx="20" fill="#F5FFFD"/>
<path d="M73.0952 71.8071C73.0646 73.9885 73.2421 76.1678 73.625 78.3156C74.965 85.3822 81.7185 78.3921 85.4076 80.9419C86.9145 81.9833 86.1664 86.7888 87.0776 88.5828C88.4099 91.2061 91.7063 89.4741 93.8311 89.7674C95.1703 89.9527 96.3273 90.7314 97.7101 90.7475C98.1029 90.7681 98.4931 90.6737 98.8331 90.476C99.1731 90.2782 99.4481 89.9857 99.6244 89.6341C100.395 88.0943 99.3395 86.7934 99.4927 85.3079C99.6144 84.118 100.974 83.4986 100.668 82.0797C100.568 81.6104 98.9176 79.4457 99.3143 79.0116C99.632 78.6632 100.567 79.1693 100.826 79.3569C103.263 81.118 102.767 85.056 104.052 87.5315C105 89.3608 106.699 90.723 106.518 92.9611C106.199 96.8976 103.487 98.3761 105.719 102.957C106.706 104.983 108.892 106.072 110.109 107.923C110.891 109.113 111.717 116.954 113.739 112.921C115.15 110.105 113.702 103.468 113.262 100.279C112.245 92.9044 110.036 83.0905 104.32 77.6907C101.042 74.5965 96.9253 73.0674 92.923 71.219C88.3288 69.0988 83.8111 67.0559 78.9045 65.768C76.9091 65.2435 74.6074 64.2741 73.3915 66.5337C73.7154 65.961 73.3632 65.9319 73.0952 71.8071Z" fill="#327468"/>
<path d="M60.0047 59.6961C60.1 59.7174 60.2012 59.707 60.3024 59.6654C60.4036 59.6239 60.5028 59.552 60.5942 59.454C60.6857 59.356 60.7676 59.2338 60.8353 59.0944C60.9029 58.955 60.955 58.8011 60.9885 58.6418C61.022 58.4824 61.0362 58.3206 61.0304 58.1657C61.0246 58.0108 60.9988 57.8659 60.9545 57.7394C60.9103 57.6128 60.8484 57.5071 60.7725 57.4283C60.6966 57.3495 60.6082 57.2992 60.5123 57.2803C60.417 57.259 60.3158 57.2694 60.2146 57.3109C60.1134 57.3525 60.0143 57.4243 59.9228 57.5223C59.8314 57.6203 59.7495 57.7426 59.6818 57.882C59.6141 58.0214 59.562 58.1752 59.5285 58.3346C59.495 58.494 59.4808 58.6558 59.4866 58.8107C59.4925 58.9655 59.5182 59.1104 59.5625 59.237C59.6068 59.3635 59.6686 59.4693 59.7445 59.548C59.8204 59.6268 59.9088 59.6771 60.0047 59.6961Z" fill="#191919"/>
<path d="M58.6101 65.1804L58.6025 65.1889C58.7189 65.3665 58.8843 64.8106 58.9853 64.6567C59.4774 63.8395 60.0591 63.0799 60.7197 62.3918C60.7467 62.3447 60.783 62.3036 60.8264 62.2709C60.8697 62.2382 60.9192 62.2145 60.9719 62.2014C61.0246 62.1883 61.0794 62.1859 61.133 62.1945C61.1867 62.2031 61.238 62.2223 61.284 62.2512C61.33 62.2801 61.3697 62.3179 61.4007 62.3625C61.4317 62.4071 61.4534 62.4575 61.4645 62.5106C61.4755 62.5638 61.4758 62.6186 61.4652 62.6719C61.4545 62.7251 61.4333 62.7757 61.4027 62.8206C61.0664 63.7091 60.6386 64.5603 60.1262 65.3604C59.8146 65.8964 59.4807 66.4117 58.8644 66.5089C58.2089 66.526 57.5734 66.2826 57.0971 65.8321C56.8154 65.5822 56.5796 65.2849 56.4003 64.9538C56.3283 64.877 56.2898 64.7748 56.2932 64.6696C56.2965 64.5644 56.3416 64.4649 56.4183 64.3929C56.4951 64.3209 56.5973 64.2824 56.7025 64.2858C56.8077 64.2891 56.9072 64.3342 56.9792 64.4109L57.81 64.7784C58.0604 64.9427 58.3289 65.0776 58.6101 65.1804ZM58.6101 65.1804H58.6438C58.6327 65.182 58.6213 65.182 58.6101 65.1804Z" fill="#191919"/>
<path d="M52.3794 66.8072C51.5156 65.5257 51.0519 64.0165 51.0471 62.4711C50.6547 62.2003 50.2814 61.9028 49.93 61.5806C50.2649 61.0861 50.5528 60.5614 50.7898 60.0132C51.4966 57.0308 51.7852 53.9695 52.6099 51.0039C48.7247 48.3301 46.0387 43.0575 47.9116 38.3301C32.0218 44.35 28.2614 58.3202 28.3862 58.357C26.034 61.0752 23.5838 63.7253 21.168 66.3861C22.0482 67.5257 22.9985 68.6095 24.0133 69.6311C27.4467 73.5515 31.9215 76.6756 36.4345 79.2521C37.8533 78.1289 39.0693 76.7521 40.4161 75.5454C43.9675 72.3639 47.92 68.9091 52.2592 66.7781L52.3794 66.8072Z" fill="#327468"/>
<path d="M111.383 54.8181C108.684 52.7507 105.831 50.8913 102.85 49.2561C100.462 47.8151 97.9274 46.6328 95.289 45.7292C92.8338 42.1955 89.57 39.2993 85.7693 37.2819C81.9685 35.2644 77.7409 34.1839 73.4383 34.1304C70.4015 34.0814 67.2506 33.9359 64.3203 34.828C66.0692 36.6281 67.0646 39.2461 68.0784 41.5118C75.2162 41.6259 78.8449 49.8326 77.2469 56.0095C78.7553 58.7599 78.9245 62.3648 75.606 63.6306C78.975 63.9843 82.2178 65.3993 85.4069 66.4636C92.8227 68.9338 100.262 72.3695 106.499 77.1635C110.386 71.1793 113.168 64.5461 114.712 57.5792C113.674 56.5759 112.561 55.6528 111.383 54.8181Z" fill="#327468"/>
<path d="M20.6859 69.169C19.0376 71.7763 17.6181 74.5214 16.4431 77.3735C13.7867 84.0866 12.3101 91.2082 12.0787 98.4241C11.682 109.436 13.7961 118.969 17.6093 128.471C17.6506 128.567 17.7277 128.644 17.8244 128.684C17.9211 128.725 18.0297 128.726 18.1273 128.688C18.225 128.65 18.3039 128.575 18.3474 128.48C18.3909 128.384 18.3956 128.276 18.3605 128.177C14.8243 118.683 13.1501 108.597 13.4293 98.4693C13.6773 91.4059 15.0955 84.4327 17.6261 77.8336C18.6862 74.9957 19.9374 72.2328 21.3712 69.5641C21.4243 69.4727 21.4389 69.364 21.4118 69.2618C21.3848 69.1596 21.3182 69.0724 21.2269 69.0193C21.1355 68.9662 21.0267 68.9516 20.9246 68.9786C20.8224 69.0057 20.7352 69.0722 20.6821 69.1636L20.6859 69.169Z" fill="#191919"/>
<path d="M18.0293 122.512C18.4597 124.291 19.2261 125.971 20.2874 127.463C20.6994 128.008 21.1673 128.508 21.6832 128.956C21.7544 129.031 21.8516 129.076 21.9549 129.081C22.0581 129.086 22.1594 129.052 22.238 128.985C22.3165 128.918 22.3663 128.823 22.3771 128.72C22.3878 128.617 22.3587 128.514 22.2958 128.432C22.0737 128.094 20.8279 125.859 20.7866 125.781C19.939 124.213 19.5462 123.052 19.1786 122.386C18.7368 121.589 18.5661 121.294 18.2314 121.401C17.8409 121.526 17.9566 121.964 18.0293 122.512Z" fill="#191919"/>
<path d="M21.4055 120.958C21.9875 122.818 22.8577 124.574 23.9844 126.164C24.4158 126.745 24.8917 127.292 25.4078 127.799C25.4396 127.842 25.4796 127.878 25.5256 127.906C25.5715 127.933 25.6225 127.951 25.6756 127.959C25.7286 127.967 25.7827 127.964 25.8345 127.95C25.8864 127.937 25.9351 127.913 25.9777 127.88C26.0203 127.848 26.056 127.807 26.0828 127.761C26.1095 127.714 26.1267 127.663 26.1334 127.61C26.1401 127.557 26.1361 127.503 26.1217 127.451C26.1073 127.399 26.0827 127.351 26.0495 127.309C25.672 126.677 25.7309 126.689 24.5947 124.694C23.2256 122.295 23.0518 121.583 22.5181 120.73C22.0119 119.921 21.8611 119.667 21.5227 119.797C21.1681 119.933 21.27 120.3 21.4055 120.958Z" fill="#191919"/>
<path d="M35.0501 80.5326C33.7018 82.4016 32.485 84.3619 31.4084 86.3994C28.9592 91.1995 27.1308 96.2917 25.9673 101.553C24.2269 109.517 24.1496 116.948 26.5516 124.391C26.5661 124.443 26.5909 124.492 26.6246 124.534C26.6582 124.576 26.7 124.611 26.7474 124.637C26.7948 124.663 26.8469 124.679 26.9006 124.684C26.9543 124.689 27.0085 124.684 27.06 124.668C27.1116 124.652 27.1593 124.625 27.2006 124.591C27.2418 124.556 27.2756 124.513 27.3 124.465C27.3244 124.417 27.3389 124.364 27.3427 124.31C27.3464 124.257 27.3394 124.203 27.3219 124.152C25.756 118.878 25.3012 110.77 27.2836 101.842C28.444 96.6944 30.2092 91.7021 32.5424 86.9691C33.3433 85.303 34.7315 82.5403 35.7116 80.9668C35.7408 80.9232 35.761 80.8743 35.7711 80.8228C35.7813 80.7714 35.7811 80.7184 35.7706 80.6671C35.7602 80.6157 35.7396 80.5669 35.7102 80.5235C35.6807 80.4801 35.643 80.443 35.5991 80.4143C35.5552 80.3856 35.506 80.3659 35.4545 80.3563C35.4029 80.3467 35.35 80.3474 35.2987 80.3584C35.2475 80.3695 35.1989 80.3905 35.1558 80.4204C35.1127 80.4503 35.076 80.4885 35.0478 80.5326H35.0501Z" fill="#191919"/>
<path d="M108.435 80.8856C109.095 82.2186 110.116 84.8925 110.637 86.3006C112.254 90.5431 113.413 94.9464 114.093 99.4354C115.079 105.856 114.999 112.396 113.859 118.791C113.837 118.894 113.857 119.002 113.915 119.091C113.972 119.18 114.062 119.243 114.165 119.267C114.268 119.29 114.377 119.272 114.467 119.216C114.557 119.16 114.621 119.071 114.646 118.968C116.236 112.512 116.501 105.8 115.426 99.2379C114.754 94.6452 113.544 90.1476 111.82 85.8381C111.043 84.0084 110.148 82.2315 109.14 80.5188C109.091 80.4256 109.007 80.3556 108.907 80.3242C108.806 80.2928 108.697 80.3026 108.604 80.3515C108.511 80.4003 108.441 80.4842 108.41 80.5846C108.378 80.6851 108.388 80.7939 108.437 80.8871L108.435 80.8856Z" fill="#191919"/>
<path d="M118.396 113.62C118.225 113.942 117.96 114.738 117.724 115.35C117.472 116.005 117.151 116.759 116.958 117.352C116.837 117.719 116.751 118.079 116.634 118.445C116.61 118.492 116.595 118.544 116.591 118.596C116.587 118.649 116.593 118.702 116.609 118.753C116.626 118.803 116.652 118.85 116.686 118.89C116.72 118.93 116.762 118.964 116.809 118.988C116.856 119.012 116.908 119.026 116.96 119.031C117.013 119.035 117.066 119.029 117.117 119.013C117.167 118.996 117.214 118.97 117.254 118.936C117.294 118.902 117.328 118.86 117.352 118.813C117.998 118.026 118.506 117.134 118.854 116.176C119.131 115.521 119.357 114.845 119.532 114.155C119.557 114.001 119.57 113.845 119.571 113.689C119.582 113.173 119.622 112.818 119.278 112.726C118.934 112.634 118.738 112.975 118.396 113.62Z" fill="#191919"/>
<path d="M121.761 115.228C121.495 115.63 121.274 116.059 121.099 116.507C120.668 117.425 120.175 118.312 119.623 119.163C119.53 119.316 118.996 120.222 118.751 120.585C118.715 120.623 118.687 120.668 118.668 120.718C118.649 120.767 118.64 120.82 118.642 120.873C118.643 120.926 118.655 120.978 118.677 121.026C118.699 121.074 118.73 121.118 118.768 121.154C118.807 121.191 118.852 121.219 118.901 121.238C118.951 121.256 119.004 121.265 119.057 121.264C119.109 121.262 119.161 121.25 119.21 121.229C119.258 121.207 119.302 121.176 119.338 121.137C119.821 120.776 120.261 120.36 120.65 119.898C121.658 118.633 122.382 117.165 122.772 115.594C122.836 115.07 122.925 114.668 122.559 114.548C122.193 114.428 122.053 114.778 121.761 115.228Z" fill="#191919"/>
<path d="M117.165 59.7124C125.617 68.191 129.455 88.9391 129.024 100.924C128.75 108.556 126.969 116.46 122.769 122.806C122.74 122.85 122.719 122.899 122.708 122.951C122.698 123.003 122.698 123.057 122.708 123.109C122.718 123.161 122.738 123.21 122.767 123.255C122.797 123.299 122.834 123.337 122.878 123.367C122.922 123.396 122.971 123.417 123.023 123.427C123.075 123.438 123.129 123.438 123.181 123.428C123.233 123.418 123.283 123.398 123.327 123.369C123.371 123.339 123.409 123.302 123.439 123.258C126.988 118.007 129.22 111.979 129.947 105.683C131.143 96.5548 129.84 86.5984 127.454 77.7017C125.525 70.5095 123.024 64.2024 117.72 59.1457C117.683 59.107 117.639 59.0761 117.59 59.0548C117.541 59.0336 117.488 59.0224 117.435 59.022C117.382 59.0216 117.329 59.0319 117.279 59.0524C117.23 59.0729 117.186 59.1031 117.148 59.1412C117.111 59.1794 117.082 59.2246 117.062 59.2743C117.043 59.324 117.034 59.3771 117.035 59.4304C117.037 59.4837 117.049 59.5362 117.072 59.5846C117.094 59.6331 117.126 59.6765 117.165 59.7124H117.165Z" fill="#191919"/>
<path d="M109.617 33.8394C103.16 28.9236 102.426 17.3508 107.368 11.1165C112.727 4.35614 124.35 1.71907 131.992 5.69994C141.862 10.8431 144.388 28.1273 136.203 35.8616C131.34 40.4558 124.375 42.3701 114.477 38.733C112.071 40.9306 108.826 43.1228 105.595 43.6802C105.52 43.6946 105.443 43.6872 105.372 43.659C105.302 43.6308 105.24 43.5829 105.196 43.521C105.152 43.4591 105.126 43.3858 105.122 43.3098C105.118 43.2338 105.136 43.1583 105.174 43.0921C106.421 40.9267 108.867 36.2606 109.617 33.8394ZM106.344 42.6771C109.139 41.8349 111.892 39.7414 113.973 37.7093C114.047 37.638 114.14 37.589 114.24 37.5679C114.341 37.5468 114.445 37.5544 114.541 37.5898C121.927 40.2606 129.544 40.3463 135.287 34.8945C142.787 27.7735 140.417 11.6173 131.369 6.89367C124.297 3.20146 113.387 5.67467 108.372 11.9182C103.721 17.7092 104.395 28.808 110.482 33.2429C110.564 33.3023 110.626 33.3856 110.66 33.4814C110.693 33.5773 110.697 33.6811 110.669 33.7789C110.023 36.0737 107.526 40.6059 106.344 42.6771Z" fill="#191919"/>
<path d="M131.458 17.2473C131.372 16.5307 131.074 15.856 130.604 15.3088C130.133 14.7616 129.511 14.3665 128.815 14.1737C126.212 13.3644 123.92 14.8782 122.338 17.1439C121.901 16.6979 121.429 16.2882 120.926 15.9188C119.165 14.6936 116.868 14.6554 115.386 16.4548C114.816 17.2289 114.416 18.114 114.21 19.0528C114.005 19.9915 113.999 20.963 114.193 21.9042C114.663 24.0482 117.095 26.4295 118.878 27.7802C120.005 28.6215 121.206 29.36 122.465 29.987C122.534 30.0236 122.612 30.0392 122.69 30.0317C122.768 30.0242 122.842 29.994 122.903 29.9449C124.826 28.3576 128.024 25.585 129.523 23.5505C130.62 22.241 131.304 20.635 131.487 18.9364C131.534 18.3738 131.525 17.8079 131.458 17.2473Z" fill="#327468"/>
<path d="M31.2876 57.1694C31.7197 56.9148 32.1318 56.6276 32.5203 56.3103C32.7845 56.0714 33.3435 55.4941 33.1329 55.1556C32.9154 54.8042 32.0027 55.148 31.8756 55.2039C31.39 55.4585 30.9391 55.7745 30.5341 56.1442C30.4767 56.2169 30.0747 56.8746 30.2661 57.1304C30.4575 57.3861 31.2141 57.1978 31.2876 57.1694Z" fill="#191919"/>
<path d="M89.8935 45.4564C90.1178 45.5184 91.2434 45.6318 91.4746 45.6555C92.0466 45.7152 93.6347 45.8913 93.7358 45.327C93.8192 44.8622 92.5765 44.5077 92.4341 44.4702C91.6336 44.2956 90.8176 44.2018 89.9984 44.1899C89.8843 44.2014 88.9762 44.353 88.9478 44.7458C88.9218 45.1126 89.7978 45.4304 89.8935 45.4564Z" fill="#191919"/>
<path d="M76.3408 56.1449C76.9288 51.1633 76.1983 46.7498 72.0015 44.0377C70.3071 42.9657 68.4923 42.5829 66.7511 41.8386C65.2197 37.0828 62.6164 32.9817 57.6179 32.948C56.6976 32.8962 55.7784 33.0667 54.9379 33.445C49.3368 36.2827 46.6814 44.2574 51.5558 48.8302C54.8483 51.9068 60.7511 53.1886 65.206 52.8118C65.294 54.4742 65.9954 55.8249 67.5681 56.3302C68.9464 56.7728 70.7358 56.4413 72.1547 56.1595C72.6737 56.0647 73.2022 56.0315 73.729 56.0607C74.7872 56.1258 76.5904 57.0561 76.4595 58.8662C76.3858 59.7348 76.0059 60.549 75.3875 61.1633C74.4526 62.073 72.7496 62.3371 71.4479 62.3976C71.3161 62.405 71.1896 62.4523 71.0852 62.5333C70.9809 62.6142 70.9036 62.725 70.8637 62.8509C70.6092 63.8604 70.1363 64.8018 69.4786 65.6088C68.8208 66.4158 67.9941 67.0688 67.0567 67.5217C65.1684 68.4252 62.2978 68.364 61.8415 68.0577C61.6993 67.9618 61.526 67.9238 61.3568 67.9513C59.6936 68.2823 57.9723 68.1655 56.369 67.6128C54.1868 66.7491 53.2373 64.8241 52.9402 62.5064C53.3629 62.6235 53.794 62.707 54.1891 62.8165C54.2874 62.8508 54.3951 62.8457 54.4898 62.8024C54.5845 62.7591 54.6588 62.6809 54.6971 62.5841C54.7355 62.4874 54.7349 62.3795 54.6956 62.2831C54.6563 62.1867 54.5813 62.1092 54.4862 62.0669C53.8874 61.7521 53.0987 61.4076 52.6324 61.0875C53.3287 59.6961 54.1385 58.3644 55.0535 57.1059C55.1761 56.9168 55.2833 56.723 55.4027 56.5347C55.8269 55.8754 56.0558 55.7077 55.8131 55.4229C55.4134 54.952 54.2878 56.04 53.8904 56.514C53.6293 56.8264 53.2128 57.4198 52.9862 57.756C53.1323 56.1552 53.4179 54.5703 53.8399 53.0193C53.8564 52.9689 53.8625 52.9158 53.8581 52.863C53.8536 52.8101 53.8386 52.7588 53.8139 52.7118C53.7893 52.6649 53.7555 52.6234 53.7145 52.5898C53.6736 52.5561 53.6263 52.5311 53.5754 52.516C53.5246 52.501 53.4713 52.4963 53.4186 52.5022C53.3659 52.5081 53.315 52.5245 53.2688 52.5504C53.2225 52.5764 53.182 52.6113 53.1495 52.6532C53.117 52.695 53.0932 52.743 53.0796 52.7942C52.9172 53.3049 52.7358 53.8042 52.5811 54.3149C52.0838 56.074 51.7533 57.876 51.5941 59.697C51.5321 60.5324 51.65 60.0255 51.2381 61.0155C51.1843 61.1404 51.1711 61.2789 51.2004 61.4117C51.2297 61.5444 51.2999 61.6646 51.4012 61.7552C51.457 61.7989 51.5145 61.841 51.5727 61.8823C51.928 67.8441 55.8338 70.1281 61.3629 69.3211C62.6508 69.828 65.6508 69.6894 67.6371 68.7323C68.6726 68.2371 69.5928 67.5303 70.3382 66.6575C71.0837 65.7846 71.6378 64.7651 71.9648 63.6649C73.5358 63.6269 75.0452 63.0463 76.2366 62.0217C77.801 60.4068 78.167 57.5186 76.3408 56.1449ZM60.8813 35.9312C60.8637 35.9802 60.8365 36.0253 60.8015 36.0639C60.7664 36.1024 60.7241 36.1337 60.677 36.1558C60.6298 36.178 60.5788 36.1907 60.5267 36.1932C60.4747 36.1956 60.4226 36.1878 60.3736 36.1701C60.1661 36.1448 59.9778 36.1456 59.7802 36.1318C57.8338 35.9978 56.8315 36.0606 55.1937 37.3906C54.6842 37.7974 54.2039 38.2396 53.7564 38.7138C53.7275 38.7602 53.6895 38.8002 53.6447 38.8315C53.5998 38.8627 53.5491 38.8845 53.4955 38.8956C53.442 38.9066 53.3868 38.9067 53.3332 38.8957C53.2797 38.8848 53.2289 38.8631 53.184 38.8319C53.1391 38.8008 53.1009 38.7608 53.0719 38.7145C53.0429 38.6682 53.0236 38.6164 53.0152 38.5624C53.0068 38.5084 53.0095 38.4532 53.023 38.4003C53.0366 38.3473 53.0608 38.2977 53.0941 38.2543C53.4207 37.5983 53.8411 36.9935 54.3422 36.4588C55.3445 35.4323 56.6966 34.821 58.1294 34.7467C59.0211 34.6695 59.9113 34.9098 60.6432 35.4251C60.7418 35.4607 60.8223 35.534 60.8669 35.6289C60.9116 35.7238 60.9167 35.8325 60.8813 35.9312Z" fill="#191919"/>
<path d="M49.2981 105.562C49.851 104.873 50.3567 104.147 50.8119 103.39C51.4107 102.434 52.1136 101.246 53.145 100.815C54.2744 100.341 55.7047 100.867 56.8311 101.373C57.7022 101.762 58.5525 102.195 59.3786 102.671C59.4669 102.726 59.5731 102.745 59.675 102.723C59.7768 102.702 59.8663 102.642 59.9247 102.555C59.9831 102.469 60.0059 102.364 59.9883 102.261C59.9707 102.159 59.9141 102.067 59.8303 102.005C59.0623 101.366 58.2428 100.791 57.3801 100.287C55.9176 99.4645 54.1733 98.9224 52.6258 99.5687C51.4283 100.069 50.5171 101.208 49.6871 102.73C49.274 103.517 48.9158 104.331 48.6151 105.167C48.5892 105.212 48.5724 105.262 48.5657 105.314C48.5591 105.365 48.5627 105.418 48.5763 105.468C48.59 105.519 48.6134 105.566 48.6453 105.607C48.6772 105.648 48.7169 105.683 48.7621 105.709C48.8074 105.735 48.8573 105.752 48.909 105.758C48.9608 105.765 49.0133 105.761 49.0636 105.748C49.114 105.734 49.1611 105.711 49.2024 105.679C49.2437 105.647 49.2783 105.607 49.3042 105.562H49.2981Z" fill="#191919"/>
<path d="M82.0696 99.3942C82.7336 98.78 83.348 98.1143 83.9073 97.4034C84.6071 96.5473 85.5191 95.3452 86.5619 94.9845C87.7518 94.5718 88.9816 95.4149 89.9471 96.2181C90.7457 96.8819 91.1454 97.2656 92.2679 98.3215C92.3406 98.3978 92.4404 98.4427 92.5458 98.4463C92.6512 98.4499 92.7538 98.4121 92.8316 98.3409C92.9094 98.2698 92.9561 98.1709 92.9619 98.0656C92.9676 97.9603 92.9318 97.857 92.8621 97.7778C92.2187 96.9097 91.5203 96.0839 90.771 95.3054C89.4747 94.0374 87.843 93.1162 86.1217 93.7058C84.8139 94.1537 83.6791 95.4845 82.872 96.6109C82.0956 97.6951 81.9455 98.1002 81.4501 98.8934C81.4118 98.9329 81.3821 98.9799 81.3629 99.0314C81.3436 99.0829 81.3354 99.1379 81.3386 99.1928C81.3417 99.2478 81.3563 99.3014 81.3813 99.3504C81.4064 99.3994 81.4413 99.4426 81.4839 99.4774C81.5266 99.5121 81.576 99.5376 81.629 99.5523C81.682 99.5669 81.7375 99.5703 81.792 99.5624C81.8464 99.5544 81.8986 99.5352 81.9452 99.506C81.9918 99.4768 82.0318 99.4382 82.0627 99.3927L82.0696 99.3942Z" fill="#191919"/>
<path d="M66.2541 118.224C67.0314 118.868 67.8677 119.438 68.7518 119.925C70.7227 120.987 73.7694 121.984 75.8728 121.181C79.0244 119.978 80.6891 116.466 82.1071 114.024C82.1656 113.934 82.1862 113.825 82.1643 113.721C82.1425 113.616 82.0801 113.525 81.9907 113.466C81.901 113.409 81.7924 113.389 81.6881 113.41C81.5838 113.432 81.4921 113.493 81.4325 113.582C80.7975 114.492 80.1438 115.389 79.4716 116.272C76.0979 120.72 74.3192 120.987 69.313 118.777C68.7908 118.547 67.4838 117.981 66.6913 117.563C66.6479 117.531 66.5987 117.509 66.5465 117.497C66.4943 117.486 66.4403 117.484 66.3877 117.494C66.335 117.504 66.2849 117.524 66.2403 117.553C66.1957 117.583 66.1575 117.621 66.1281 117.666C66.0986 117.71 66.0785 117.761 66.0689 117.813C66.0593 117.866 66.0605 117.92 66.0723 117.972C66.0842 118.024 66.1065 118.073 66.1378 118.117C66.1692 118.16 66.209 118.197 66.2548 118.224H66.2541Z" fill="#191919"/>
<path d="M28.0122 128.019C30.1667 133.481 33.9926 138.123 38.9434 141.28C49.0506 147.95 66.8562 151.739 83.0477 147.5C92.2782 145.157 100.637 140.201 107.121 133.226C110.376 129.716 113.162 126.326 115.181 122.063C115.206 122.015 115.221 121.963 115.226 121.909C115.23 121.855 115.224 121.8 115.206 121.749C115.189 121.697 115.162 121.65 115.126 121.609C115.09 121.569 115.047 121.536 114.998 121.512C114.949 121.489 114.896 121.476 114.842 121.473C114.788 121.471 114.733 121.479 114.683 121.498C114.632 121.517 114.585 121.546 114.546 121.583C114.507 121.62 114.475 121.665 114.454 121.715C112.485 125.76 109.391 129.295 106.333 132.481C99.8885 139.162 91.7102 143.915 82.7154 146.207C63.9672 151.065 36.2083 145.6 28.7504 127.72C28.7082 127.627 28.6314 127.553 28.5361 127.515C28.4408 127.477 28.3345 127.477 28.2394 127.516C28.1444 127.555 28.068 127.629 28.0263 127.722C27.9847 127.816 27.981 127.922 28.0161 128.019H28.0122Z" fill="#191919"/>
<path d="M34.277 134.542C27.5105 126.419 26.7869 120.333 27.1307 110.127C27.2524 106.494 27.2838 102.886 28.1866 99.3364C28.9664 98.0675 30.0089 96.9803 31.244 96.1481C34.3068 94.289 38.0052 94.8211 41.3658 94.1343C43.2908 93.7407 45.0021 92.6657 46.826 91.9765C52.0006 90.0217 59.6538 89.3058 62.4249 95.3257C63.9693 98.6825 62.2878 102.064 60.1178 104.675C58.1997 107.037 55.7863 108.949 53.0481 110.275C51.3215 111.108 49.3092 111.525 47.7877 112.746C46.2165 114.007 46.5236 115.925 45.5756 117.502C44.4753 119.331 42.6086 120.538 41.7418 122.517C40.4853 125.386 40.9539 129.652 43.7739 131.516C44.9991 132.325 46.3865 132.488 47.7755 132.843C48.823 131.771 50.0113 130.529 51.4509 130C53.1836 129.366 55.0895 129.662 56.8758 129.317C58.2342 129.055 59.6584 128.203 61.0573 128.293C62.6117 128.392 63.8644 129.402 65.4838 129.365C67.8008 129.314 70.4915 127.731 72.7404 128.804C73.8683 129.34 74.8261 130.189 75.9563 130.709C77.1232 131.245 78.4724 131.475 79.4311 132.388C80.4582 133.404 81.1192 134.733 81.3106 136.165C81.5019 137.598 81.2128 139.053 80.4885 140.304C78.7963 143.066 75.6998 143.42 72.8483 144.095C71.6278 144.383 70.4892 144.896 69.2373 145.069C66.7779 145.409 64.2534 145.33 61.8184 145.847C60.9005 146.073 60.0039 146.379 59.1385 146.76C50.1974 145.703 40.0657 141.491 34.277 134.542ZM50.9187 99.534C50.0559 100.394 49.2979 101.354 48.6606 102.392C48.4142 102.99 48.2095 103.604 48.0481 104.23C47.8383 105.124 47.3858 107.716 49.264 106.686C51.0504 105.706 51.823 102.296 53.9876 101.693C55.5098 101.269 57.1982 103.148 58.591 103.581C58.9379 103.749 59.3276 103.808 59.7086 103.751C60.0897 103.693 60.4443 103.521 60.7258 103.258C62.1117 101.641 60.4639 99.5309 58.9807 98.7683C56.4899 97.4919 52.9401 97.3204 50.9187 99.534Z" fill="#327468"/>
<path d="M91.7893 95.3633C94.4103 94.5563 97.7847 93.9254 99.5191 95.2569C100.93 96.3411 100.426 98.7791 100.313 100.272C100.054 103.706 101.786 107.261 97.748 109.461C94.905 111.01 92.5849 108.006 90.1882 107.017C88.0121 106.117 85.3835 106.618 83.4103 105.188C80.0511 102.755 86.2548 97.7562 88.1706 96.7202C88.1706 96.7202 88.4478 96.5915 88.9187 96.3993C89.637 97.2123 90.4023 97.9827 91.2105 98.7064C91.5494 99.0764 91.9799 99.3506 92.4585 99.5012C93.434 99.6252 93.905 98.4874 93.6071 97.7171C93.1913 96.8026 92.569 95.9969 91.7893 95.3633Z" fill="#327468"/>
</svg>
