<svg width="154" height="154" viewBox="0 0 154 154" fill="none" xmlns="http://www.w3.org/2000/svg">
<rect x="25" y="31" width="100" height="100" rx="20" fill="#F5FFFD"/>
<path d="M78.333 70.7062C77.9179 69.2513 77.4539 67.5882 76.2357 66.618C76.045 66.4649 75.7188 66.6693 75.8842 66.899C76.7583 68.2599 77.3776 69.7684 77.712 71.3509C78.6798 74.936 78.4777 75.4582 78.9892 76.5172C79.0696 76.6833 79.405 76.6826 79.4341 76.459C79.4937 75.6826 79.4183 74.9017 79.2112 74.1511C79.0765 73.8395 79.1301 73.4926 78.333 70.7062Z" fill="#327468"/>
<path d="M86.0088 68.7613C85.9947 68.7157 85.9688 68.6746 85.9339 68.6422C85.8989 68.6097 85.856 68.587 85.8095 68.5763C85.763 68.5656 85.7145 68.5673 85.6688 68.5812C85.6232 68.5951 85.582 68.6208 85.5494 68.6557C85.2554 69.195 85.1098 69.8028 85.1275 70.4168C84.8943 72.5295 85.0052 74.666 85.456 76.7431C85.5195 77.0272 85.992 76.9782 85.9598 76.6727C85.67 74.3616 85.6777 72.023 85.9828 69.7139C86.073 69.4038 86.0819 69.0758 86.0088 68.7613Z" fill="#327468"/>
<path d="M117.734 63.5015C116.609 62.2097 116.202 61.0719 115.379 61.4984C115.223 61.601 115.097 61.7425 115.013 61.9089C114.928 62.0753 114.889 62.2608 114.898 62.4471C114.582 62.1898 114.193 61.9731 113.879 62.1194C113.466 62.3116 113.446 62.7756 113.54 63.1853C112.825 62.9509 112.407 63.7465 112.567 64.3805C112.798 65.1592 113.26 65.8495 113.891 66.3599C114.338 66.7328 115.235 67.4227 115.766 66.8637C116.057 66.5575 115.593 66.0934 115.297 66.3951C115.135 66.5613 114.325 65.8798 114.207 65.7741C113.869 65.4694 113.591 65.104 113.387 64.6968C113.305 64.5329 113.036 64.0406 113.2 63.8767C113.387 63.6891 113.752 64.121 113.867 64.2282C114.288 64.6348 114.673 65.0779 115.016 65.5521C115.246 65.84 115.74 65.4602 115.532 65.1539C115.122 64.5513 115.182 64.7458 114.595 63.8522C114.432 63.6056 113.997 63.0558 114.161 62.7281C114.501 62.8923 114.791 63.1426 115.004 63.454C115.16 64.0097 115.463 64.5125 115.883 64.9089C115.938 64.9597 116.01 64.9894 116.085 64.9929C116.16 64.9963 116.234 64.9732 116.294 64.9276C116.354 64.8821 116.396 64.8169 116.413 64.7435C116.43 64.6701 116.421 64.5932 116.387 64.526C116.156 64.055 115.885 63.6045 115.578 63.1791C115.503 62.8558 115.499 62.5201 115.567 62.1952C115.668 62.0283 115.765 62.1018 115.906 62.2182C116.159 62.4272 116.059 62.5137 116.925 63.4954C117.232 63.9391 117.632 64.3108 118.096 64.585C118.213 64.634 118.413 64.5498 118.355 64.3859C118.204 64.0555 117.993 63.7557 117.734 63.5015Z" fill="#191919"/>
<path d="M129.893 58.0893C129.854 57.0468 129.488 56.043 128.847 55.2197C128.206 54.3965 127.323 53.7954 126.322 53.5014C125.321 53.2075 124.253 53.2355 123.269 53.5816C122.285 53.9277 121.434 54.5742 120.837 55.43C119.689 56.9614 119.281 58.8053 118.073 60.3857C117.672 60.8475 117.229 61.271 116.749 61.6507C116.632 61.7563 116.761 61.9202 116.889 61.885C118.722 61.5136 119.831 58.7455 120.498 57.4101C120.919 56.4268 121.565 55.556 122.384 54.868C123.202 54.2762 124.199 53.9824 125.207 54.0356C126.176 54.1038 127.094 54.4991 127.809 55.1569C128.524 55.8146 128.995 56.6957 129.144 57.6559C129.276 58.7129 129.016 59.7817 128.414 60.6602C127.812 61.5388 126.908 62.1662 125.875 62.424C123.731 62.9746 120.728 61.5588 119.15 63.7005C119.012 63.8896 119.289 64.0504 119.444 63.9233C121.274 62.4171 124.095 63.8682 126.543 63.0098C127.55 62.6499 128.417 61.9795 129.019 61.0953C129.622 60.2111 129.928 59.1586 129.893 58.0893Z" fill="#191919"/>
<path d="M124.294 57.1169C124.774 57.1988 124.586 57.5855 124.305 57.9255C123.89 58.0123 123.508 58.2155 123.204 58.5113C122.898 58.8275 123.076 59.3436 123.556 59.2609C123.831 59.1654 124.077 59 124.27 58.7808C124.412 58.6529 124.563 58.5227 124.692 58.3819C125.088 58.3819 124.989 58.5978 124.715 58.8857C124.436 59.0304 124.189 59.2296 123.989 59.4715C123.945 59.5203 123.919 59.5833 123.917 59.6491C123.915 59.715 123.936 59.7795 123.977 59.8313C124.017 59.8832 124.075 59.919 124.139 59.9324C124.204 59.9459 124.271 59.9361 124.329 59.9049C124.611 59.7498 124.871 59.5568 125.102 59.3313C125.163 59.3102 125.225 59.2943 125.289 59.2839C125.851 59.2142 125.664 59.7525 125.406 60.022C125.128 60.2312 124.81 60.3833 124.473 60.4698C124.135 60.5562 123.784 60.5753 123.438 60.5258C122.36 60.5473 121.001 60.5848 120.346 61.5688C120.229 61.7441 120.461 61.9884 120.638 61.8613C122.451 60.5649 124.259 61.6216 125.594 60.5963C126.085 60.2196 126.571 59.3176 125.91 58.8505C125.787 58.7612 125.64 58.7082 125.488 58.6973C125.5 58.6736 125.5 58.6499 125.512 58.6384C125.545 58.5569 125.558 58.469 125.552 58.3815C125.546 58.2939 125.519 58.209 125.475 58.1333C125.43 58.0575 125.369 57.9929 125.296 57.9444C125.223 57.8959 125.14 57.8648 125.053 57.8535C125.497 56.8167 124.517 56.0924 123.284 56.7639C122.036 57.4454 119.971 60.7648 118.434 61.9417C118.411 61.9568 118.395 61.9799 118.389 62.0064C118.382 62.0328 118.386 62.0607 118.4 62.0844C118.413 62.1082 118.435 62.1259 118.461 62.1343C118.487 62.1426 118.515 62.1408 118.539 62.1293C121.114 60.9769 122.811 56.8634 124.294 57.1169Z" fill="#191919"/>
<path d="M38.1766 79.6213C37.8259 79.3863 37.4974 79.9613 37.8488 80.1956C37.9928 80.2921 37.466 81.6727 36.3725 82.433C36.2194 82.5387 35.9131 82.773 35.7286 82.6796C35.4705 82.5502 35.845 82.1053 35.9506 81.9415C36.2661 81.4764 36.6228 81.0407 37.0165 80.6397C37.2929 80.3197 36.8503 79.874 36.5479 80.1711C36.0328 80.7463 35.4769 81.2837 34.8848 81.7791C34.7684 81.8503 34.5915 81.8611 34.4981 81.9193C34.4798 81.911 34.4599 81.907 34.4399 81.9078V81.8963C34.5875 81.5397 34.7946 81.2109 35.0525 80.9238C35.5516 80.6648 35.9755 80.2814 36.283 79.8105C36.456 79.5517 36.1061 79.165 35.8373 79.3656C35.3897 79.6888 34.9668 80.0451 34.5724 80.4315C34.3663 80.5163 34.1492 80.5715 33.9276 80.5953C33.8158 80.6187 33.7003 80.6187 33.5884 80.5953C33.4253 80.4766 33.5999 80.2676 33.6818 80.1857C34.2324 79.5432 35.3894 78.4138 35.5678 77.6902C35.5765 77.6567 35.5752 77.6213 35.564 77.5885C35.5528 77.5557 35.5323 77.5269 35.5049 77.5057C35.4775 77.4845 35.4444 77.4718 35.4099 77.4692C35.3753 77.4666 35.3408 77.4743 35.3105 77.4911C34.9886 77.7338 34.7076 78.0264 34.4782 78.3579C33.5072 79.5187 32.3434 80.2921 33.0141 80.9935C33.1442 81.1064 33.2987 81.1875 33.4655 81.2303C33.6323 81.2731 33.8068 81.2764 33.9751 81.2401C33.3717 82.2952 34.0318 82.8282 34.9468 82.4468V82.4583C34.8534 83.2899 35.7776 83.4637 36.3649 83.1727C37.0666 82.7989 37.6445 82.229 38.028 81.5326C38.3527 81.0272 38.8343 80.0639 38.1766 79.6213Z" fill="#191919"/>
<path d="M33.1515 79.4346C32.4807 77.7233 29.7884 77.1122 28.1843 76.6459C27.1095 76.4025 26.1106 75.8998 25.2746 75.1818C24.7367 74.6602 24.3456 74.0061 24.1407 73.2854C23.9357 72.5647 23.9241 71.8027 24.107 71.0761C24.29 70.3495 24.6609 69.6838 25.1827 69.146C25.7045 68.6082 26.3586 68.2173 27.0793 68.0125C28.085 67.7546 29.1496 67.8642 30.0816 68.3215C31.0136 68.7789 31.7516 69.554 32.1629 70.5072C33.0404 72.498 32.1629 75.7454 34.5297 76.8802C34.7043 76.9644 34.9264 76.7416 34.7526 76.5877C32.9776 75.0165 33.8107 72.2897 32.7839 70.0738C32.3203 69.0841 31.5508 68.2698 30.5889 67.7509C29.6271 67.2321 28.5239 67.0363 27.4423 67.1924C26.4375 67.3562 25.5063 67.8214 24.772 68.5265C24.0376 69.2316 23.5349 70.1431 23.3304 71.1404C23.1392 72.1896 23.2829 73.2723 23.7412 74.2353C24.1995 75.1982 24.9492 75.9926 25.8841 76.5058C27.071 77.0645 28.3166 77.4888 29.5978 77.7707C30.843 78.0685 31.987 78.691 32.9133 79.5747C33.0029 79.6567 33.1982 79.5862 33.1515 79.4346Z" fill="#191919"/>
<path d="M27.7624 72.0304C27.547 71.9566 27.312 71.9649 27.1023 72.0536C26.8927 72.1424 26.7231 72.3053 26.6261 72.5112C26.1483 73.695 27.6912 74.6323 28.5005 75.1001C31.5971 76.8888 32.2587 77.2043 32.9417 77.8528C33.0259 77.9332 33.1883 77.8299 33.1056 77.7242C32.1683 76.3765 30.5886 75.6568 29.2165 74.8421C28.5201 74.5252 27.8976 74.0664 27.3887 73.4952C26.8841 72.7685 27.2685 72.3902 27.8344 72.6866C27.8665 72.7029 27.8972 72.7219 27.9263 72.7432C28.0866 73.1352 28.3514 73.4755 28.692 73.7272C29.045 73.9707 29.5649 73.7754 29.3949 73.2815C29.2514 73.0106 29.0367 72.784 28.7739 72.6261C28.6208 72.5074 28.4577 72.3795 28.293 72.2746C28.2463 72.1337 28.2578 72.0281 28.375 71.9813C28.4692 71.9346 28.6568 72.0518 28.7854 72.1345C28.9833 72.4191 29.2437 72.6548 29.5465 72.8236C29.6045 72.8549 29.6717 72.8647 29.7362 72.8512C29.8007 72.8377 29.8583 72.8019 29.899 72.7501C29.9397 72.6983 29.9607 72.6337 29.9584 72.5679C29.9561 72.502 29.9307 72.4391 29.8865 72.3902C29.3758 71.7677 29.1889 71.832 29.1369 71.5702C28.9607 70.9025 29.7709 71.2401 30.0036 71.453C30.4344 71.9863 30.6846 72.6427 30.7181 73.3275C30.9164 74.3114 31.1997 75.5848 32.2181 76.0335C32.4287 76.1262 32.6622 75.8804 32.4754 75.6935C30.9286 74.1315 31.5986 72.2134 30.4485 71.0893C29.692 70.3496 28.5273 70.3879 28.5273 71.4645C28.5044 71.4645 28.4921 71.453 28.4692 71.453C28.3834 71.4342 28.2945 71.435 28.2091 71.4554C28.1238 71.4757 28.0441 71.5152 27.9761 71.5707C27.9081 71.6262 27.8536 71.6964 27.8166 71.776C27.7796 71.8556 27.761 71.9426 27.7624 72.0304Z" fill="#191919"/>
<path d="M55.983 63.2674C53.8321 61.7781 55.0335 62.0063 43.3893 54.7159C43.3405 54.6894 43.2852 54.6774 43.2298 54.6814C43.1744 54.6855 43.1214 54.7053 43.077 54.7387C43.0326 54.772 42.9988 54.8174 42.9795 54.8694C42.9601 54.9214 42.9562 54.9779 42.9681 55.0322C43.5378 56.8331 44.1741 58.605 44.7721 60.3975C42.5904 59.9011 40.3798 59.541 38.1533 59.3194C38.0611 59.2979 37.9642 59.3114 37.8813 59.3572C37.7984 59.403 37.7355 59.478 37.7046 59.5675C37.6689 59.6565 37.6688 59.7558 37.7043 59.8449C37.7398 59.934 37.8081 60.006 37.8953 60.046C41.3759 61.7458 45.0975 62.8994 48.9292 63.4665C48.9853 63.4786 49.0438 63.4747 49.0978 63.4552C49.1518 63.4356 49.1993 63.4013 49.2347 63.3561C49.2702 63.3109 49.2922 63.2567 49.2983 63.1996C49.3044 63.1424 49.2943 63.0848 49.2692 63.0331C48.528 61.7937 47.7898 60.5519 47.0547 59.3079C53.3703 62.4381 54.1674 62.9764 55.8765 63.5607C56.0427 63.6166 56.1353 63.3616 55.983 63.2674Z" fill="#191919"/>
<path d="M60.1191 22.3592C59.8557 21.4885 60.1275 16.9601 58.6428 8.17277C58.6288 8.12455 58.6009 8.08149 58.5628 8.04889C58.5246 8.01629 58.4777 7.99559 58.4278 7.98932C58.378 7.98305 58.3275 7.9915 58.2824 8.01362C58.2373 8.03574 58.1997 8.07057 58.1742 8.11381C57.2178 9.95612 56.23 11.7892 55.341 13.6668C54.761 12.8813 54.1553 12.1152 53.5248 11.3696C53.0514 10.655 52.4328 10.0482 51.7092 9.58857C51.5102 9.49439 51.1732 9.65902 51.2758 9.9163C52.4681 12.826 53.7905 15.666 55.1182 18.5038C55.2384 18.7603 55.5776 18.6447 55.6542 18.4333C56.1734 17.088 56.9314 15.8682 57.5402 14.5672C58.0199 17.2612 58.7374 19.9074 59.6842 22.4748C59.7868 22.7351 60.2002 22.6287 60.1191 22.3592Z" fill="#191919"/>
<path d="M96.2983 25.052C96.4163 25.1022 96.5478 25.1115 96.6716 25.0781C96.7954 25.0448 96.9045 24.9709 96.9814 24.8682C99.7218 21.2081 102.58 17.2876 105.526 13.8067C105.563 13.7654 105.586 13.7132 105.591 13.6578C105.596 13.6025 105.583 13.547 105.554 13.4996C105.525 13.4522 105.482 13.4154 105.43 13.3947C105.378 13.374 105.322 13.3706 105.268 13.3848C103.478 13.9208 101.707 14.5334 99.973 15.2355C100.347 13.4438 100.735 11.6443 101.086 9.8472C101.15 9.52101 100.554 9.18409 100.383 9.51871C98.8765 12.4621 97.3359 15.394 95.8022 18.3168C95.698 18.5166 95.8718 18.8528 96.1306 18.7502C97.6966 18.1255 99.24 17.4457 100.758 16.7118C97.7164 21.8146 96.9354 23.0374 96.1245 24.5573C96.1013 24.6008 96.0874 24.6487 96.0837 24.6978C96.08 24.7469 96.0865 24.7963 96.1028 24.8428C96.1192 24.8893 96.145 24.9319 96.1786 24.9679C96.2123 25.0039 96.2531 25.0326 96.2983 25.052Z" fill="#191919"/>
<path d="M90.9522 79.4344C82.8954 79.7913 74.5659 79.5784 66.8667 77.3019C64.5236 76.6128 61.7724 75.5086 61.0204 72.9205C60.2616 70.3071 62.4914 68.2336 64.5113 67.0245C65.0758 66.6907 65.6461 66.3667 66.2219 66.0528C66.4562 65.9234 66.2457 65.5972 66.0114 65.7013C63.6269 66.7573 60.8627 68.1248 60.2356 70.9373C59.633 73.6426 61.6552 75.9144 63.9378 77.0178C65.2535 77.6105 66.6223 78.0773 68.026 78.4122C75.1953 80.3265 83.0784 80.521 90.4614 80.2162C88.5119 83.7584 88.0877 87.6505 88.1183 91.6032C88.1183 91.9424 88.5984 91.9194 88.6336 91.6032C89.0586 87.7493 89.43 83.5547 91.4101 80.181C94.0694 80.0638 96.8467 79.9674 99.3529 78.998C100.568 78.6012 101.661 77.8991 102.528 76.9589C105.303 73.432 95.7249 71.9343 90.9522 79.4344ZM102.223 75.9665C101.977 76.8532 100.339 77.7453 99.4938 78.1105C96.96 79.2032 94.1429 79.1963 91.9132 79.3992C93.6039 76.9489 96.4263 75.017 99.4455 74.8884C100.102 74.8608 102.529 74.8516 102.223 75.9665Z" fill="#191919"/>
<path d="M127.185 14.4721C124.114 5.76903 98.1922 -1.01827 85.3619 8.22773C83.8166 9.34185 81.8227 10.9223 81.9299 13.0311C82.0341 15.0931 83.8848 16.4768 85.7371 16.9324C86.8535 17.1656 87.9967 17.2445 89.1345 17.1667C89.1959 17.1632 89.2535 17.1364 89.2957 17.0918C89.3379 17.0471 89.3614 16.9881 89.3614 16.9266C89.3614 16.8652 89.3379 16.8061 89.2957 16.7615C89.2535 16.7168 89.1959 16.69 89.1345 16.6866C87.1222 16.4821 84.7937 16.4002 83.4055 14.7179C83.1102 14.3866 82.8996 13.9887 82.7916 13.5583C82.6836 13.1278 82.6814 12.6777 82.7852 12.2462C83.1158 11.3221 83.7054 10.5127 84.4836 9.9146C92.9064 2.48717 109.277 3.78123 118.609 8.12283C122.331 9.85411 126.194 12.1222 126.775 16.1705C127.401 20.5351 124.596 25.6485 117.461 28.1784C114.691 26.5446 111.455 25.881 108.265 26.2925C107.433 26.3905 105.785 26.6309 105.137 27.1593C104.978 27.2991 104.849 27.4688 104.756 27.6588C104.663 27.8488 104.608 28.0552 104.595 28.2663C104.582 28.4775 104.611 28.6891 104.68 28.8891C104.748 29.0891 104.856 29.2735 104.996 29.4319C105.649 30.278 106.777 30.3806 107.761 30.4166C111.001 30.539 114.235 30.0744 117.309 29.0452C121.328 31.7252 121.765 36.2858 119.383 38.8157C118.142 39.9887 116.634 40.8414 114.99 41.2997C114.193 41.5692 113.36 41.8594 112.539 42.0608C112.502 42.0709 112.466 42.0883 112.435 42.112C112.404 42.1357 112.378 42.1653 112.359 42.1991C112.339 42.2328 112.326 42.2701 112.321 42.3088C112.316 42.3475 112.319 42.3868 112.329 42.4245C112.339 42.4622 112.356 42.4976 112.38 42.5286C112.404 42.5596 112.433 42.5856 112.467 42.6051C112.501 42.6247 112.538 42.6374 112.577 42.6426C112.615 42.6477 112.655 42.6452 112.692 42.6351C113.652 42.3947 114.602 42.2362 115.551 41.9322C118.332 41.0401 120.911 39.3425 121.514 36.4726C122.081 33.7857 121.017 30.7696 118.234 28.6945C126.358 25.6516 128.822 19.1055 127.185 14.4721ZM110.248 29.6103C109.052 29.6762 106.472 29.8546 105.725 29.0483C105.567 28.9093 105.464 28.7184 105.434 28.51C105.404 28.3015 105.449 28.0892 105.561 27.9112C105.876 27.6317 106.268 27.456 106.686 27.4081C109.969 26.611 113.429 27.0096 116.444 28.5322C114.43 29.1392 112.349 29.5012 110.248 29.6103Z" fill="#191919"/>
<path d="M43.9523 71.1873C40.2869 68.9667 36.0655 66.7462 34.0884 62.7407C32.9061 60.3501 32.8816 57.6449 33.116 55.0552C33.2406 52.9505 33.7601 50.8881 34.6474 48.9755C34.6714 48.9171 34.7028 48.862 34.7408 48.8116C35.7321 48.8858 36.7277 48.7453 37.6598 48.3996C38.5918 48.0539 39.4383 47.5112 40.1414 46.8085C41.0334 45.8016 40.0947 44.5113 38.8764 44.5703C37.716 44.7439 36.6452 45.2957 35.8304 46.14C35.234 46.7062 34.7249 47.3578 34.3197 48.0734C32.3395 47.8744 30.1771 46.8644 29.2583 45.0512C28.1273 42.8191 28.978 37.0824 34.6589 32.2109C36.956 30.2446 39.8382 28.6121 42.9179 26.7743C42.9575 26.7477 42.9856 26.7071 42.9965 26.6606C43.0074 26.6141 43.0003 26.5652 42.9767 26.5237C42.953 26.4822 42.9146 26.4512 42.869 26.4369C42.8234 26.4226 42.7741 26.4261 42.731 26.4466C37.7585 28.9444 32.5639 31.9368 29.7973 36.9782C28.6051 39.1513 27.7001 42.3888 28.3563 44.6515C29.0324 46.9838 31.6129 48.4035 33.8863 48.7289C33.9092 48.7289 33.9445 48.7404 33.9682 48.7404C32.4418 52.3253 31.936 56.2623 32.5064 60.1166C33.3595 65.0317 37.6735 68.5923 42.1146 70.7654C42.6652 71.0349 43.2219 71.2799 43.7663 71.5502C43.8139 71.5705 43.8673 71.572 43.916 71.5544C43.9646 71.5368 44.0048 71.5015 44.0284 71.4554C44.0519 71.4094 44.0572 71.3562 44.0431 71.3064C44.029 71.2566 43.9966 71.2141 43.9523 71.1873ZM36.4192 46.5619C37.0869 45.9578 38.5885 44.9539 39.3948 45.3552C40.6835 45.9999 38.4469 47.2549 37.8841 47.5106C37.0245 47.8927 36.0949 48.0922 35.1543 48.0964C35.502 47.5282 35.9278 47.0116 36.4192 46.5619Z" fill="#191919"/>
<path d="M75.2307 98.8814C75.1284 98.7898 75.0066 98.7226 74.8745 98.6849C74.7424 98.6471 74.6035 98.6398 74.4682 98.6635C74.3329 98.6871 74.2047 98.7412 74.0933 98.8215C73.9819 98.9018 73.8901 99.0063 73.8249 99.1272C73.7437 99.3033 73.9681 99.5154 74.1067 99.35C74.4267 98.9671 74.903 99.2558 75.0439 99.631C75.1235 99.8223 75.1608 100.028 75.1532 100.236C75.1455 100.443 75.0931 100.645 74.9995 100.83C74.9059 101.015 74.7734 101.177 74.6111 101.306C74.4488 101.435 74.2605 101.527 74.0592 101.576C73.6763 101.61 73.5071 101.337 73.1809 101.236C73.1539 101.228 73.1256 101.226 73.0978 101.23C73.0699 101.233 73.0431 101.243 73.019 101.257C72.9948 101.271 72.9738 101.29 72.9573 101.313C72.9408 101.336 72.9291 101.362 72.9229 101.389C72.7942 102.033 73.6733 102.28 74.1534 102.221C74.5031 102.149 74.8275 101.986 75.0934 101.748C75.3594 101.51 75.5573 101.205 75.6669 100.866C75.7765 100.526 75.7938 100.163 75.7172 99.8145C75.6406 99.4658 75.4727 99.1438 75.2307 98.8814Z" fill="#191919"/>
<path d="M75.688 106.566C75.4731 106.739 75.2915 106.949 75.152 107.187C75.108 106.939 75.0291 106.698 74.9176 106.473C74.7686 105.496 74.7099 104.507 74.7423 103.52C74.7409 103.476 74.7239 103.434 74.6943 103.401C74.6647 103.369 74.6244 103.348 74.5807 103.342C74.537 103.336 74.4927 103.346 74.4558 103.371C74.4189 103.395 74.3918 103.431 74.3793 103.473C74.2001 104.256 74.1408 105.062 74.2032 105.863C74.2262 106.367 74.3089 107.176 74.8709 107.363C74.9004 107.371 74.9311 107.373 74.9614 107.369C74.9916 107.365 75.0207 107.355 75.0471 107.339C74.5111 108.145 74.1772 108.421 72.8793 108.429C71.9989 108.484 71.1192 108.31 70.3257 107.925C70.5317 107.317 70.5108 106.656 70.2667 106.062C70.8236 105.805 71.3219 105.436 71.731 104.979C72.14 104.521 72.451 103.985 72.645 103.403C72.6664 103.286 72.5393 103.156 72.4229 103.227C71.9719 103.603 71.5774 104.041 71.2514 104.529C69.6005 106.352 67.8103 105.738 66.9044 104.038C65.5897 101.567 66.8845 98.0857 66.7176 96.2587C66.716 96.2093 66.697 96.162 66.664 96.1252C66.631 96.0884 66.586 96.0643 66.5371 96.0573C66.4881 96.0503 66.4383 96.0607 66.3962 96.0867C66.3542 96.1128 66.3227 96.1528 66.3072 96.1998C66.0793 96.963 65.934 97.7486 65.8738 98.5429C65.7496 99.3546 65.6714 100.173 65.6395 100.993C65.5629 104.957 67.9619 106.768 69.939 106.171C69.9548 106.638 69.9235 107.105 69.8456 107.565C69.7687 107.502 69.6943 107.435 69.6227 107.366C69.5908 107.335 69.5489 107.317 69.5045 107.314C69.4601 107.311 69.4162 107.324 69.3808 107.351C69.3453 107.378 69.3206 107.417 69.3112 107.46C69.3018 107.504 69.3083 107.549 69.3295 107.588C69.9466 108.955 71.72 109.053 73.0317 109.053C73.721 109.105 74.4052 108.901 74.9529 108.479C75.5237 108.034 75.9216 107.405 76.0777 106.698C76.0907 106.511 75.8166 106.472 75.688 106.566Z" fill="#191919"/>
<path d="M82.3074 95.5895C82.6443 95.0941 82.5072 92.882 81.593 92.6369C81.6669 92.3387 81.6614 92.0262 81.5772 91.7307C81.493 91.4352 81.3329 91.1669 81.1129 90.9524C80.8553 90.7461 80.5269 90.6493 80.1986 90.6828C80.3427 90.257 80.3525 89.7971 80.2268 89.3655C80.1011 88.9338 79.8459 88.5512 79.4957 88.2693C79.1842 88.0531 78.8159 87.9334 78.4368 87.925C78.0577 87.9167 77.6846 88.0202 77.3639 88.2226C77.27 87.8589 77.0884 87.5238 76.835 87.2467C76.5816 86.9695 76.264 86.7587 75.9102 86.6327C75.5564 86.5068 75.1771 86.4694 74.8055 86.5241C74.4339 86.5787 74.0814 86.7236 73.7789 86.9461C73.3263 85.2845 70.8171 85.0816 69.8193 87.3795C69.7007 87.1837 69.5425 87.0148 69.3549 86.8836C69.1673 86.7525 68.9544 86.6619 68.7297 86.6176C68.354 86.6145 67.9821 86.6936 67.6401 86.8494C67.2982 87.0052 66.9945 87.234 66.7504 87.5197C66.2238 88.0687 65.9089 88.7867 65.8617 89.5459C65.8144 90.3052 66.0379 91.0567 66.4923 91.6668C66.6784 91.9141 67.1003 91.6913 66.9142 91.421C66.6545 91.0674 66.4844 90.6562 66.4185 90.2225C66.3527 89.7887 66.393 89.3455 66.5361 88.9308C66.6791 88.5161 66.9206 88.1423 67.2399 87.8414C67.5591 87.5406 67.9466 87.3216 68.3691 87.2034C69.0368 87.0755 69.3875 87.731 69.6463 88.2226C69.6771 88.2701 69.7207 88.3078 69.772 88.3316C69.8234 88.3553 69.8804 88.3639 69.9365 88.3566C69.9926 88.3492 70.0455 88.3261 70.089 88.2899C70.1325 88.2537 70.1648 88.206 70.1823 88.1521C70.8676 85.4316 73.4749 86.0847 73.2283 87.5197C73.2154 87.5883 73.2263 87.6593 73.2592 87.7208C73.2921 87.7824 73.3451 87.8309 73.4093 87.8582C73.4736 87.8856 73.5453 87.8901 73.6125 87.8712C73.6797 87.8522 73.7384 87.8109 73.7789 87.754C74.0029 87.4745 74.3075 87.2707 74.6514 87.1704C74.9952 87.0701 75.3616 87.078 75.7008 87.1932C76.04 87.3084 76.3354 87.5252 76.5471 87.8142C76.7588 88.1031 76.8763 88.4502 76.8838 88.8084C76.8861 88.8705 76.9082 88.9302 76.9471 88.9788C76.9859 89.0273 77.0394 89.0621 77.0995 89.0779C77.1596 89.0937 77.2232 89.0897 77.2809 89.0665C77.3386 89.0434 77.3873 89.0022 77.4198 88.9492C77.5209 88.807 77.6507 88.6876 77.8009 88.5988C77.9511 88.5101 78.1182 88.4539 78.2916 88.4339C78.4649 88.414 78.6405 88.4308 78.8069 88.4831C78.9733 88.5355 79.1269 88.6223 79.2575 88.7379C79.5363 89.0424 79.7123 89.4269 79.7607 89.8369C79.809 90.2469 79.7273 90.6618 79.5271 91.0228C79.4206 91.2525 79.7147 91.5504 79.9099 91.3153C79.9782 91.2541 80.0588 91.2082 80.1462 91.1807C80.2337 91.1532 80.326 91.1448 80.417 91.1559C80.508 91.167 80.5956 91.1974 80.6739 91.2451C80.7521 91.2928 80.8193 91.3567 80.8709 91.4325C80.9933 91.6387 81.0711 91.8684 81.0993 92.1065C81.1276 92.3447 81.1056 92.5862 81.0348 92.8153C81.0236 92.8622 81.0247 92.9111 81.0378 92.9575C81.051 93.0038 81.0758 93.046 81.1099 93.08C81.144 93.1141 81.1862 93.1388 81.2326 93.1518C81.279 93.1649 81.3279 93.1658 81.3747 93.1545C81.8342 93.0519 81.9529 94.2465 81.9253 94.6898C81.9253 94.8184 81.9016 94.9356 81.8901 95.0642C81.8901 95.0757 81.8901 95.0757 81.8786 95.088C81.5654 95.1224 81.5509 95.4984 81.7614 95.6852C81.9064 95.943 81.9868 96.232 81.9957 96.5275C81.9957 96.6447 81.9123 97.5605 81.7377 97.4648C81.6841 97.4392 81.6239 97.4308 81.5654 97.4409C81.5069 97.4509 81.4529 97.4788 81.4109 97.5208C81.3689 97.5628 81.341 97.6168 81.3309 97.6753C81.3209 97.7338 81.3292 97.794 81.3548 97.8476C81.508 98.1539 81.7584 98.6233 81.6129 98.9839C81.5218 99.2083 81.1902 99.4434 80.9681 99.242C80.9435 99.2174 80.9143 99.1979 80.8821 99.1846C80.8499 99.1713 80.8155 99.1645 80.7807 99.1645C80.7459 99.1646 80.7114 99.1715 80.6793 99.1848C80.6471 99.1982 80.6179 99.2177 80.5933 99.2424C80.5687 99.267 80.5492 99.2962 80.536 99.3284C80.5227 99.3606 80.5159 99.395 80.5159 99.4298C80.5159 99.4647 80.5228 99.4991 80.5362 99.5313C80.5495 99.5634 80.5691 99.5926 80.5937 99.6172C80.7269 99.7636 80.8152 99.9452 80.8483 100.14C80.8815 100.336 80.8579 100.536 80.7805 100.718C80.7068 100.875 80.5766 100.998 80.4159 101.064C80.2553 101.129 80.076 101.131 79.9138 101.07C79.8678 101.045 79.8154 101.034 79.7632 101.038C79.711 101.043 79.6613 101.063 79.6204 101.095C79.5794 101.128 79.5491 101.172 79.5332 101.222C79.5173 101.272 79.5165 101.326 79.5309 101.376C79.5702 101.464 79.5739 101.564 79.5411 101.654C79.5083 101.745 79.4417 101.819 79.3551 101.862C79.2686 101.904 79.169 101.912 79.0772 101.882C78.9855 101.853 78.9087 101.789 78.8632 101.704C78.8344 101.658 78.7932 101.622 78.7446 101.6C78.6959 101.577 78.6417 101.569 78.5886 101.577C78.5355 101.584 78.4856 101.607 78.445 101.642C78.4043 101.677 78.3746 101.723 78.3594 101.774C78.2794 102.076 78.1023 102.344 77.8555 102.535C77.5492 102.698 77.4106 102.482 77.1181 102.489C76.7782 102.495 76.4504 103.238 76.1334 102.782C75.9229 102.476 75.419 102.77 75.6303 103.074C75.6972 103.177 75.7836 103.265 75.8846 103.334C75.9856 103.403 76.0991 103.451 76.2188 103.476C76.3385 103.501 76.462 103.503 76.5821 103.48C76.7023 103.457 76.8168 103.411 76.9191 103.344C77.0125 103.273 77.1648 103.074 77.2001 103.063C77.2543 103.101 77.3133 103.133 77.3754 103.156C77.6619 103.198 77.9538 103.137 78.2002 102.985C78.4465 102.833 78.6316 102.599 78.7231 102.325C78.8516 102.401 78.9969 102.444 79.1461 102.45C79.2954 102.457 79.4439 102.426 79.5784 102.361C79.7129 102.296 79.8292 102.199 79.917 102.078C80.0048 101.957 80.0613 101.817 80.0814 101.669C80.2997 101.682 80.5177 101.638 80.7141 101.542C80.9104 101.446 81.0783 101.3 81.2013 101.119C81.3243 100.938 81.3981 100.729 81.4155 100.511C81.4328 100.293 81.3932 100.074 81.3005 99.876C81.5497 99.8378 81.7775 99.7135 81.9444 99.5245C82.104 99.3011 82.1956 99.0362 82.2081 98.7619C82.2206 98.4876 82.1535 98.2156 82.0149 97.9785C82.6504 97.5436 82.6412 96.3621 82.3074 95.5895Z" fill="#191919"/>
<path d="M67.1704 97.6507C66.9407 99.604 68.8642 98.8054 68.7784 97.9087C68.7774 97.8804 68.7691 97.8528 68.7545 97.8286C68.7398 97.8043 68.7192 97.7842 68.6946 97.7701C68.67 97.756 68.6423 97.7484 68.6139 97.748C68.5856 97.7476 68.5576 97.7544 68.5326 97.7678C68.2769 97.9348 68.2164 98.3306 67.8887 98.4003C67.5058 98.483 67.525 97.8643 67.4783 97.6155C67.4522 97.4286 67.1903 97.4861 67.1704 97.6507Z" fill="#191919"/>
<path d="M70.2159 98.0025C70.1111 98.2036 70.0855 98.4367 70.144 98.6558C70.2026 98.8749 70.341 99.0642 70.5321 99.1863C71.3193 99.6495 71.987 98.3363 71.5988 98.1082C71.4357 98.0117 71.2925 98.1663 71.2473 98.3072C71.1769 98.5178 71.0827 98.9527 70.7664 98.8111C70.5084 98.6947 70.5069 98.3425 70.4854 98.0967C70.4732 97.9443 70.2848 97.8585 70.2159 98.0025Z" fill="#191919"/>
<path d="M69.6316 101.025C69.4218 100.895 69.0458 100.966 68.882 100.803C68.7288 100.649 68.9532 100.182 69.0106 99.971C69.2506 99.4099 69.3895 98.8109 69.421 98.2014C69.4207 98.1799 69.4141 98.1589 69.4021 98.1409C69.3902 98.123 69.3733 98.1089 69.3535 98.1002C69.3338 98.0916 69.3119 98.0888 69.2907 98.0922C69.2694 98.0957 69.2495 98.1051 69.2334 98.1195C68.9793 98.4421 68.803 98.8188 68.7181 99.2206C68.5448 99.6689 68.4115 100.132 68.3199 100.603C68.2365 101.259 69.1278 101.587 69.6316 101.271C69.653 101.259 69.6708 101.241 69.6832 101.219C69.6955 101.198 69.702 101.173 69.702 101.148C69.702 101.123 69.6955 101.099 69.6832 101.077C69.6708 101.056 69.653 101.038 69.6316 101.025Z" fill="#191919"/>
<path d="M70.2057 102.07C69.3795 102.469 68.7386 102.133 67.9798 101.764C67.9531 101.748 67.9219 101.744 67.8918 101.75C67.8617 101.756 67.8349 101.773 67.8163 101.797C67.7976 101.821 67.7884 101.851 67.7903 101.882C67.7922 101.913 67.8051 101.942 67.8267 101.963C68.0921 102.241 68.4238 102.447 68.7907 102.562C69.1575 102.677 69.5475 102.696 69.9239 102.619C69.842 102.806 69.7578 102.981 69.6659 103.155C69.5747 103.404 69.4263 103.629 69.2325 103.811C68.9882 103.964 68.6965 103.764 68.5058 103.588C68.2715 103.366 68.3167 103.144 68.2248 102.874C68.214 102.839 68.1946 102.808 68.1685 102.783C68.1423 102.757 68.1101 102.739 68.0751 102.73C68.04 102.72 68.0031 102.72 67.9678 102.729C67.9325 102.738 67.9 102.755 67.8734 102.78C67.2822 103.384 68.3542 104.337 68.963 104.397C69.9002 104.489 70.3106 102.956 70.5564 102.311C70.6154 102.114 70.3696 101.988 70.2057 102.07Z" fill="#191919"/>
<path d="M86.6412 112.177C86.0132 110.809 84.9562 109.682 83.6304 108.967C81.4745 107.919 79.1959 107.143 76.8477 106.66C76.6716 106.627 76.52 106.889 76.7068 106.976C79.6586 108.3 84.4933 108.748 86.0439 112.388C86.1971 112.75 86.2376 113.273 86.5592 113.513C86.5785 113.524 86.5998 113.532 86.622 113.535C86.6442 113.538 86.6668 113.537 86.6886 113.532C86.7104 113.526 86.7308 113.517 86.7488 113.503C86.7669 113.49 86.782 113.473 86.7935 113.454C87.0355 113.101 86.7897 112.531 86.6412 112.177Z" fill="#191919"/>
<path d="M68.0724 108.043C67.1106 108.37 66.178 108.778 65.2844 109.261C63.4789 110.129 62.1067 110.685 60.8325 112.331C60.278 112.923 59.897 113.656 59.7314 114.451C59.7328 114.5 59.7485 114.549 59.7768 114.589C59.8051 114.63 59.8447 114.662 59.8907 114.68C59.9367 114.699 59.9872 114.704 60.0359 114.694C60.0846 114.685 60.1294 114.661 60.1648 114.626C60.3852 114.329 60.57 114.006 60.7154 113.666C62.4367 110.557 65.5715 110.184 68.2133 108.394C68.3886 108.272 68.2944 107.979 68.0724 108.043Z" fill="#191919"/>
<path d="M42.3354 97.288C41.9598 97.2632 41.5829 97.3068 41.2228 97.4167C41.1814 97.4335 41.1468 97.4638 41.1247 97.5027C41.1025 97.5416 41.0942 97.5868 41.1009 97.631C41.1076 97.6753 41.1291 97.716 41.1617 97.7465C41.1944 97.7771 41.2364 97.7958 41.281 97.7995C41.5973 97.8278 42.0705 97.7995 42.242 97.811C42.3454 97.811 42.4786 97.8585 42.6287 97.8585C43.1915 97.8623 43.1662 97.288 42.3354 97.288Z" fill="#191919"/>
<path d="M46.1781 96.6786C46.0051 96.602 45.8557 96.7062 45.6858 96.8195C45.538 96.8961 45.2914 96.9987 45.1352 97.089C45.1078 97.1072 45.0866 97.1333 45.0746 97.1639C45.0626 97.1945 45.0602 97.228 45.0679 97.26C45.0756 97.2919 45.093 97.3207 45.1176 97.3425C45.1423 97.3642 45.173 97.3779 45.2057 97.3815C45.4224 97.3582 45.633 97.2949 45.8266 97.1947C46.0112 97.1074 46.2463 97.0331 46.26 96.8195C46.2605 96.7908 46.2531 96.7625 46.2387 96.7377C46.2242 96.7128 46.2033 96.6924 46.1781 96.6786Z" fill="#191919"/>
<path d="M45.5923 98.8816C45.1349 98.5186 44.7695 98.053 44.5257 97.5224C44.3565 97.1825 44.2669 96.8976 44.0341 96.9604C43.9958 96.9705 43.9622 96.9934 43.9388 97.0253C43.9154 97.0572 43.9036 97.0962 43.9055 97.1357C44.0446 97.9111 44.4763 98.6032 45.1115 99.0692C44.8395 99.2871 44.585 99.526 44.3503 99.7836C44.1918 99.9972 44.407 100.253 44.5732 100.166C45.0198 99.9527 45.3885 99.6047 45.6276 99.171C45.6561 99.1262 45.6682 99.0728 45.6617 99.02C45.6553 98.9672 45.6308 98.9183 45.5923 98.8816Z" fill="#191919"/>
<path d="M45.6036 101.013C45.578 100.973 45.5381 100.945 45.4924 100.935C45.4466 100.924 45.3984 100.931 45.3578 100.955C45.0347 101.203 45.1618 101.702 44.8073 101.868C44.4359 102.042 44.0745 101.431 43.9872 101.072C43.9748 101.026 43.948 100.986 43.9109 100.956C43.8737 100.927 43.8281 100.911 43.7808 100.909C43.7335 100.908 43.687 100.922 43.6482 100.949C43.6094 100.976 43.5803 101.015 43.5653 101.06C43.3562 101.623 44.1013 102.443 44.6779 102.443C44.8401 102.425 44.9963 102.371 45.1352 102.286C45.2742 102.2 45.3923 102.085 45.4809 101.948C45.5696 101.811 45.6267 101.656 45.6479 101.494C45.6691 101.333 45.654 101.168 45.6036 101.013Z" fill="#191919"/>
<path d="M35.307 107.914C31.5841 107.882 28.4155 113.102 27.0373 116.618C25.4383 121.148 24.7382 125.947 24.976 130.746C25.0151 132.937 25.6117 135.082 26.7095 136.979C30.0687 142.317 38.634 143.009 46.0859 130.465C47.0323 128.848 47.8516 127.16 48.5362 125.416C48.6166 125.158 48.2675 125.053 48.1258 125.24C46.4604 127.444 46.844 128.586 43.1119 133.499C40.7144 136.656 37.5007 139.778 33.2832 139.86C28.9592 139.94 26.4117 136.639 25.7853 132.222C25.3616 127.65 25.7826 123.04 27.0273 118.621C27.6794 116.403 28.6799 114.303 29.9914 112.4C31.2165 110.652 32.9777 108.522 35.2978 108.429C35.3639 108.427 35.4266 108.399 35.473 108.352C35.5194 108.305 35.5459 108.242 35.5471 108.176C35.5483 108.11 35.524 108.046 35.4793 107.997C35.4347 107.948 35.373 107.918 35.307 107.914Z" fill="#191919"/>
<path d="M44.7598 122.393C45.3293 123.373 46.2191 124.126 47.279 124.525C47.4191 124.617 47.5771 124.679 47.7427 124.705C47.9082 124.731 48.0775 124.722 48.2393 124.678C48.2805 124.652 48.3104 124.611 48.3234 124.563C48.3364 124.516 48.3315 124.465 48.3097 124.421C48.0907 124.057 47.74 124.237 46.6581 123.554C46.0911 123.136 45.5583 122.674 45.0646 122.171C45.0325 122.139 44.9899 122.119 44.9444 122.115C44.8989 122.112 44.8536 122.124 44.8167 122.151C44.7798 122.178 44.7537 122.217 44.7433 122.262C44.7329 122.306 44.7388 122.353 44.7598 122.393Z" fill="#191919"/>
<path d="M44.1055 122.194C43.6017 122.306 43.1268 122.521 42.7111 122.827C40.6407 124.082 38.6985 125.538 36.9124 127.173C36.7173 126.142 36.6814 125.088 36.8059 124.046C37.0295 122.219 37.3419 121.672 37.1811 121.141C37.17 121.1 37.1486 121.064 37.1189 121.034C37.0892 121.005 37.0524 120.984 37.012 120.973C36.9717 120.963 36.9292 120.963 36.8889 120.974C36.8486 120.984 36.8118 121.006 36.7822 121.035C36.5189 121.455 36.3659 121.935 36.3373 122.429C35.9542 123.999 35.9784 125.64 36.4078 127.197C36.4238 127.255 36.4595 127.305 36.5088 127.34C36.558 127.374 36.6176 127.39 36.6773 127.384C35.7752 128.151 34.9653 129.02 34.2638 129.974C34.0762 130.254 34.4843 130.521 34.7086 130.313C36.809 128.009 39.1735 125.96 41.7532 124.21C43.5488 123.009 43.9891 122.898 44.3076 122.441C44.339 122.37 44.2334 122.185 44.1055 122.194Z" fill="#191919"/>
<path d="M48.2627 114.849C48.5077 114.637 48.8599 114.466 49.0008 114.16C49.0203 114.124 49.0304 114.084 49.0301 114.044C49.0299 114.003 49.0192 113.964 48.9993 113.928C48.9793 113.893 48.9507 113.864 48.9161 113.843C48.8816 113.821 48.8422 113.81 48.8017 113.808C48.2274 113.808 47.6309 114.536 47.2787 114.944C46.8288 115.472 46.4687 116.07 46.2128 116.714C45.4992 118.475 46.0444 119.783 44.83 121.282C44.6883 121.458 44.866 121.752 45.088 121.611C46.3897 120.782 46.2366 118.846 46.5988 117.546C46.8963 116.511 47.4718 115.579 48.2627 114.849Z" fill="#191919"/>
<path d="M51.8714 114.345C52.1685 113.977 52.765 113.157 52.3515 112.927C51.9641 112.65 51.5284 113.738 50.2198 115.317C48.402 117.512 47.8323 117.542 48.0758 117.883C48.0948 117.909 48.1191 117.931 48.147 117.947C48.175 117.963 48.206 117.973 48.2381 117.976C48.2701 117.979 48.3025 117.976 48.3331 117.966C48.3637 117.956 48.3919 117.939 48.4157 117.918C49.7361 116.902 50.9004 115.698 51.8714 114.345Z" fill="#191919"/>
<path d="M50.0324 118.012C49.8563 118.165 50.0715 118.517 50.3019 118.363C51.6501 117.293 52.9008 116.105 54.0394 114.814C54.3629 114.56 54.6001 114.212 54.7186 113.818C54.7262 113.778 54.7237 113.737 54.7114 113.698C54.6991 113.659 54.6774 113.624 54.6481 113.595C54.3418 113.352 53.8058 114.023 53.5937 114.274C52.4723 115.581 51.2836 116.829 50.0324 118.012Z" fill="#191919"/>
<path d="M53.4763 117.661C52.8959 118.18 52.3384 118.514 51.7427 119.02C51.5896 119.148 51.696 119.359 51.8958 119.359C51.9237 119.361 51.9515 119.357 51.9778 119.347C53.3165 118.615 54.455 117.565 55.2933 116.29C55.3066 116.27 55.3156 116.248 55.3199 116.225C55.3241 116.201 55.3234 116.177 55.3179 116.154C55.3123 116.131 55.302 116.109 55.2877 116.09C55.2733 116.071 55.2551 116.056 55.2344 116.044C54.9495 115.84 54.8898 116.394 53.4763 117.661Z" fill="#191919"/>
<path d="M55.6201 117.707C54.4402 118.903 53.1274 119.961 51.7073 120.859C50.7525 121.395 48.7593 122.306 48.7785 123.318C48.7786 123.343 48.7853 123.367 48.7978 123.388C48.8104 123.409 48.8283 123.427 48.8499 123.439C48.8714 123.45 48.8957 123.456 48.9203 123.456C48.9449 123.455 48.9689 123.448 48.9898 123.435C49.2507 123.289 49.4812 123.094 49.669 122.862C50.9868 121.578 52.9524 121.509 55.8782 117.941C55.9061 117.907 55.9197 117.863 55.9162 117.818C55.9128 117.774 55.8925 117.732 55.8595 117.703C55.8266 117.673 55.7834 117.656 55.7389 117.657C55.6944 117.658 55.6519 117.676 55.6201 117.707Z" fill="#191919"/>
<path d="M49.9389 107.468C55.7782 108.578 57.5822 119.222 58.6198 121.304C58.639 121.333 58.667 121.356 58.6999 121.368C58.7327 121.381 58.7686 121.383 58.8025 121.373C58.8365 121.364 58.8667 121.345 58.8889 121.318C58.911 121.29 58.924 121.257 58.9261 121.222C58.8495 119.775 57.7009 116.543 57.2269 115.341C55.8211 111.794 53.7697 107.645 50.0093 107.129C49.798 107.117 49.7513 107.43 49.9389 107.468Z" fill="#191919"/>
<path d="M94.2685 102.442C93.9012 103.33 93.6836 104.272 93.6246 105.23C93.5955 105.511 93.5067 105.793 93.7532 105.996C93.7788 106.022 93.8125 106.038 93.8487 106.043C93.8849 106.047 93.9215 106.039 93.9523 106.019C94.2701 105.832 94.1238 105.688 94.3152 104.438C94.4655 103.817 94.5712 103.187 94.6315 102.551C94.6322 102.508 94.6189 102.466 94.5936 102.432C94.5683 102.397 94.5323 102.372 94.4912 102.359C94.4501 102.347 94.4061 102.348 94.3659 102.364C94.3257 102.379 94.2915 102.406 94.2685 102.442Z" fill="#191919"/>
<path d="M93.3405 101.868C93.2246 101.84 93.103 101.848 92.9913 101.889C92.8797 101.931 92.783 102.005 92.7137 102.102C92.6445 102.199 92.6058 102.314 92.6027 102.433C92.5997 102.553 92.6323 102.67 92.6965 102.77C92.7178 102.875 92.7725 102.969 92.8522 103.039C92.932 103.109 93.0325 103.152 93.1385 103.16C93.2445 103.168 93.3502 103.141 93.4396 103.083C93.5289 103.026 93.5971 102.941 93.6337 102.841C93.7162 102.672 93.7318 102.477 93.6774 102.297C93.6231 102.117 93.5027 101.964 93.3405 101.868Z" fill="#191919"/>
<path d="M96.5289 102.3C96.443 102.283 96.3541 102.29 96.2722 102.321C96.1903 102.352 96.1186 102.405 96.0651 102.475C96.0116 102.544 95.9784 102.627 95.9694 102.714C95.9603 102.801 95.9756 102.889 96.0136 102.967C95.9485 103.554 96.7548 103.605 96.8689 103.038C96.9185 102.895 96.9108 102.738 96.8474 102.6C96.7841 102.463 96.6699 102.355 96.5289 102.3Z" fill="#191919"/>
<path d="M93.0146 108.148C92.7221 108.488 93.1563 109.144 93.4832 109.308C94.3194 109.731 95.0966 108.305 94.6318 108.066C94.4457 107.971 94.2895 108.135 94.2222 108.301C94.1364 108.51 93.9641 109.015 93.6479 108.792C93.4488 108.652 93.4021 108.333 93.2497 108.148C93.2353 108.131 93.2174 108.117 93.197 108.108C93.1767 108.098 93.1546 108.093 93.1322 108.093C93.1097 108.093 93.0876 108.098 93.0673 108.108C93.047 108.117 93.029 108.131 93.0146 108.148Z" fill="#191919"/>
<path d="M102.984 111.627C103.272 111.719 103.565 111.793 103.862 111.849C104.096 111.901 104.331 112.002 104.542 111.873C104.557 111.864 104.571 111.852 104.582 111.837C104.592 111.823 104.6 111.806 104.604 111.789C104.609 111.772 104.61 111.753 104.607 111.736C104.604 111.718 104.598 111.701 104.589 111.685C104.42 111.466 104.167 111.465 103.91 111.428C103.612 111.375 103.309 111.359 103.007 111.381C102.977 111.383 102.949 111.396 102.928 111.416C102.907 111.437 102.894 111.465 102.891 111.494C102.888 111.524 102.896 111.553 102.913 111.578C102.93 111.602 102.955 111.62 102.984 111.627Z" fill="#191919"/>
<path d="M87.0279 116.571C85.9559 117.207 85.3434 118.601 85.0478 119.828C84.8898 120.254 84.8416 120.713 84.9077 121.163C84.9437 121.28 85.1183 121.351 85.2002 121.245C85.5616 120.833 85.5356 120.148 85.9736 118.972C86.2835 118.211 86.724 117.509 87.2753 116.899C87.4192 116.727 87.227 116.453 87.0279 116.571Z" fill="#191919"/>
<path d="M69.5488 123.939C69.4669 123.642 69.3142 123.369 69.1039 123.143C68.4172 122.321 67.9891 121.314 67.8734 120.249C68.2716 120.167 68.2563 119.53 67.8382 119.582C64.78 119.954 60.2033 120.82 57.3885 122.252C57.3561 122.273 57.3323 122.305 57.3212 122.342C57.3102 122.379 57.3127 122.419 57.3283 122.454C57.3438 122.489 57.3715 122.518 57.4062 122.535C57.441 122.552 57.4806 122.555 57.5179 122.546C60.7566 121.49 64.0861 120.736 67.4638 120.294C67.4526 121.415 67.8246 122.506 68.5182 123.386C68.6796 123.708 68.9218 123.983 69.2211 124.183C69.259 124.202 69.3014 124.21 69.3434 124.206C69.3855 124.202 69.4257 124.187 69.4596 124.161C69.4934 124.136 69.5197 124.102 69.5354 124.063C69.5512 124.024 69.5558 123.981 69.5488 123.939Z" fill="#191919"/>
<path d="M69.8334 124.582C66.66 126.761 63.3038 128.662 59.8025 130.263C59.3071 130.402 58.8528 130.66 58.4786 131.013C58.3362 131.211 58.5376 131.445 58.7366 131.458C59.253 131.381 59.7454 131.188 60.1777 130.896C63.716 129.324 67.042 127.313 70.0769 124.909C70.2538 124.762 70.0179 124.455 69.8334 124.582Z" fill="#191919"/>
<path d="M70.6274 118.539C71.9904 117.219 72.4529 116.496 74.2822 116.055C74.8679 115.915 75.6421 115.787 75.9928 115.247C76.1222 115.048 75.9108 114.838 75.7117 114.872C75.3687 114.968 75.0321 115.085 74.7041 115.224C74.3534 115.33 73.9889 115.409 73.6382 115.516C72.1925 115.957 71.3671 116.886 70.3112 117.977C69.6876 118.533 69.1329 119.163 68.6587 119.851C68.6405 119.88 68.6328 119.915 68.6368 119.95C68.6408 119.984 68.6563 120.016 68.6808 120.04C68.7053 120.065 68.7373 120.08 68.7717 120.084C68.8061 120.088 68.8408 120.08 68.8701 120.062C69.5232 119.637 70.1146 119.125 70.6274 118.539Z" fill="#191919"/>
<path d="M74.4231 117.801C74.2699 118 74.5241 118.278 74.7041 118.083C75.6995 116.997 77.2309 117.279 78.9568 116.092C79.4751 115.803 79.9231 115.403 80.2685 114.92C80.2922 114.879 80.3033 114.832 80.3002 114.785C80.2971 114.737 80.2801 114.692 80.2512 114.654C80.2224 114.617 80.183 114.589 80.1381 114.573C80.0932 114.558 80.0448 114.556 79.999 114.569C79.4635 114.856 78.9641 115.206 78.5112 115.611C76.9545 116.622 75.4085 116.518 74.4231 117.801Z" fill="#191919"/>
<path d="M76.5436 118.68C76.4035 118.809 76.5903 119.054 76.7427 118.937C78.049 117.936 79.2779 118.324 81.2298 116.852C81.6034 116.569 82.118 116.222 82.2367 115.751C82.2757 115.598 82.1325 115.413 81.9679 115.481C81.5268 115.754 81.1214 116.081 80.7611 116.454C79.1432 117.684 77.6929 117.62 76.5436 118.68Z" fill="#191919"/>
<path d="M82.7642 117.18C81.5425 118.444 80.0301 119.389 78.3591 119.933C77.8996 120.109 77.1883 120.203 76.8713 120.601C76.8451 120.628 76.8264 120.661 76.8168 120.698C76.8072 120.734 76.8072 120.772 76.8166 120.809C76.8261 120.845 76.8447 120.879 76.8708 120.906C76.8968 120.933 76.9294 120.953 76.9655 120.964C77.5802 120.956 78.1819 120.786 78.7105 120.472C80.4283 119.903 81.9401 118.839 83.0567 117.415C83.1853 117.238 82.9051 117.017 82.7642 117.18Z" fill="#191919"/>
<path d="M82.6973 120.285C76.2079 122.834 74.864 122.599 72.4115 123.084C71.5692 123.252 70.4298 123.553 70.1273 124.456C70.0561 124.666 70.3149 124.831 70.4903 124.737C71.254 124.153 72.1683 123.8 73.1259 123.717C76.472 123.223 79.6536 122.558 82.8612 120.659C83.022 120.53 82.904 120.202 82.6973 120.285Z" fill="#191919"/>
<path d="M113.024 110.385C112.192 110.209 111.36 110.022 110.528 109.849C110.257 109.17 109.822 108.569 109.262 108.099C108.702 107.628 108.034 107.304 107.319 107.155C107.052 106.498 106.638 105.912 106.107 105.443C105.577 104.974 104.945 104.633 104.261 104.449C104.252 104.177 104.175 103.911 104.038 103.675C104.235 103.375 104.354 103.03 104.385 102.673C104.415 102.315 104.357 101.955 104.214 101.626C104.127 101.498 104.049 101.365 103.979 101.227C103.933 101.087 103.99 101.016 104.05 100.864C104.238 100.46 104.3 100.009 104.227 99.57C104.154 99.1308 103.949 98.7241 103.64 98.4035C103.481 98.2401 103.284 98.1192 103.066 98.0521C103.335 97.5843 103.419 97.0326 103.3 96.5061C103.177 95.9314 102.92 95.3937 102.551 94.9364C102.261 94.5887 101.875 94.3342 101.442 94.205C101.008 94.0757 100.546 94.0773 100.113 94.2097C100.041 93.9197 99.9052 93.6493 99.716 93.4178C99.5269 93.1864 99.2889 92.9996 99.0191 92.8709C98.7493 92.7422 98.4544 92.6747 98.1555 92.6733C97.8566 92.6719 97.561 92.7366 97.2901 92.8628C97.1499 92.9225 97.1369 92.9792 97.0205 92.9448C96.7241 92.7379 96.3748 92.62 96.0136 92.6048C95.4615 92.5768 94.9155 92.7316 94.4601 93.0451C94.0048 93.3586 93.6654 93.8134 93.4944 94.3391C92.1031 94.3774 90.7937 96.3484 91.3627 98.2167C89.8994 99.059 90.2141 102.072 91.6085 102.375C91.2178 104.343 91.166 106.363 91.4553 108.348C91.4088 108.334 91.3588 108.338 91.3152 108.359C90.781 108.672 90.3357 109.115 90.0219 109.649C89.708 110.182 89.5362 110.787 89.5226 111.405C88.9319 111.807 88.5169 112.419 88.3626 113.116C88.2707 113.538 88.3427 113.927 88.0816 114.299C87.7584 114.758 87.4085 115.186 87.0739 115.634C87.0516 115.67 87.0368 115.71 87.0307 115.752C87.0245 115.793 87.027 115.836 87.038 115.877C87.049 115.917 87.0682 115.955 87.0946 115.988C87.1209 116.021 87.1538 116.048 87.191 116.068C87.9594 116.432 88.7701 116.7 89.6046 116.864C89.6495 116.876 89.6965 116.877 89.742 116.868C89.7875 116.859 89.8302 116.839 89.8671 116.811C89.904 116.783 89.934 116.747 89.9548 116.705C89.9757 116.664 89.9868 116.618 89.9874 116.572C89.956 114.555 89.7799 114.887 90.1406 114.627C90.4973 114.374 90.7894 114.041 90.993 113.654C91.1966 113.267 91.3059 112.838 91.3121 112.401C91.3665 112.23 91.6291 112.082 92.1667 111.429C91.8863 112.298 91.8906 113.234 92.1789 114.1C92.352 114.611 92.1582 114.523 91.0778 116.794C91.0564 116.833 91.0439 116.876 91.0414 116.919C91.0389 116.963 91.0463 117.007 91.0632 117.048C91.0801 117.088 91.106 117.124 91.1389 117.153C91.1718 117.183 91.2109 117.204 91.2532 117.216C92.1886 117.38 93.1365 117.463 94.0863 117.462C94.1606 117.462 94.2318 117.432 94.2844 117.379C94.3369 117.327 94.3667 117.255 94.3673 117.181C94.3554 116.597 94.2807 116.015 94.1445 115.447C94.1085 115.294 93.8865 114.834 93.9454 114.686C93.9814 114.541 94.5381 114.496 94.6721 113.01C94.6882 112.829 94.8 111.124 94.7655 111.054C95.4342 110.998 96.0803 110.785 96.6514 110.433C96.6285 110.831 96.6415 111.23 96.6162 111.64C96.5377 111.977 96.5219 112.327 96.5695 112.67C96.3844 112.576 96.2054 112.471 96.0335 112.354C95.8344 112.237 95.6721 112.493 95.7992 112.647C96.516 113.394 97.4902 113.84 98.524 113.894C99.5577 113.949 100.573 113.607 101.364 112.94C101.775 112.612 102.583 111.944 102.524 111.37C102.499 111.135 102.252 111.057 102.055 111.253C101.511 110.133 101.284 108.885 101.399 107.645C101.397 107.606 101.382 107.568 101.355 107.539C101.329 107.51 101.293 107.491 101.254 107.486C101.216 107.48 101.176 107.488 101.142 107.509C101.109 107.53 101.084 107.561 101.071 107.598C100.906 108.289 100.878 109.005 100.989 109.706C101.013 110.428 101.253 111.126 101.678 111.71C101.485 111.971 101.261 112.207 101.011 112.413C100.449 112.888 99.7572 113.182 99.0255 113.257C98.2939 113.332 97.5567 113.185 96.9103 112.834C96.9276 112.825 96.9434 112.814 96.957 112.8C97.2472 112.516 97.2158 112.015 97.2265 111.64C97.2556 111.174 97.1878 110.707 97.0274 110.269C97.018 110.248 97.0062 110.228 96.9922 110.21C97.8333 109.629 98.5172 108.848 98.983 107.937C98.9911 107.907 98.9899 107.875 98.9796 107.845C98.9693 107.815 98.9503 107.789 98.9251 107.771C98.8999 107.752 98.8697 107.741 98.8382 107.739C98.8068 107.738 98.7756 107.746 98.7487 107.762C97.9187 108.239 97.578 109.222 96.2181 110C96.3883 108.696 96.1206 107.373 95.4569 106.239C95.4255 106.186 95.3812 106.143 95.3282 106.112C95.2752 106.081 95.2152 106.064 95.1538 106.063C95.0925 106.062 95.0319 106.076 94.9778 106.105C94.9236 106.134 94.8777 106.176 94.8444 106.228C94.7723 106.187 94.6884 106.173 94.6072 106.188C94.5259 106.203 94.4525 106.246 94.3995 106.31C94.3501 106.286 94.2961 106.274 94.2414 106.274C94.1867 106.274 94.1327 106.286 94.0832 106.31C94.0366 106.271 93.9801 106.246 93.92 106.237C93.8599 106.229 93.7987 106.237 93.7433 106.262C93.6913 106.218 93.6258 106.193 93.5577 106.191C93.4895 106.189 93.4226 106.21 93.3681 106.251C93.3262 106.221 93.278 106.201 93.2273 106.193C93.1765 106.185 93.1246 106.189 93.0756 106.204C93.0401 106.172 92.9983 106.149 92.953 106.136C92.9077 106.122 92.8599 106.118 92.8131 106.125C92.7662 106.132 92.7214 106.149 92.6817 106.174C92.642 106.2 92.6084 106.234 92.5832 106.274C92.2187 106.826 92.0073 107.465 91.9706 108.125C91.7541 106.958 91.7184 105.765 91.865 104.587C91.9154 103.203 92.168 101.834 92.6146 100.522C92.8903 100.247 93.3841 100.544 94.0794 99.1164C94.5097 99.1724 94.9459 99.0727 95.3092 98.8354C95.5301 99.2216 95.8573 99.5362 96.252 99.7417C96.6466 99.9473 97.092 100.035 97.5351 99.9947C97.6522 100.616 98.3774 101.201 98.8942 101.553C98.8794 101.836 98.9453 102.117 99.0842 102.364C99.2232 102.611 99.4295 102.813 99.6791 102.947C99.5619 103.533 100.062 103.978 100.639 104.154C100.581 104.283 100.721 104.47 100.862 104.376C101.959 103.554 103.466 105.472 101.623 106.52C101.436 106.627 101.156 106.809 100.934 106.754C100.724 106.704 100.537 106.482 100.348 106.379C100.104 106.247 99.8001 106.519 99.9655 106.762C100.148 107.061 100.437 107.279 100.774 107.375C101.124 107.434 101.484 107.359 101.781 107.164C102.659 106.708 102.655 106.337 102.648 106.601C102.607 108.349 103.184 110.257 104.827 111.1C104.819 112.138 105.144 113.152 105.753 113.993C106.845 115.262 106.767 113.561 106.573 117.157C106.573 117.209 106.586 117.26 106.612 117.305C106.638 117.35 106.676 117.388 106.721 117.414C106.766 117.44 106.817 117.454 106.869 117.454C106.921 117.454 106.972 117.441 107.018 117.415C108.037 116.752 109.358 116.85 110.287 116.02C110.332 115.973 110.362 115.912 110.37 115.847C110.378 115.781 110.366 115.715 110.333 115.657C110.001 115.016 109.533 114.456 108.961 114.015C107.746 113.036 107.736 113.209 107.695 112.972C107.669 112.808 107.728 112.609 107.719 112.436C107.687 111.808 107.488 111.2 107.145 110.673C106.801 110.146 106.324 109.72 105.763 109.437C105.784 109.227 105.788 109.015 105.774 108.804C106.09 108.98 106.419 108.875 106.758 108.91C107.122 110.081 108.281 111.476 109.605 111.253C109.851 111.823 110.77 113.775 111.386 113.703C111.574 113.68 111.666 113.515 111.761 113.375C112.314 112.536 112.792 111.65 113.19 110.728C113.204 110.694 113.21 110.659 113.209 110.623C113.207 110.587 113.199 110.552 113.183 110.52C113.167 110.487 113.145 110.459 113.118 110.436C113.09 110.413 113.058 110.395 113.024 110.385ZM92.3229 108.757C92.4152 108.156 92.6053 107.574 92.8857 107.035C92.9369 107.069 92.9957 107.09 93.057 107.096C93.1183 107.102 93.1802 107.093 93.2371 107.07C93.3124 107.11 93.3994 107.123 93.4829 107.105C93.5285 107.146 93.5845 107.173 93.6446 107.183C93.7047 107.193 93.7665 107.186 93.8229 107.163C93.8828 107.23 93.9663 107.271 94.0558 107.278C94.1454 107.284 94.234 107.256 94.303 107.199C94.5051 107.327 94.7624 107.205 94.7624 107.129C94.8187 107.159 94.8819 107.173 94.9455 107.171C95.0092 107.169 95.0712 107.15 95.1254 107.117C95.7043 108.334 95.5649 109.877 95.6997 110.28C95.1025 110.514 94.4469 110.555 93.8252 110.397C93.4685 110.273 93.1432 110.072 92.8721 109.809C92.601 109.546 92.3905 109.227 92.2555 108.874C92.2902 108.843 92.3138 108.802 92.3229 108.757Z" fill="#191919"/>
<path d="M52.351 103.485C50.2139 100.404 50.1136 96.5551 48.6143 93.117C47.1717 89.8084 44.6885 88.9569 42.948 89.6713C42.7794 89.7678 42.5993 89.8427 42.412 89.8941C42.2301 89.8683 42.0527 89.8167 41.8852 89.741C41.223 89.5824 40.532 89.5881 39.8724 89.7576C39.2129 89.9271 38.6048 90.2552 38.101 90.7134C36.2205 92.2878 35.3238 94.931 34.9494 97.2741C34.5382 99.8507 34.5994 102.518 33.7549 105.018C33.6362 105.368 33.251 105.908 33.5205 106.259C35.0125 107.371 36.74 108.124 38.5697 108.462C39.0613 108.524 39.5536 108.497 40.0337 108.532C40.1535 108.551 40.2757 108.521 40.3737 108.45C41.1213 108.898 41.974 109.14 42.8454 109.153C44.3432 109.284 45.3095 108.693 45.6341 108.146C48.2023 107.727 50.5478 106.436 52.276 104.49C52.6044 104.1 52.6443 103.907 52.351 103.485ZM44.9121 91.3865C45.5117 91.7377 46.0181 92.228 46.3884 92.8161C46.7765 93.2993 46.9761 93.9068 46.9504 94.5259C46.941 94.5548 46.924 94.5806 46.9013 94.6007C46.8787 94.6208 46.8511 94.6346 46.8213 94.6406C46.7916 94.6466 46.7608 94.6446 46.7321 94.6348C46.7034 94.625 46.6778 94.6078 46.6579 94.5849C46.0591 93.8804 46.406 93.0826 44.667 91.7518C44.4182 91.5887 44.6778 91.2441 44.9121 91.3834V91.3865ZM38.0206 92.9332C38.1125 92.6186 38.268 92.3263 38.4776 92.0743C38.6872 91.8223 38.9463 91.6161 39.2389 91.4684C39.2858 91.4426 39.3385 91.429 39.392 91.429C39.4456 91.429 39.4983 91.4426 39.5452 91.4684C39.8798 91.7196 39.611 91.9715 39.2757 92.1951C38.9155 92.4419 38.5988 92.7467 38.3384 93.0971C38.3152 93.1262 38.2822 93.1458 38.2455 93.1522C38.2089 93.1587 38.1711 93.1517 38.1393 93.1323C38.0973 93.1207 38.0616 93.0929 38.0399 93.0551C38.0183 93.0172 38.0124 92.9723 38.0237 92.9302L38.0206 92.9332ZM42.9411 108.643C42.1129 108.661 41.2952 108.455 40.5751 108.045C40.9383 106.818 41.1004 105.54 41.0552 104.261C41.0673 104.047 41.0633 103.831 41.0429 103.617C42.0683 104.403 43.2787 104.911 44.5576 105.093C44.6139 106.04 44.8279 106.972 45.1908 107.849C44.9184 108.166 44.5675 108.406 44.1732 108.545C43.7789 108.684 43.3551 108.716 42.9442 108.64L42.9411 108.643ZM46.9359 103.594C46.2904 104.976 44.1693 104.583 43.0468 104.097C41.2673 103.332 40.8323 102.577 40.036 102.107C40.2821 101.995 40.4991 101.828 40.6698 101.619C40.8406 101.409 40.9604 101.163 41.0199 100.9C41.0308 100.851 41.0258 100.8 41.0057 100.755C40.9856 100.709 40.9515 100.671 40.9083 100.646C40.8651 100.622 40.8151 100.611 40.7657 100.617C40.7162 100.623 40.6698 100.644 40.6333 100.678C40.2558 100.966 40.0819 101.436 39.5904 101.603C39.3492 101.664 39.0942 101.639 38.8695 101.532C38.6449 101.425 38.4648 101.243 38.3606 101.017C37.7626 100.126 38.1455 99.3691 38.7703 99.2129C39.1776 99.111 39.5582 99.2619 39.6378 99.1424C39.6611 99.1396 39.6832 99.1304 39.7016 99.116C39.7201 99.1016 39.7343 99.0824 39.7427 99.0605C39.9334 98.5247 40.0708 97.9715 40.1532 97.4089C41.3599 97.1393 42.5185 96.7143 43.726 96.4716C44.6744 96.2812 45.6234 96.0742 46.5729 95.8506C46.9273 96.9949 47.1628 98.1727 47.2758 99.3653C47.5413 100.779 47.4247 102.237 46.9382 103.59L46.9359 103.594Z" fill="#191919"/>
<path d="M57.835 127.22C57.3685 124.717 56.638 122.271 55.6558 119.922C55.5616 119.723 55.2492 119.862 55.3043 120.075C56.0333 122.861 55.9514 121.897 56.956 126.213C57.2623 127.519 57.2025 127.744 57.5417 127.912C57.5714 127.929 57.6057 127.936 57.6395 127.931C57.6733 127.927 57.7048 127.912 57.7293 127.888C57.92 127.691 57.8825 127.478 57.835 127.22Z" fill="#191919"/>
<path d="M108.513 112.471C108.246 112.399 108.076 112.809 108.338 112.916C110.559 113.823 112.703 114.632 114.371 116.149C115.887 117.567 117.081 119.293 117.874 121.211C119.726 125.556 119.584 130.442 119.092 134.776C118.456 134.376 117.754 134.091 117.019 133.934C114.492 133.218 111.056 132.402 108.549 132.926C108.521 132.932 108.496 132.944 108.473 132.961C108.45 132.977 108.431 132.998 108.417 133.022C108.403 133.046 108.393 133.073 108.39 133.101C108.386 133.129 108.388 133.157 108.395 133.184C108.506 133.71 108.822 132.767 113.89 133.922C114.886 134.152 115.765 134.402 116.723 134.672C117.254 134.785 117.769 134.965 118.255 135.208C118.499 135.345 118.758 135.451 119.028 135.525C118.698 137.505 118.492 140.147 117.19 142.577C116.304 144.228 115.125 145.705 113.711 146.935C111.761 148.619 110.495 148.797 108.533 148.095C103.709 146.371 98.8385 140.225 96.2205 135.817C95.9632 135.384 95.6202 134.928 95.3782 134.493C93.0374 130.31 92.5949 130.546 91.1722 128.765C89.2686 126.381 89.2502 124.278 88.875 123.469C88.8439 123.42 88.7993 123.381 88.7466 123.356C88.6938 123.331 88.6351 123.322 88.5773 123.329C88.5195 123.337 88.465 123.36 88.4202 123.398C88.3754 123.435 88.3422 123.484 88.3245 123.54C88.009 124.976 89.3475 127.706 90.2579 128.929C91.6063 130.74 92.1653 130.651 94.0413 133.509C94.9026 135.393 95.9546 137.183 97.1807 138.852C99.6708 142.451 103.104 146.311 106.963 148.305C108.042 148.918 109.252 149.264 110.493 149.315C112.98 149.315 115.574 146.481 117.041 144.359C118.319 142.43 119.152 140.241 119.478 137.951C121.426 126.42 119.765 115.466 108.513 112.471Z" fill="#191919"/>
<path d="M90.7416 123.74C90.1704 121.851 90.4154 121.285 89.9453 121.08C89.9037 121.059 89.8568 121.051 89.8108 121.058C89.7647 121.064 89.7216 121.084 89.6872 121.115C89.3603 121.442 89.6558 122.092 89.7224 122.439C89.9875 124.022 90.6754 125.504 91.7133 126.727C91.9285 126.943 92.2838 126.633 92.1 126.421C91.4872 125.618 91.0268 124.709 90.7416 123.74Z" fill="#191919"/>
<path d="M92.6391 122.686C92.4515 122.086 92.2981 121.476 92.1797 120.859C92.1307 120.471 92.0602 119.985 91.7203 119.84C91.6775 119.816 91.6283 119.807 91.5799 119.813C91.5314 119.819 91.4862 119.841 91.4507 119.874C91.1728 120.147 91.3167 120.599 91.4278 120.964C91.8093 122.701 92.4323 124.376 93.2785 125.941C93.3082 125.989 93.3547 126.024 93.4088 126.039C93.463 126.054 93.5208 126.048 93.571 126.023C93.9263 125.87 93.5258 125.608 92.6391 122.686Z" fill="#191919"/>
<path d="M95.485 123.904C95.1696 122.282 94.7628 120.679 94.2668 119.102C94.2453 119.038 94.2004 118.986 94.1412 118.954C94.082 118.923 94.0131 118.915 93.9485 118.933C93.884 118.951 93.8288 118.993 93.7943 119.051C93.7598 119.108 93.7486 119.177 93.7629 119.242C94.0264 120.759 94.1879 121.17 94.4429 122.299C94.9383 124.502 94.9483 125.182 95.3801 125.182C95.7707 125.084 95.58 124.291 95.485 123.904Z" fill="#191919"/>
<path d="M109.229 138.408C108.629 137.708 107.962 137.068 107.238 136.498C105.224 134.852 103.12 133.605 100.572 131.827C98.1982 130.166 97.8046 129.939 97.8153 126.743C97.8692 125.76 97.8179 124.774 97.6622 123.802C97.4605 122.742 97.0969 121.718 96.584 120.768C96.5531 120.736 96.5136 120.715 96.4705 120.706C96.4274 120.697 96.3826 120.701 96.3417 120.717C96.3008 120.734 96.2656 120.762 96.2406 120.798C96.2156 120.834 96.2019 120.877 96.2012 120.921C96.2226 121.561 96.6476 122.249 96.9745 123.733C97.1273 124.575 97.1747 125.433 97.1154 126.286C97.0618 130.08 97.6989 130.669 99.2357 131.734C99.3054 131.782 101.05 133.014 101.672 133.433C104.165 135.11 107.024 136.81 109.064 139.209C109.261 139.438 109.842 140.401 110.189 140.169C110.218 140.15 110.241 140.124 110.255 140.093C110.27 140.062 110.275 140.027 110.271 139.993C110.075 139.38 109.714 138.831 109.229 138.408Z" fill="#191919"/>
<path d="M107.904 127.911C107.886 127.85 107.846 127.797 107.792 127.762C107.739 127.728 107.674 127.713 107.611 127.722C107.547 127.73 107.489 127.761 107.446 127.809C107.403 127.856 107.378 127.918 107.377 127.982C107.527 129.809 107.476 131.648 107.224 133.464C107.147 133.969 106.696 135.421 107.306 135.421C107.722 135.421 107.895 134.341 107.95 133.933C108.306 131.94 108.29 129.898 107.904 127.911Z" fill="#191919"/>
<path d="M109.322 46.4444C109.042 45.3122 108.441 44.2851 107.591 43.4869C106.741 42.6887 105.678 42.1535 104.53 41.9459C104.124 40.1223 103.056 38.5141 101.532 37.4322C100.009 36.3502 98.1391 35.8714 96.2834 36.0881C96.118 34.7309 95.6541 33.4271 94.9249 32.2705C94.1956 31.1139 93.2192 30.1332 92.0658 29.3989C90.2013 28.2311 87.4715 27.8996 85.9975 29.5283C85.7467 28.6761 85.3016 27.8938 84.6972 27.2428C84.0929 26.5918 83.3457 26.0899 82.5145 25.7765C81.6834 25.4631 80.7908 25.3467 79.9071 25.4367C79.0234 25.5266 78.1726 25.8203 77.4215 26.2947C76.615 25.4616 75.6322 24.8197 74.5452 24.4159C73.4583 24.0121 72.2947 23.8568 71.1399 23.9613C69.9851 24.0658 68.8683 24.4274 67.8715 25.0197C66.8747 25.612 66.0231 26.42 65.3791 27.3843C63.6316 26.7747 61.7245 26.8051 59.9973 27.4702C58.2702 28.1353 56.8352 29.3918 55.9478 31.016C54.6908 31.0088 53.4514 31.312 52.3396 31.8987C51.2278 32.4854 50.2781 33.3375 49.5747 34.3793C48.8713 35.4212 48.436 36.6206 48.3073 37.8711C48.1787 39.1216 48.3608 40.3845 48.8374 41.5477C48.1773 42.8377 47.829 44.2645 47.8205 45.7135C47.8119 47.1626 48.1434 48.5934 48.7882 49.8911C49.433 51.1888 50.3732 52.3172 51.5333 53.1855C52.6934 54.0539 54.0409 54.638 55.4677 54.891C55.5813 56.1265 56.0242 57.3088 56.7504 58.3147C57.4766 59.3206 58.4594 60.1132 59.5963 60.6098C60.7332 61.1064 61.9826 61.2888 63.214 61.138C64.4455 60.9873 65.6139 60.5088 66.5974 59.7525C70.2728 65.7251 76.6451 67.5445 81.2172 65.4227C81.359 65.3199 81.5303 65.2656 81.7054 65.2678C81.8806 65.27 82.0504 65.3286 82.1896 65.4349C83.5488 66.2313 84.9079 67.0161 86.2548 67.8132L86.1499 67.7428C93.4112 70.7658 101.215 67.3323 101.121 62.529C102.26 62.4723 103.367 62.135 104.344 61.5471C105.321 60.9591 106.138 60.1388 106.721 59.1592C107.305 58.1795 107.637 57.0708 107.689 55.9316C107.74 54.7925 107.51 53.6583 107.017 52.6299C107.945 51.9209 108.654 50.964 109.062 49.8696C109.47 48.7752 109.56 47.5879 109.322 46.4444ZM91.3981 37.3072C93.8201 37.8225 94.4089 40.7261 92.9678 41.8639C92.9345 41.8973 92.8902 41.9174 92.8431 41.9206C92.7961 41.9237 92.7495 41.9097 92.712 41.881C92.6745 41.8523 92.6488 41.8111 92.6395 41.7648C92.6302 41.7186 92.638 41.6705 92.6615 41.6296C93.7159 39.2559 92.1799 37.2268 88.9095 38.1739C87.7848 38.5363 86.7509 39.1358 85.8779 39.9321C85.0048 40.7284 84.3129 41.7029 83.8489 42.7897C83.767 42.965 83.4975 42.8364 83.5426 42.661C84.4684 39.1839 88.4769 36.6854 91.3981 37.3072ZM80.7371 37.4603C80.685 34.1494 82.9431 31.0574 85.3413 30.2902C85.5174 30.2343 85.5978 30.4755 85.4585 30.5712C84.8308 30.9766 84.239 31.4352 83.6897 31.9418C82.9156 32.6889 82.3101 33.5929 81.9139 34.5931C81.5177 35.5934 81.34 36.6668 81.3925 37.7413C81.3925 37.8282 81.358 37.9116 81.2965 37.9731C81.2351 38.0345 81.1517 38.069 81.0648 38.069C80.4964 38.1098 79.9437 38.2732 79.4445 38.548C78.9453 38.8228 78.5116 39.2024 78.1731 39.6609C77.8347 40.1193 77.5996 40.6456 77.484 41.2035C77.3684 41.7615 77.375 42.3379 77.5035 42.893C77.5164 42.9415 77.518 42.9923 77.5081 43.0415C77.4983 43.0907 77.4772 43.137 77.4465 43.1767C77.4158 43.2164 77.3764 43.2485 77.3313 43.2705C77.2862 43.2925 77.2366 43.3038 77.1865 43.3035C76.6377 43.3215 76.0987 43.4526 75.6029 43.6884C75.1071 43.9243 74.6653 44.2598 74.3051 44.6741C73.5901 45.499 73.184 46.5469 73.1565 47.6382C73.1113 47.884 72.7461 47.8495 72.6764 47.6382C72.1236 45.9536 74.008 42.9673 76.8005 42.6825C76.7135 42.0807 76.7465 41.4677 76.8976 40.8787C77.0486 40.2897 77.3148 39.7365 77.6808 39.251C78.0468 38.7654 78.5053 38.3571 79.0298 38.0497C79.5544 37.7422 80.1346 37.5416 80.7371 37.4595V37.4603ZM72.4199 42.5906C72.2338 42.0529 71.9301 41.5635 71.5308 41.1581C71.1316 40.7528 70.6468 40.4417 70.112 40.2475C70.0731 40.234 70.0407 40.2064 70.0212 40.1701C70.0018 40.1337 69.9967 40.0914 70.007 40.0516C70.0173 40.0117 70.0423 39.9772 70.077 39.9549C70.1116 39.9326 70.1534 39.9241 70.194 39.9313C72.1174 40.1832 73.5776 42.6603 73.0639 43.6067C73.0442 43.6389 73.0167 43.6654 72.9838 43.6839C72.951 43.7023 72.9139 43.712 72.8763 43.712C72.8386 43.712 72.8015 43.7023 72.7687 43.6839C72.7358 43.6654 72.7083 43.6389 72.6887 43.6067C72.5593 43.2798 72.4691 42.9387 72.4199 42.5906ZM70.5822 29.6454C72.4819 29.1033 75.3671 29.8958 77.224 31.0865C77.6869 31.3222 78.0489 31.7174 78.2431 32.1991C78.311 32.4069 78.3137 32.6305 78.2509 32.8399C78.1881 33.0493 78.0627 33.2345 77.8917 33.3706C77.4698 33.6983 76.8962 33.8132 76.4368 34.1088C76.0256 34.376 75.6711 34.8684 75.1956 35.0108C75.1652 35.0181 75.1335 35.0185 75.1029 35.012C75.0724 35.0055 75.0436 34.9922 75.0189 34.9731C74.9941 34.954 74.9739 34.9296 74.9599 34.9016C74.9458 34.8737 74.9382 34.843 74.9376 34.8117C75.0072 34.0498 76.0264 33.4633 76.6482 33.1715C77.0226 32.9954 77.76 32.879 77.5264 32.3047C77.3503 31.8714 76.7676 31.585 76.3779 31.3553C74.6113 30.405 72.6315 29.9214 70.6258 29.9502C70.5854 29.9562 70.5443 29.9459 70.5115 29.9215C70.4786 29.8972 70.4568 29.8608 70.4509 29.8204C70.4449 29.78 70.4552 29.7388 70.4795 29.706C70.5038 29.6732 70.5402 29.6514 70.5806 29.6454H70.5822ZM63.7405 30.258C63.8086 29.6702 63.9907 29.1014 64.2765 28.5834C64.3692 28.4065 64.641 28.5367 64.5928 28.712C64.4437 29.2634 64.3458 29.8273 64.3003 30.3966C64.3403 30.9072 64.3246 31.4207 64.2535 31.928C64.2427 31.9607 64.2229 31.9898 64.1965 32.0119C64.17 32.034 64.1379 32.0482 64.1038 32.0531C64.0696 32.0579 64.0348 32.0532 64.0033 32.0393C63.9717 32.0255 63.9446 32.0031 63.9251 31.9747C63.6602 31.4416 63.5943 30.8316 63.739 30.2542L63.7405 30.258ZM64.8998 32.9173C65.6027 32.8346 66.5507 32.8637 66.9734 33.5031C66.9925 33.5362 67.0026 33.5738 67.0027 33.6121C67.0028 33.6503 66.9929 33.688 66.9739 33.7212C66.9549 33.7544 66.9275 33.7821 66.8945 33.8015C66.8615 33.8208 66.824 33.8312 66.7858 33.8316C66.0833 33.5841 65.3294 33.5195 64.5951 33.644C62.9953 33.9529 61.5 34.6624 60.2489 35.706C59.985 35.9721 59.7567 36.2711 59.5697 36.5958C59.4548 36.801 59.2328 37.4611 58.902 37.2405C58.8086 37.1586 58.8108 37.0874 58.8315 36.9595C58.8445 36.8776 58.9847 36.9006 58.9724 36.9825C58.9839 36.9006 58.9364 36.8416 58.9724 36.713C59.3905 35.2152 60.8867 34.2489 62.3224 33.6677C63.1438 33.3034 64.01 33.0497 64.8983 32.9135L64.8998 32.9173ZM58.1876 32.0505C58.6939 32.0931 59.1795 32.2711 59.5934 32.5659C59.9449 32.7879 60.4479 33.0927 60.4602 33.5613C60.4601 33.5867 60.454 33.6118 60.4424 33.6344C60.4308 33.657 60.414 33.6766 60.3934 33.6915C60.3728 33.7065 60.349 33.7163 60.3239 33.7203C60.2988 33.7243 60.2731 33.7223 60.2489 33.7144C59.866 33.6379 59.5597 33.2236 59.2534 33.0115C58.889 32.7558 58.4778 32.6057 58.0934 32.3668C58.0619 32.3465 58.0377 32.3167 58.0246 32.2816C58.0114 32.2465 58.0099 32.2082 58.0203 32.1722C58.0307 32.1362 58.0525 32.1046 58.0824 32.0819C58.1122 32.0593 58.1486 32.047 58.186 32.0467L58.1876 32.0505ZM53.7357 36.9595C55.3827 36.4924 56.9785 37.2551 58.2458 38.2827C58.9434 38.8047 59.509 39.4828 59.8974 40.2628C60.2735 41.0079 60.4165 41.8489 60.3078 42.6763C60.2965 42.7149 60.2742 42.7494 60.2436 42.7754C60.213 42.8015 60.1754 42.818 60.1356 42.823C60.0957 42.8279 60.0552 42.8211 60.0192 42.8034C59.9831 42.7856 59.953 42.7577 59.9326 42.7231C59.2672 41.4619 59.9326 40.615 57.8713 38.8455C57.3291 38.3222 56.6857 37.9151 55.9807 37.6492C55.2756 37.3832 54.5237 37.264 53.7709 37.2987C53.5818 37.3163 53.5588 37.0047 53.7342 36.9557L53.7357 36.9595ZM52.0021 43.7422C51.9679 43.7955 51.9177 43.8366 51.8587 43.8597C51.7997 43.8828 51.735 43.8867 51.6736 43.8709C50.6897 43.694 49.4194 42.6633 49.3428 41.6105C49.3434 41.5823 49.3521 41.5549 49.3679 41.5315C49.3836 41.5081 49.4058 41.4897 49.4317 41.4786C49.4576 41.4675 49.4862 41.464 49.514 41.4687C49.5418 41.4733 49.5677 41.4858 49.5886 41.5048C49.94 41.8563 50.1782 42.2851 50.561 42.6059C50.9713 42.9168 51.4252 43.1655 51.9079 43.344C51.9525 43.3673 51.9894 43.4028 52.0144 43.4463C52.0393 43.4899 52.0513 43.5397 52.0488 43.5898C52.0376 43.6408 52.0214 43.6905 52.0006 43.7384L52.0021 43.7422ZM57.4257 50.9116C56.2426 50.9177 55.3207 50.0418 54.5787 49.2133C53.7901 48.3608 53.216 47.3326 52.9041 46.2139C52.166 43.3701 53.9539 40.9305 54.9302 40.8601C54.9671 40.8605 55.0034 40.8704 55.0354 40.8888C55.0674 40.9073 55.0941 40.9337 55.1129 40.9654C55.1318 40.9972 55.1421 41.0333 55.143 41.0702C55.1438 41.1072 55.1352 41.1437 55.1178 41.1763C54.8215 41.7988 54.1362 41.841 53.63 43.3088C53.3514 44.2382 53.3227 45.2247 53.547 46.1687C53.7712 47.1127 54.2404 47.9809 54.9072 48.6857C55.5152 49.4131 56.4287 50.4407 57.4142 50.5487C57.647 50.5709 57.6699 50.907 57.4241 50.9078L57.4257 50.9116ZM57.4142 44.8318C57.8851 44.099 58.9839 44.0271 59.7688 44.0118C60.7622 43.9872 61.7556 44.0657 62.7328 44.2461C64.7459 44.6358 66.5568 46.3411 66.8332 47.3977C66.87 47.5379 66.7031 47.704 66.5637 47.6083C65.971 47.2025 64.9557 45.4115 62.6861 44.9605C61.4036 44.7186 60.0911 44.6791 58.7963 44.8433C58.4096 44.9252 58.0582 45.0975 57.6715 45.1718C57.4946 45.2009 57.2932 45.0141 57.4127 44.828L57.4142 44.8318ZM67.0905 55.7969C62.167 57.2647 58.8836 54.8627 58.4242 51.4116C58.271 50.263 58.3652 48.6106 59.1853 47.6979C59.3514 47.5126 59.5934 47.7209 59.5605 47.9207C59.3974 48.9062 58.8216 49.8258 59.1271 51.5288C59.3124 52.5692 59.8216 53.5246 60.5819 54.2585C62.3178 55.9194 64.8447 55.6368 67.0369 55.4071C67.2651 55.3818 67.2881 55.7341 67.089 55.793L67.0905 55.7969ZM67.3248 42.1258C67.5469 42.256 67.3486 42.5707 67.1257 42.465C66.5834 42.1949 66.1177 41.7927 65.7718 41.2952C65.4259 40.7978 65.2108 40.2213 65.1464 39.6189C64.68 35.9434 69.6296 33.9526 73.815 35.0728C75.0992 35.3244 76.2669 35.9866 77.142 36.9595C77.2952 37.1709 77.0119 37.373 76.8143 37.2872C75.8296 36.8584 75.2599 36.1333 73.2997 35.6792C71.1756 35.1907 68.4313 35.4143 66.7513 36.9565C66.389 37.3044 66.1116 37.731 65.9404 38.2033C65.7693 38.6756 65.709 39.1809 65.7643 39.6802C65.8196 40.1795 65.989 40.6593 66.2593 41.0827C66.5296 41.5061 66.8936 41.8617 67.3233 42.122L67.3248 42.1258ZM71.9007 52.1145C71.1812 52.7767 70.6131 53.5863 70.235 54.488C69.8569 55.3898 69.6779 56.3625 69.71 57.3398C69.71 57.4799 69.4864 57.5274 69.4642 57.375C69.3458 56.3733 69.4573 55.3578 69.7902 54.4057C70.1231 53.4536 70.6686 52.5899 71.3854 51.8802C74.2951 48.7186 78.224 46.263 82.5503 46.1374C84.0863 46.0945 86.0151 46.4015 87.2709 45.4C87.9079 44.7694 88.4101 44.016 88.7472 43.1855C88.9471 42.8111 89.4364 43.1388 89.2832 43.5133C88.483 45.4712 87.5221 46.4996 85.5458 46.7584C82.8872 47.1083 80.5939 46.0922 75.9628 48.8671C74.4767 49.7731 73.1117 50.8643 71.9007 52.1145ZM73.6113 56.777C73.5585 56.777 73.5079 56.756 73.4706 56.7187C73.4332 56.6813 73.4123 56.6307 73.4123 56.5779C73.4123 56.5251 73.4332 56.4745 73.4706 56.4371C73.5079 56.3998 73.5585 56.3788 73.6113 56.3788C74.7197 56.371 75.8 56.0292 76.7112 55.3981C77.6224 54.7671 78.3223 53.876 78.7194 52.8412C78.7438 52.7565 78.8002 52.6846 78.8767 52.6409C78.9532 52.5971 79.0437 52.5849 79.1291 52.6069C81.1881 53.11 83.427 53.6674 85.5259 53.0755C86.3368 52.8944 87.0829 52.4953 87.6837 51.9213C88.2844 51.3472 88.717 50.62 88.9348 49.8182C88.9607 49.7312 89.0188 49.6575 89.0971 49.6118C89.1755 49.5661 89.2683 49.552 89.3567 49.5724C90.0328 49.7678 90.7463 49.7965 91.4359 49.6558C92.1255 49.5151 92.7707 49.2093 93.3162 48.7645C94.7519 47.5762 94.7642 45.7783 95.7765 44.8747C95.8235 44.831 95.8845 44.8055 95.9487 44.8027C96.0128 44.7998 96.0758 44.82 96.1265 44.8594C96.1772 44.8988 96.2121 44.955 96.2252 45.0178C96.2382 45.0807 96.2284 45.1461 96.1976 45.2024C96.0131 45.6374 95.7696 46.0371 95.5774 46.4682C95.3852 46.8993 95.2068 47.3372 94.9916 47.7569C94.4956 48.731 93.6908 49.5134 92.7031 49.9818C91.7153 50.4502 90.6003 50.5781 89.5321 50.3457C89.2466 51.1472 88.7732 51.8686 88.1516 52.4494C87.53 53.0303 86.7782 53.4537 85.9592 53.6843C83.7777 54.3925 81.4255 53.8719 79.2577 53.3328C78.7847 54.417 77.9892 55.3291 76.9795 55.9454C75.9698 56.5616 74.7949 56.8519 73.6144 56.777H73.6113ZM80.7455 58.6147C80.0593 59.4001 79.1581 59.9673 78.1532 60.2464C77.1483 60.5255 76.0836 60.5042 75.0907 60.1852C75.0556 60.1711 75.027 60.1447 75.0103 60.1108C74.9936 60.077 74.9899 60.0381 75.0001 60.0018C75.0102 59.9654 75.0335 59.9341 75.0653 59.9138C75.0972 59.8935 75.1354 59.8857 75.1726 59.8919C76.1533 60.08 77.1666 59.9972 78.1037 59.6525C79.0408 59.3078 79.8663 58.7142 80.4913 57.9355C80.5527 57.8755 80.6351 57.8418 80.721 57.8418C80.8069 57.8418 80.8893 57.8755 80.9507 57.9355C81.5758 58.4163 82.3544 58.6536 83.1414 58.6032C84.0467 58.659 84.9555 58.604 85.8475 58.4393C87.3789 58.1139 88.8613 57.1261 89.1278 55.4753C89.1411 55.4256 89.1657 55.3797 89.1998 55.3412C89.2338 55.3027 89.2764 55.2726 89.324 55.2533C89.3717 55.234 89.4231 55.2261 89.4744 55.23C89.5256 55.234 89.5752 55.2498 89.6194 55.2762C92.2396 57.1254 95.8982 56.5741 97.8669 53.074C98.0108 52.8175 98.4419 52.992 98.347 53.2731C97.2972 56.3895 93.0697 58.1177 89.6661 56.1062C89.3753 56.8805 88.8853 57.5644 88.2456 58.0888C87.6059 58.6131 86.8391 58.9593 86.0228 59.0925C84.9888 59.2906 83.9324 59.3458 82.8834 59.2564C82.1243 59.2575 81.3817 59.0349 80.7486 58.6162L80.7455 58.6147ZM98.9741 61.4968C97.7109 61.7871 96.3861 61.6299 95.2259 61.052C94.8155 61.6846 94.2752 62.2228 93.6409 62.6306C93.0066 63.0384 92.2928 63.3067 91.5469 63.4175C90.8009 63.5283 90.04 63.4791 89.3145 63.2733C88.589 63.0674 87.9156 62.7096 87.3391 62.2235C86.3666 63.3361 84.8474 64.2519 83.3443 64.0153C83.1805 63.99 83.1912 63.7343 83.3443 63.699C84.0534 63.5832 84.7431 63.3703 85.3942 63.0666C86.0532 62.7253 86.6169 62.2253 87.0343 61.6117C87.0587 61.5704 87.0923 61.5353 87.1325 61.5091C87.1727 61.4829 87.2184 61.4663 87.2661 61.4607C87.3137 61.455 87.362 61.4605 87.4072 61.4766C87.4524 61.4927 87.4933 61.519 87.5267 61.5535C88.0468 62.0291 88.6666 62.3826 89.3407 62.5882C90.0149 62.7938 90.7264 62.8463 91.4234 62.7419C92.1204 62.6375 92.7854 62.3788 93.3697 61.9847C93.954 61.5906 94.443 61.071 94.8009 60.4639C94.8473 60.3885 94.9212 60.3342 95.0069 60.3123C95.0927 60.2904 95.1836 60.3028 95.2604 60.3467C96.4417 60.8217 97.7002 61.0757 98.9733 61.0964C99.2007 61.1324 99.1533 61.4409 98.9772 61.4984L98.9741 61.4968ZM105.523 52.2416C103.591 52.8374 101.79 51.8971 100.287 50.7194C99.5197 50.1813 98.9093 49.4494 98.5177 48.5984C98.1425 47.7065 98.0524 46.7203 98.2597 45.7752C98.2723 45.7322 98.2985 45.6944 98.3344 45.6676C98.3703 45.6407 98.4139 45.6262 98.4588 45.6262C98.5036 45.6262 98.5472 45.6407 98.5831 45.6676C98.619 45.6944 98.6452 45.7322 98.6578 45.7752C99.1862 47.2722 98.2482 48.2883 100.673 50.2163C101.313 50.8156 102.07 51.2749 102.897 51.565C103.724 51.855 104.603 51.9694 105.477 51.9009C105.518 51.9018 105.558 51.9174 105.589 51.9449C105.62 51.9723 105.64 52.0099 105.646 52.051C105.652 52.092 105.643 52.1339 105.621 52.1691C105.6 52.2042 105.566 52.2305 105.526 52.2432L105.523 52.2416Z" fill="#327468"/>
</svg>
