<svg width="1080" height="1920" viewBox="0 0 1080 1920" fill="none" xmlns="http://www.w3.org/2000/svg">
<g clip-path="url(#clip0_2003_75)">
<g filter="url(#filter0_d_2003_75)">
<rect width="1080" height="1920" fill="#EEEEEE"/>
</g>
<g clip-path="url(#clip1_2003_75)">
<path d="M1135.79 362H206V1540.78H1135.79V362Z" fill="#EEEEEE"/>
<path d="M652.936 764.737C606.996 764.737 560.232 762.868 516.487 750.664C473.565 738.735 434.156 715.592 399.029 688.82C376.031 671.394 355.119 657.541 325.261 659.63C296.044 661.186 268.103 672.114 245.565 690.799C207.583 724.113 213.291 785.792 228.495 829.055C251.328 894.308 320.815 939.715 379.873 969.18C448.098 1003.32 523.073 1023.11 598.214 1034.54C664.078 1044.55 748.714 1051.86 805.796 1008.76C858.213 969.18 872.594 878.805 859.75 817.786C856.637 799.743 847.054 783.46 832.801 771.994C795.971 745.057 741.03 763.033 699.645 763.968C684.276 764.298 668.634 764.627 652.936 764.737Z" fill="#F2F2F2"/>
<path d="M540.528 1141.46C651.807 1141.46 742.018 1135.83 742.018 1128.88C742.018 1121.92 651.807 1116.29 540.528 1116.29C429.248 1116.29 339.037 1121.92 339.037 1128.88C339.037 1135.83 429.248 1141.46 540.528 1141.46Z" fill="#F2F2F2"/>
<path d="M791.965 593.278C794.936 593.278 797.344 590.866 797.344 587.89C797.344 584.915 794.936 582.503 791.965 582.503C788.994 582.503 786.586 584.915 786.586 587.89C786.586 590.866 788.994 593.278 791.965 593.278Z" fill="#CFCFCF"/>
<path d="M434.157 548.145C437.127 548.145 439.535 545.733 439.535 542.758C439.535 539.783 437.127 537.371 434.157 537.371C431.186 537.371 428.778 539.783 428.778 542.758C428.778 545.733 431.186 548.145 434.157 548.145Z" fill="#CFCFCF"/>
<path d="M499.198 1061.09C502.168 1061.09 504.576 1058.68 504.576 1055.71C504.576 1052.73 502.168 1050.32 499.198 1050.32C496.227 1050.32 493.819 1052.73 493.819 1055.71C493.819 1058.68 496.227 1061.09 499.198 1061.09Z" fill="#CFCFCF"/>
<path d="M642.782 522.528V546.166" stroke="#BABABA" stroke-linecap="round" stroke-linejoin="round"/>
<path d="M630.981 534.347H654.583" stroke="#BABABA" stroke-linecap="round" stroke-linejoin="round"/>
<path d="M258.244 622.028V645.667" stroke="#BABABA" stroke-linecap="round" stroke-linejoin="round"/>
<path d="M246.388 633.848H270.044" stroke="#BABABA" stroke-linecap="round" stroke-linejoin="round"/>
<path d="M276.027 951.369V975.063" stroke="#BABABA" stroke-linecap="round" stroke-linejoin="round"/>
<path d="M264.171 963.188H287.828" stroke="#BABABA" stroke-linecap="round" stroke-linejoin="round"/>
<path d="M763.698 708.995V732.633" stroke="#BABABA" stroke-linecap="round" stroke-linejoin="round"/>
<path d="M751.897 720.814H775.499" stroke="#BABABA" stroke-linecap="round" stroke-linejoin="round"/>
<path d="M599.199 571.083L323.705 607.315C305.849 609.663 293.274 626.065 295.619 643.949L337.61 964.227C339.955 982.111 356.331 994.705 374.187 992.357L649.681 956.124C667.537 953.776 680.112 937.375 677.767 919.491L635.776 599.212C633.431 581.328 617.055 568.734 599.199 571.083Z" fill="#D2D2D2"/>
<path d="M679.446 618.07H401.169C383.133 618.07 368.511 632.715 368.511 650.779V974.293C368.511 992.357 383.133 1007 401.169 1007H679.446C697.483 1007 712.104 992.357 712.104 974.293V650.779C712.104 632.715 697.483 618.07 679.446 618.07Z" fill="#EEEEEE" stroke="#BABABA" stroke-linecap="round" stroke-linejoin="round"/>
<path d="M410.061 874.023L465.716 783.153C466.264 781.826 467.193 780.691 468.385 779.892C469.577 779.094 470.979 778.667 472.413 778.667C473.847 778.667 475.249 779.094 476.441 779.892C477.633 780.691 478.561 781.826 479.109 783.153L510.669 834.662C511.205 835.994 512.126 837.135 513.315 837.939C514.503 838.742 515.904 839.171 517.338 839.171C518.771 839.171 520.172 838.742 521.361 837.939C522.549 837.135 523.47 835.994 524.006 834.662L578.015 746.706C578.551 745.374 579.473 744.233 580.661 743.43C581.849 742.627 583.25 742.197 584.684 742.197C586.118 742.197 587.519 742.627 588.707 743.43C589.895 744.233 590.817 745.374 591.353 746.706L670.61 876.057L410.061 874.023Z" fill="#EEEEEE" stroke="#BABABA" stroke-linecap="round" stroke-linejoin="round"/>
<path d="M521.042 770.949C530.712 770.949 538.551 763.098 538.551 753.413C538.551 743.728 530.712 735.877 521.042 735.877C511.373 735.877 503.534 743.728 503.534 753.413C503.534 763.098 511.373 770.949 521.042 770.949Z" fill="#EEEEEE" stroke="#BABABA" stroke-linecap="round" stroke-linejoin="round"/>
<path d="M343.596 1192.08V1221H340.836C340.409 1221 340.049 1220.93 339.756 1220.8C339.476 1220.65 339.203 1220.41 338.936 1220.08L323.836 1200.8C323.916 1201.68 323.956 1202.49 323.956 1203.24V1221H319.216V1192.08H322.036C322.263 1192.08 322.456 1192.09 322.616 1192.12C322.789 1192.13 322.936 1192.17 323.056 1192.24C323.189 1192.29 323.316 1192.38 323.436 1192.5C323.556 1192.61 323.689 1192.75 323.836 1192.94L338.996 1212.3C338.956 1211.83 338.923 1211.37 338.896 1210.92C338.869 1210.47 338.856 1210.05 338.856 1209.66V1192.08H343.596ZM357.711 1200.16C359.231 1200.16 360.611 1200.41 361.851 1200.9C363.105 1201.39 364.171 1202.09 365.051 1203C365.945 1203.91 366.631 1205.01 367.111 1206.32C367.591 1207.63 367.831 1209.09 367.831 1210.7C367.831 1212.33 367.591 1213.79 367.111 1215.1C366.631 1216.41 365.945 1217.52 365.051 1218.44C364.171 1219.36 363.105 1220.07 361.851 1220.56C360.611 1221.05 359.231 1221.3 357.711 1221.3C356.178 1221.3 354.785 1221.05 353.531 1220.56C352.278 1220.07 351.205 1219.36 350.311 1218.44C349.431 1217.52 348.745 1216.41 348.251 1215.1C347.771 1213.79 347.531 1212.33 347.531 1210.7C347.531 1209.09 347.771 1207.63 348.251 1206.32C348.745 1205.01 349.431 1203.91 350.311 1203C351.205 1202.09 352.278 1201.39 353.531 1200.9C354.785 1200.41 356.178 1200.16 357.711 1200.16ZM357.711 1217.5C359.418 1217.5 360.678 1216.93 361.491 1215.78C362.318 1214.63 362.731 1212.95 362.731 1210.74C362.731 1208.53 362.318 1206.84 361.491 1205.68C360.678 1204.52 359.418 1203.94 357.711 1203.94C355.978 1203.94 354.691 1204.53 353.851 1205.7C353.025 1206.86 352.611 1208.54 352.611 1210.74C352.611 1212.94 353.025 1214.62 353.851 1215.78C354.691 1216.93 355.978 1217.5 357.711 1217.5ZM396.027 1204.82C395.88 1205.01 395.733 1205.15 395.587 1205.26C395.453 1205.37 395.253 1205.42 394.987 1205.42C394.733 1205.42 394.487 1205.35 394.247 1205.2C394.007 1205.04 393.72 1204.87 393.387 1204.68C393.053 1204.48 392.653 1204.31 392.187 1204.16C391.733 1204 391.167 1203.92 390.487 1203.92C389.62 1203.92 388.86 1204.08 388.207 1204.4C387.553 1204.71 387.007 1205.15 386.567 1205.74C386.14 1206.33 385.82 1207.04 385.607 1207.88C385.393 1208.71 385.287 1209.65 385.287 1210.7C385.287 1211.79 385.4 1212.77 385.627 1213.62C385.867 1214.47 386.207 1215.19 386.647 1215.78C387.087 1216.35 387.62 1216.79 388.247 1217.1C388.873 1217.39 389.58 1217.54 390.367 1217.54C391.153 1217.54 391.787 1217.45 392.267 1217.26C392.76 1217.06 393.173 1216.85 393.507 1216.62C393.84 1216.38 394.127 1216.17 394.367 1215.98C394.62 1215.78 394.9 1215.68 395.207 1215.68C395.607 1215.68 395.907 1215.83 396.107 1216.14L397.527 1217.94C396.98 1218.58 396.387 1219.12 395.747 1219.56C395.107 1219.99 394.44 1220.33 393.747 1220.6C393.067 1220.85 392.36 1221.03 391.627 1221.14C390.907 1221.25 390.187 1221.3 389.467 1221.3C388.2 1221.3 387.007 1221.07 385.887 1220.6C384.767 1220.12 383.787 1219.43 382.947 1218.52C382.107 1217.61 381.44 1216.51 380.947 1215.2C380.467 1213.88 380.227 1212.38 380.227 1210.7C380.227 1209.19 380.44 1207.8 380.867 1206.52C381.307 1205.23 381.947 1204.11 382.787 1203.18C383.627 1202.23 384.667 1201.49 385.907 1200.96C387.147 1200.43 388.573 1200.16 390.187 1200.16C391.72 1200.16 393.06 1200.41 394.207 1200.9C395.367 1201.39 396.407 1202.1 397.327 1203.02L396.027 1204.82ZM405.284 1204.04C405.924 1202.81 406.684 1201.85 407.564 1201.16C408.444 1200.45 409.484 1200.1 410.684 1200.1C411.63 1200.1 412.39 1200.31 412.964 1200.72L412.644 1204.42C412.577 1204.66 412.477 1204.83 412.344 1204.94C412.224 1205.03 412.057 1205.08 411.844 1205.08C411.644 1205.08 411.344 1205.05 410.944 1204.98C410.557 1204.91 410.177 1204.88 409.804 1204.88C409.257 1204.88 408.77 1204.96 408.344 1205.12C407.917 1205.28 407.53 1205.51 407.184 1205.82C406.85 1206.11 406.55 1206.47 406.284 1206.9C406.03 1207.33 405.79 1207.81 405.564 1208.36V1221H400.624V1200.48H403.524C404.03 1200.48 404.384 1200.57 404.584 1200.76C404.784 1200.93 404.917 1201.25 404.984 1201.72L405.284 1204.04ZM428.18 1208.38C428.18 1207.74 428.086 1207.14 427.9 1206.58C427.726 1206.01 427.46 1205.51 427.1 1205.08C426.74 1204.65 426.28 1204.32 425.72 1204.08C425.173 1203.83 424.533 1203.7 423.8 1203.7C422.373 1203.7 421.246 1204.11 420.42 1204.92C419.606 1205.73 419.086 1206.89 418.86 1208.38H428.18ZM418.76 1211.36C418.84 1212.41 419.026 1213.33 419.32 1214.1C419.613 1214.86 420 1215.49 420.48 1216C420.96 1216.49 421.526 1216.87 422.18 1217.12C422.846 1217.36 423.58 1217.48 424.38 1217.48C425.18 1217.48 425.866 1217.39 426.44 1217.2C427.026 1217.01 427.533 1216.81 427.96 1216.58C428.4 1216.35 428.78 1216.15 429.1 1215.96C429.433 1215.77 429.753 1215.68 430.06 1215.68C430.473 1215.68 430.78 1215.83 430.98 1216.14L432.4 1217.94C431.853 1218.58 431.24 1219.12 430.56 1219.56C429.88 1219.99 429.166 1220.33 428.42 1220.6C427.686 1220.85 426.933 1221.03 426.16 1221.14C425.4 1221.25 424.66 1221.3 423.94 1221.3C422.513 1221.3 421.186 1221.07 419.96 1220.6C418.733 1220.12 417.666 1219.42 416.76 1218.5C415.853 1217.57 415.14 1216.42 414.62 1215.06C414.1 1213.69 413.84 1212.1 413.84 1210.3C413.84 1208.9 414.066 1207.59 414.52 1206.36C414.973 1205.12 415.62 1204.05 416.46 1203.14C417.313 1202.22 418.346 1201.49 419.56 1200.96C420.786 1200.43 422.166 1200.16 423.7 1200.16C424.993 1200.16 426.186 1200.37 427.28 1200.78C428.373 1201.19 429.313 1201.8 430.1 1202.6C430.886 1203.39 431.5 1204.36 431.94 1205.52C432.393 1206.67 432.62 1207.98 432.62 1209.46C432.62 1210.21 432.54 1210.71 432.38 1210.98C432.22 1211.23 431.913 1211.36 431.46 1211.36H418.76ZM447.167 1212.24C445.74 1212.31 444.54 1212.43 443.567 1212.62C442.593 1212.79 441.813 1213.02 441.227 1213.3C440.64 1213.58 440.22 1213.91 439.967 1214.28C439.713 1214.65 439.587 1215.06 439.587 1215.5C439.587 1216.37 439.84 1216.99 440.347 1217.36C440.867 1217.73 441.54 1217.92 442.367 1217.92C443.38 1217.92 444.253 1217.74 444.987 1217.38C445.733 1217.01 446.46 1216.45 447.167 1215.7V1212.24ZM435.847 1203.34C438.207 1201.18 441.047 1200.1 444.367 1200.1C445.567 1200.1 446.64 1200.3 447.587 1200.7C448.533 1201.09 449.333 1201.63 449.987 1202.34C450.64 1203.03 451.133 1203.87 451.467 1204.84C451.813 1205.81 451.987 1206.88 451.987 1208.04V1221H449.747C449.28 1221 448.92 1220.93 448.667 1220.8C448.413 1220.65 448.213 1220.37 448.067 1219.94L447.627 1218.46C447.107 1218.93 446.6 1219.34 446.107 1219.7C445.613 1220.05 445.1 1220.34 444.567 1220.58C444.033 1220.82 443.46 1221 442.847 1221.12C442.247 1221.25 441.58 1221.32 440.847 1221.32C439.98 1221.32 439.18 1221.21 438.447 1220.98C437.713 1220.74 437.08 1220.39 436.547 1219.92C436.013 1219.45 435.6 1218.87 435.307 1218.18C435.013 1217.49 434.867 1216.68 434.867 1215.76C434.867 1215.24 434.953 1214.73 435.127 1214.22C435.3 1213.7 435.58 1213.21 435.967 1212.74C436.367 1212.27 436.88 1211.83 437.507 1211.42C438.133 1211.01 438.9 1210.65 439.807 1210.34C440.727 1210.03 441.793 1209.79 443.007 1209.6C444.22 1209.4 445.607 1209.28 447.167 1209.24V1208.04C447.167 1206.67 446.873 1205.65 446.287 1205C445.7 1204.33 444.853 1204 443.747 1204C442.947 1204 442.28 1204.09 441.747 1204.28C441.227 1204.47 440.767 1204.68 440.367 1204.92C439.967 1205.15 439.6 1205.35 439.267 1205.54C438.947 1205.73 438.587 1205.82 438.187 1205.82C437.84 1205.82 437.547 1205.73 437.307 1205.56C437.067 1205.37 436.873 1205.16 436.727 1204.92L435.847 1203.34ZM463.206 1221.32C461.419 1221.32 460.046 1220.82 459.086 1219.82C458.139 1218.81 457.666 1217.41 457.666 1215.64V1204.18H455.566C455.299 1204.18 455.072 1204.09 454.886 1203.92C454.699 1203.75 454.606 1203.49 454.606 1203.14V1201.18L457.906 1200.64L458.946 1195.04C459.012 1194.77 459.139 1194.57 459.326 1194.42C459.512 1194.27 459.752 1194.2 460.046 1194.2H462.606V1200.66H468.086V1204.18H462.606V1215.3C462.606 1215.94 462.759 1216.44 463.066 1216.8C463.386 1217.16 463.819 1217.34 464.366 1217.34C464.672 1217.34 464.926 1217.31 465.126 1217.24C465.339 1217.16 465.519 1217.08 465.666 1217C465.826 1216.92 465.966 1216.85 466.086 1216.78C466.206 1216.7 466.326 1216.66 466.446 1216.66C466.592 1216.66 466.712 1216.7 466.806 1216.78C466.899 1216.85 466.999 1216.95 467.106 1217.1L468.586 1219.5C467.866 1220.1 467.039 1220.55 466.106 1220.86C465.172 1221.17 464.206 1221.32 463.206 1221.32ZM480.172 1200.16C481.692 1200.16 483.072 1200.41 484.312 1200.9C485.566 1201.39 486.632 1202.09 487.512 1203C488.406 1203.91 489.092 1205.01 489.572 1206.32C490.052 1207.63 490.292 1209.09 490.292 1210.7C490.292 1212.33 490.052 1213.79 489.572 1215.1C489.092 1216.41 488.406 1217.52 487.512 1218.44C486.632 1219.36 485.566 1220.07 484.312 1220.56C483.072 1221.05 481.692 1221.3 480.172 1221.3C478.639 1221.3 477.246 1221.05 475.992 1220.56C474.739 1220.07 473.666 1219.36 472.772 1218.44C471.892 1217.52 471.206 1216.41 470.712 1215.1C470.232 1213.79 469.992 1212.33 469.992 1210.7C469.992 1209.09 470.232 1207.63 470.712 1206.32C471.206 1205.01 471.892 1203.91 472.772 1203C473.666 1202.09 474.739 1201.39 475.992 1200.9C477.246 1200.41 478.639 1200.16 480.172 1200.16ZM480.172 1217.5C481.879 1217.5 483.139 1216.93 483.952 1215.78C484.779 1214.63 485.192 1212.95 485.192 1210.74C485.192 1208.53 484.779 1206.84 483.952 1205.68C483.139 1204.52 481.879 1203.94 480.172 1203.94C478.439 1203.94 477.152 1204.53 476.312 1205.7C475.486 1206.86 475.072 1208.54 475.072 1210.74C475.072 1212.94 475.486 1214.62 476.312 1215.78C477.152 1216.93 478.439 1217.5 480.172 1217.5ZM498.721 1204.04C499.361 1202.81 500.121 1201.85 501.001 1201.16C501.881 1200.45 502.921 1200.1 504.121 1200.1C505.068 1200.1 505.828 1200.31 506.401 1200.72L506.081 1204.42C506.014 1204.66 505.914 1204.83 505.781 1204.94C505.661 1205.03 505.494 1205.08 505.281 1205.08C505.081 1205.08 504.781 1205.05 504.381 1204.98C503.994 1204.91 503.614 1204.88 503.241 1204.88C502.694 1204.88 502.208 1204.96 501.781 1205.12C501.354 1205.28 500.968 1205.51 500.621 1205.82C500.288 1206.11 499.988 1206.47 499.721 1206.9C499.468 1207.33 499.228 1207.81 499.001 1208.36V1221H494.061V1200.48H496.961C497.468 1200.48 497.821 1200.57 498.021 1200.76C498.221 1200.93 498.354 1201.25 498.421 1201.72L498.721 1204.04ZM521.425 1204.48C521.292 1204.69 521.152 1204.85 521.005 1204.94C520.858 1205.02 520.672 1205.06 520.445 1205.06C520.205 1205.06 519.945 1204.99 519.665 1204.86C519.398 1204.73 519.085 1204.58 518.725 1204.42C518.365 1204.25 517.952 1204.09 517.485 1203.96C517.032 1203.83 516.492 1203.76 515.865 1203.76C514.892 1203.76 514.125 1203.97 513.565 1204.38C513.018 1204.79 512.745 1205.33 512.745 1206C512.745 1206.44 512.885 1206.81 513.165 1207.12C513.458 1207.41 513.838 1207.67 514.305 1207.9C514.785 1208.13 515.325 1208.33 515.925 1208.52C516.525 1208.69 517.132 1208.89 517.745 1209.1C518.372 1209.31 518.985 1209.56 519.585 1209.84C520.185 1210.11 520.718 1210.45 521.185 1210.88C521.665 1211.29 522.045 1211.79 522.325 1212.38C522.618 1212.97 522.765 1213.67 522.765 1214.5C522.765 1215.49 522.585 1216.4 522.225 1217.24C521.878 1218.07 521.358 1218.79 520.665 1219.4C519.972 1220 519.112 1220.47 518.085 1220.82C517.072 1221.15 515.898 1221.32 514.565 1221.32C513.858 1221.32 513.165 1221.25 512.485 1221.12C511.818 1221 511.172 1220.83 510.545 1220.6C509.932 1220.37 509.358 1220.11 508.825 1219.8C508.305 1219.49 507.845 1219.16 507.445 1218.8L508.585 1216.92C508.732 1216.69 508.905 1216.52 509.105 1216.4C509.305 1216.28 509.558 1216.22 509.865 1216.22C510.172 1216.22 510.458 1216.31 510.725 1216.48C511.005 1216.65 511.325 1216.84 511.685 1217.04C512.045 1217.24 512.465 1217.43 512.945 1217.6C513.438 1217.77 514.058 1217.86 514.805 1217.86C515.392 1217.86 515.892 1217.79 516.305 1217.66C516.732 1217.51 517.078 1217.33 517.345 1217.1C517.625 1216.87 517.825 1216.61 517.945 1216.32C518.078 1216.01 518.145 1215.7 518.145 1215.38C518.145 1214.9 517.998 1214.51 517.705 1214.2C517.425 1213.89 517.045 1213.63 516.565 1213.4C516.098 1213.17 515.558 1212.97 514.945 1212.8C514.345 1212.61 513.725 1212.41 513.085 1212.2C512.458 1211.99 511.838 1211.74 511.225 1211.46C510.625 1211.17 510.085 1210.8 509.605 1210.36C509.138 1209.92 508.758 1209.38 508.465 1208.74C508.185 1208.1 508.045 1207.33 508.045 1206.42C508.045 1205.58 508.212 1204.78 508.545 1204.02C508.878 1203.26 509.365 1202.6 510.005 1202.04C510.658 1201.47 511.465 1201.01 512.425 1200.68C513.398 1200.33 514.518 1200.16 515.785 1200.16C517.198 1200.16 518.485 1200.39 519.645 1200.86C520.805 1201.33 521.772 1201.94 522.545 1202.7L521.425 1204.48ZM547.05 1212.24C545.623 1212.31 544.423 1212.43 543.45 1212.62C542.476 1212.79 541.696 1213.02 541.11 1213.3C540.523 1213.58 540.103 1213.91 539.85 1214.28C539.596 1214.65 539.47 1215.06 539.47 1215.5C539.47 1216.37 539.723 1216.99 540.23 1217.36C540.75 1217.73 541.423 1217.92 542.25 1217.92C543.263 1217.92 544.136 1217.74 544.87 1217.38C545.616 1217.01 546.343 1216.45 547.05 1215.7V1212.24ZM535.73 1203.34C538.09 1201.18 540.93 1200.1 544.25 1200.1C545.45 1200.1 546.523 1200.3 547.47 1200.7C548.416 1201.09 549.216 1201.63 549.87 1202.34C550.523 1203.03 551.016 1203.87 551.35 1204.84C551.696 1205.81 551.87 1206.88 551.87 1208.04V1221H549.63C549.163 1221 548.803 1220.93 548.55 1220.8C548.296 1220.65 548.096 1220.37 547.95 1219.94L547.51 1218.46C546.99 1218.93 546.483 1219.34 545.99 1219.7C545.496 1220.05 544.983 1220.34 544.45 1220.58C543.916 1220.82 543.343 1221 542.73 1221.12C542.13 1221.25 541.463 1221.32 540.73 1221.32C539.863 1221.32 539.063 1221.21 538.33 1220.98C537.596 1220.74 536.963 1220.39 536.43 1219.92C535.896 1219.45 535.483 1218.87 535.19 1218.18C534.896 1217.49 534.75 1216.68 534.75 1215.76C534.75 1215.24 534.836 1214.73 535.01 1214.22C535.183 1213.7 535.463 1213.21 535.85 1212.74C536.25 1212.27 536.763 1211.83 537.39 1211.42C538.016 1211.01 538.783 1210.65 539.69 1210.34C540.61 1210.03 541.676 1209.79 542.89 1209.6C544.103 1209.4 545.49 1209.28 547.05 1209.24V1208.04C547.05 1206.67 546.756 1205.65 546.17 1205C545.583 1204.33 544.736 1204 543.63 1204C542.83 1204 542.163 1204.09 541.63 1204.28C541.11 1204.47 540.65 1204.68 540.25 1204.92C539.85 1205.15 539.483 1205.35 539.15 1205.54C538.83 1205.73 538.47 1205.82 538.07 1205.82C537.723 1205.82 537.43 1205.73 537.19 1205.56C536.95 1205.37 536.756 1205.16 536.61 1204.92L535.73 1203.34ZM574.553 1200.48L566.413 1221H561.933L553.793 1200.48H557.873C558.247 1200.48 558.553 1200.57 558.793 1200.74C559.047 1200.91 559.213 1201.13 559.293 1201.4L563.253 1212.36C563.467 1213 563.653 1213.63 563.813 1214.24C563.973 1214.85 564.113 1215.47 564.233 1216.08C564.367 1215.47 564.513 1214.85 564.673 1214.24C564.833 1213.63 565.027 1213 565.253 1212.36L569.293 1201.4C569.387 1201.13 569.553 1200.91 569.793 1200.74C570.033 1200.57 570.32 1200.48 570.653 1200.48H574.553ZM587.518 1212.24C586.092 1212.31 584.892 1212.43 583.918 1212.62C582.945 1212.79 582.165 1213.02 581.578 1213.3C580.992 1213.58 580.572 1213.91 580.318 1214.28C580.065 1214.65 579.938 1215.06 579.938 1215.5C579.938 1216.37 580.192 1216.99 580.698 1217.36C581.218 1217.73 581.892 1217.92 582.718 1217.92C583.732 1217.92 584.605 1217.74 585.338 1217.38C586.085 1217.01 586.812 1216.45 587.518 1215.7V1212.24ZM576.198 1203.34C578.558 1201.18 581.398 1200.1 584.718 1200.1C585.918 1200.1 586.992 1200.3 587.938 1200.7C588.885 1201.09 589.685 1201.63 590.338 1202.34C590.992 1203.03 591.485 1203.87 591.818 1204.84C592.165 1205.81 592.338 1206.88 592.338 1208.04V1221H590.098C589.632 1221 589.272 1220.93 589.018 1220.8C588.765 1220.65 588.565 1220.37 588.418 1219.94L587.978 1218.46C587.458 1218.93 586.952 1219.34 586.458 1219.7C585.965 1220.05 585.452 1220.34 584.918 1220.58C584.385 1220.82 583.812 1221 583.198 1221.12C582.598 1221.25 581.932 1221.32 581.198 1221.32C580.332 1221.32 579.532 1221.21 578.798 1220.98C578.065 1220.74 577.432 1220.39 576.898 1219.92C576.365 1219.45 575.952 1218.87 575.658 1218.18C575.365 1217.49 575.218 1216.68 575.218 1215.76C575.218 1215.24 575.305 1214.73 575.478 1214.22C575.652 1213.7 575.932 1213.21 576.318 1212.74C576.718 1212.27 577.232 1211.83 577.858 1211.42C578.485 1211.01 579.252 1210.65 580.158 1210.34C581.078 1210.03 582.145 1209.79 583.358 1209.6C584.572 1209.4 585.958 1209.28 587.518 1209.24V1208.04C587.518 1206.67 587.225 1205.65 586.638 1205C586.052 1204.33 585.205 1204 584.098 1204C583.298 1204 582.632 1204.09 582.098 1204.28C581.578 1204.47 581.118 1204.68 580.718 1204.92C580.318 1205.15 579.952 1205.35 579.618 1205.54C579.298 1205.73 578.938 1205.82 578.538 1205.82C578.192 1205.82 577.898 1205.73 577.658 1205.56C577.418 1205.37 577.225 1205.16 577.078 1204.92L576.198 1203.34ZM602.111 1200.48V1221H597.151V1200.48H602.111ZM602.791 1194.5C602.791 1194.93 602.704 1195.33 602.531 1195.7C602.357 1196.07 602.124 1196.4 601.831 1196.68C601.551 1196.96 601.217 1197.19 600.831 1197.36C600.444 1197.52 600.031 1197.6 599.591 1197.6C599.164 1197.6 598.757 1197.52 598.371 1197.36C597.997 1197.19 597.671 1196.96 597.391 1196.68C597.111 1196.4 596.884 1196.07 596.711 1195.7C596.551 1195.33 596.471 1194.93 596.471 1194.5C596.471 1194.06 596.551 1193.65 596.711 1193.26C596.884 1192.87 597.111 1192.54 597.391 1192.26C597.671 1191.98 597.997 1191.76 598.371 1191.6C598.757 1191.43 599.164 1191.34 599.591 1191.34C600.031 1191.34 600.444 1191.43 600.831 1191.6C601.217 1191.76 601.551 1191.98 601.831 1192.26C602.124 1192.54 602.357 1192.87 602.531 1193.26C602.704 1193.65 602.791 1194.06 602.791 1194.5ZM612.147 1191.28V1221H607.207V1191.28H612.147ZM627.909 1212.24C626.482 1212.31 625.282 1212.43 624.309 1212.62C623.336 1212.79 622.556 1213.02 621.969 1213.3C621.382 1213.58 620.962 1213.91 620.709 1214.28C620.456 1214.65 620.329 1215.06 620.329 1215.5C620.329 1216.37 620.582 1216.99 621.089 1217.36C621.609 1217.73 622.282 1217.92 623.109 1217.92C624.122 1217.92 624.996 1217.74 625.729 1217.38C626.476 1217.01 627.202 1216.45 627.909 1215.7V1212.24ZM616.589 1203.34C618.949 1201.18 621.789 1200.1 625.109 1200.1C626.309 1200.1 627.382 1200.3 628.329 1200.7C629.276 1201.09 630.076 1201.63 630.729 1202.34C631.382 1203.03 631.876 1203.87 632.209 1204.84C632.556 1205.81 632.729 1206.88 632.729 1208.04V1221H630.489C630.022 1221 629.662 1220.93 629.409 1220.8C629.156 1220.65 628.956 1220.37 628.809 1219.94L628.369 1218.46C627.849 1218.93 627.342 1219.34 626.849 1219.7C626.356 1220.05 625.842 1220.34 625.309 1220.58C624.776 1220.82 624.202 1221 623.589 1221.12C622.989 1221.25 622.322 1221.32 621.589 1221.32C620.722 1221.32 619.922 1221.21 619.189 1220.98C618.456 1220.74 617.822 1220.39 617.289 1219.92C616.756 1219.45 616.342 1218.87 616.049 1218.18C615.756 1217.49 615.609 1216.68 615.609 1215.76C615.609 1215.24 615.696 1214.73 615.869 1214.22C616.042 1213.7 616.322 1213.21 616.709 1212.74C617.109 1212.27 617.622 1211.83 618.249 1211.42C618.876 1211.01 619.642 1210.65 620.549 1210.34C621.469 1210.03 622.536 1209.79 623.749 1209.6C624.962 1209.4 626.349 1209.28 627.909 1209.24V1208.04C627.909 1206.67 627.616 1205.65 627.029 1205C626.442 1204.33 625.596 1204 624.489 1204C623.689 1204 623.022 1204.09 622.489 1204.28C621.969 1204.47 621.509 1204.68 621.109 1204.92C620.709 1205.15 620.342 1205.35 620.009 1205.54C619.689 1205.73 619.329 1205.82 618.929 1205.82C618.582 1205.82 618.289 1205.73 618.049 1205.56C617.809 1205.37 617.616 1205.16 617.469 1204.92L616.589 1203.34ZM642.321 1215.68C642.881 1216.36 643.488 1216.84 644.141 1217.12C644.808 1217.4 645.508 1217.54 646.241 1217.54C647.001 1217.54 647.681 1217.41 648.281 1217.14C648.895 1216.86 649.415 1216.43 649.841 1215.86C650.268 1215.27 650.595 1214.53 650.821 1213.64C651.048 1212.73 651.161 1211.65 651.161 1210.4C651.161 1208.15 650.788 1206.52 650.041 1205.52C649.295 1204.51 648.221 1204 646.821 1204C645.875 1204 645.048 1204.22 644.341 1204.66C643.635 1205.09 642.961 1205.69 642.321 1206.48V1215.68ZM642.321 1203C643.148 1202.13 644.061 1201.45 645.061 1200.94C646.075 1200.42 647.228 1200.16 648.521 1200.16C649.708 1200.16 650.775 1200.39 651.721 1200.86C652.681 1201.33 653.495 1202 654.161 1202.88C654.841 1203.75 655.361 1204.8 655.721 1206.04C656.081 1207.28 656.261 1208.67 656.261 1210.22C656.261 1211.89 656.055 1213.4 655.641 1214.76C655.228 1216.12 654.635 1217.29 653.861 1218.26C653.101 1219.22 652.181 1219.97 651.101 1220.5C650.021 1221.03 648.821 1221.3 647.501 1221.3C646.861 1221.3 646.281 1221.23 645.761 1221.1C645.241 1220.98 644.761 1220.81 644.321 1220.58C643.881 1220.35 643.475 1220.08 643.101 1219.76C642.741 1219.43 642.395 1219.06 642.061 1218.66L641.841 1220.04C641.761 1220.39 641.621 1220.63 641.421 1220.78C641.235 1220.93 640.975 1221 640.641 1221H637.381V1191.28H642.321V1203ZM665.077 1191.28V1221H660.137V1191.28H665.077ZM683.219 1208.38C683.219 1207.74 683.125 1207.14 682.939 1206.58C682.765 1206.01 682.499 1205.51 682.139 1205.08C681.779 1204.65 681.319 1204.32 680.759 1204.08C680.212 1203.83 679.572 1203.7 678.839 1203.7C677.412 1203.7 676.285 1204.11 675.459 1204.92C674.645 1205.73 674.125 1206.89 673.899 1208.38H683.219ZM673.799 1211.36C673.879 1212.41 674.065 1213.33 674.359 1214.1C674.652 1214.86 675.039 1215.49 675.519 1216C675.999 1216.49 676.565 1216.87 677.219 1217.12C677.885 1217.36 678.619 1217.48 679.419 1217.48C680.219 1217.48 680.905 1217.39 681.479 1217.2C682.065 1217.01 682.572 1216.81 682.999 1216.58C683.439 1216.35 683.819 1216.15 684.139 1215.96C684.472 1215.77 684.792 1215.68 685.099 1215.68C685.512 1215.68 685.819 1215.83 686.019 1216.14L687.439 1217.94C686.892 1218.58 686.279 1219.12 685.599 1219.56C684.919 1219.99 684.205 1220.33 683.459 1220.6C682.725 1220.85 681.972 1221.03 681.199 1221.14C680.439 1221.25 679.699 1221.3 678.979 1221.3C677.552 1221.3 676.225 1221.07 674.999 1220.6C673.772 1220.12 672.705 1219.42 671.799 1218.5C670.892 1217.57 670.179 1216.42 669.659 1215.06C669.139 1213.69 668.879 1212.1 668.879 1210.3C668.879 1208.9 669.105 1207.59 669.559 1206.36C670.012 1205.12 670.659 1204.05 671.499 1203.14C672.352 1202.22 673.385 1201.49 674.599 1200.96C675.825 1200.43 677.205 1200.16 678.739 1200.16C680.032 1200.16 681.225 1200.37 682.319 1200.78C683.412 1201.19 684.352 1201.8 685.139 1202.6C685.925 1203.39 686.539 1204.36 686.979 1205.52C687.432 1206.67 687.659 1207.98 687.659 1209.46C687.659 1210.21 687.579 1210.71 687.419 1210.98C687.259 1211.23 686.952 1211.36 686.499 1211.36H673.799ZM712.691 1209.8V1221H707.331V1209.8L696.791 1192.08H701.531C701.997 1192.08 702.364 1192.19 702.631 1192.42C702.911 1192.65 703.144 1192.93 703.331 1193.28L708.611 1202.94C708.917 1203.51 709.184 1204.05 709.411 1204.56C709.651 1205.07 709.864 1205.57 710.051 1206.08C710.224 1205.57 710.424 1205.07 710.651 1204.56C710.877 1204.05 711.137 1203.51 711.431 1202.94L716.691 1193.28C716.837 1192.99 717.057 1192.71 717.351 1192.46C717.644 1192.21 718.017 1192.08 718.471 1192.08H723.231L712.691 1209.8ZM734.117 1208.38C734.117 1207.74 734.024 1207.14 733.837 1206.58C733.664 1206.01 733.397 1205.51 733.037 1205.08C732.677 1204.65 732.217 1204.32 731.657 1204.08C731.11 1203.83 730.47 1203.7 729.737 1203.7C728.31 1203.7 727.184 1204.11 726.357 1204.92C725.544 1205.73 725.024 1206.89 724.797 1208.38H734.117ZM724.697 1211.36C724.777 1212.41 724.964 1213.33 725.257 1214.1C725.55 1214.86 725.937 1215.49 726.417 1216C726.897 1216.49 727.464 1216.87 728.117 1217.12C728.784 1217.36 729.517 1217.48 730.317 1217.48C731.117 1217.48 731.804 1217.39 732.377 1217.2C732.964 1217.01 733.47 1216.81 733.897 1216.58C734.337 1216.35 734.717 1216.15 735.037 1215.96C735.37 1215.77 735.69 1215.68 735.997 1215.68C736.41 1215.68 736.717 1215.83 736.917 1216.14L738.337 1217.94C737.79 1218.58 737.177 1219.12 736.497 1219.56C735.817 1219.99 735.104 1220.33 734.357 1220.6C733.624 1220.85 732.87 1221.03 732.097 1221.14C731.337 1221.25 730.597 1221.3 729.877 1221.3C728.45 1221.3 727.124 1221.07 725.897 1220.6C724.67 1220.12 723.604 1219.42 722.697 1218.5C721.79 1217.57 721.077 1216.42 720.557 1215.06C720.037 1213.69 719.777 1212.1 719.777 1210.3C719.777 1208.9 720.004 1207.59 720.457 1206.36C720.91 1205.12 721.557 1204.05 722.397 1203.14C723.25 1202.22 724.284 1201.49 725.497 1200.96C726.724 1200.43 728.104 1200.16 729.637 1200.16C730.93 1200.16 732.124 1200.37 733.217 1200.78C734.31 1201.19 735.25 1201.8 736.037 1202.6C736.824 1203.39 737.437 1204.36 737.877 1205.52C738.33 1206.67 738.557 1207.98 738.557 1209.46C738.557 1210.21 738.477 1210.71 738.317 1210.98C738.157 1211.23 737.85 1211.36 737.397 1211.36H724.697ZM748.909 1221.32C747.122 1221.32 745.749 1220.82 744.789 1219.82C743.842 1218.81 743.369 1217.41 743.369 1215.64V1204.18H741.269C741.002 1204.18 740.776 1204.09 740.589 1203.92C740.402 1203.75 740.309 1203.49 740.309 1203.14V1201.18L743.609 1200.64L744.649 1195.04C744.716 1194.77 744.842 1194.57 745.029 1194.42C745.216 1194.27 745.456 1194.2 745.749 1194.2H748.309V1200.66H753.789V1204.18H748.309V1215.3C748.309 1215.94 748.462 1216.44 748.769 1216.8C749.089 1217.16 749.522 1217.34 750.069 1217.34C750.376 1217.34 750.629 1217.31 750.829 1217.24C751.042 1217.16 751.222 1217.08 751.369 1217C751.529 1216.92 751.669 1216.85 751.789 1216.78C751.909 1216.7 752.029 1216.66 752.149 1216.66C752.296 1216.66 752.416 1216.7 752.509 1216.78C752.602 1216.85 752.702 1216.95 752.809 1217.1L754.289 1219.5C753.569 1220.1 752.742 1220.55 751.809 1220.86C750.876 1221.17 749.909 1221.32 748.909 1221.32ZM756.232 1218.28C756.232 1217.87 756.305 1217.47 756.452 1217.1C756.612 1216.73 756.825 1216.41 757.092 1216.14C757.358 1215.87 757.678 1215.66 758.052 1215.5C758.425 1215.34 758.825 1215.26 759.252 1215.26C759.678 1215.26 760.072 1215.34 760.432 1215.5C760.805 1215.66 761.125 1215.87 761.392 1216.14C761.672 1216.41 761.892 1216.73 762.052 1217.1C762.212 1217.47 762.292 1217.87 762.292 1218.28C762.292 1218.71 762.212 1219.11 762.052 1219.48C761.892 1219.84 761.672 1220.15 761.392 1220.42C761.125 1220.69 760.805 1220.89 760.432 1221.04C760.072 1221.2 759.678 1221.28 759.252 1221.28C758.825 1221.28 758.425 1221.2 758.052 1221.04C757.678 1220.89 757.358 1220.69 757.092 1220.42C756.825 1220.15 756.612 1219.84 756.452 1219.48C756.305 1219.11 756.232 1218.71 756.232 1218.28Z" fill="#939090"/>
<path d="M372.925 1279L367.607 1261.55H370.425L374.197 1274.91H374.379L378.107 1261.55H380.97L384.652 1274.86H384.834L388.607 1261.55H391.425L386.107 1279H383.47L379.652 1265.59H379.379L375.561 1279H372.925ZM401.695 1279.36C400.013 1279.36 398.562 1278.99 397.342 1278.25C396.13 1277.5 395.195 1276.45 394.536 1275.11C393.884 1273.77 393.558 1272.2 393.558 1270.41C393.558 1268.62 393.884 1267.05 394.536 1265.68C395.195 1264.31 396.111 1263.24 397.286 1262.48C398.467 1261.7 399.846 1261.32 401.422 1261.32C402.331 1261.32 403.229 1261.47 404.115 1261.77C405.001 1262.08 405.808 1262.57 406.536 1263.25C407.263 1263.92 407.842 1264.82 408.274 1265.93C408.706 1267.05 408.922 1268.42 408.922 1270.05V1271.18H395.467V1268.86H406.195C406.195 1267.88 405.998 1267 405.604 1266.23C405.217 1265.45 404.664 1264.84 403.945 1264.4C403.232 1263.95 402.392 1263.73 401.422 1263.73C400.354 1263.73 399.429 1263.99 398.649 1264.52C397.876 1265.05 397.282 1265.73 396.865 1266.57C396.448 1267.41 396.24 1268.31 396.24 1269.27V1270.82C396.24 1272.14 396.467 1273.25 396.922 1274.17C397.384 1275.08 398.024 1275.77 398.842 1276.25C399.661 1276.72 400.611 1276.95 401.695 1276.95C402.399 1276.95 403.036 1276.86 403.604 1276.66C404.179 1276.45 404.676 1276.15 405.092 1275.75C405.509 1275.34 405.831 1274.83 406.058 1274.23L408.649 1274.95C408.376 1275.83 407.918 1276.61 407.274 1277.27C406.63 1277.93 405.835 1278.45 404.888 1278.82C403.941 1279.18 402.876 1279.36 401.695 1279.36ZM429.092 1279.36C427.456 1279.36 426.047 1278.98 424.865 1278.2C423.683 1277.43 422.774 1276.37 422.138 1275.01C421.501 1273.66 421.183 1272.11 421.183 1270.36C421.183 1268.59 421.509 1267.03 422.161 1265.67C422.82 1264.31 423.736 1263.24 424.911 1262.48C426.092 1261.7 427.471 1261.32 429.047 1261.32C430.274 1261.32 431.38 1261.55 432.365 1262C433.35 1262.45 434.157 1263.09 434.786 1263.91C435.414 1264.73 435.804 1265.68 435.956 1266.77H433.274C433.07 1265.98 432.615 1265.27 431.911 1264.66C431.214 1264.04 430.274 1263.73 429.092 1263.73C428.047 1263.73 427.13 1264 426.342 1264.55C425.562 1265.08 424.952 1265.84 424.513 1266.83C424.081 1267.81 423.865 1268.95 423.865 1270.27C423.865 1271.62 424.077 1272.8 424.501 1273.8C424.933 1274.8 425.539 1275.57 426.32 1276.12C427.107 1276.68 428.032 1276.95 429.092 1276.95C429.789 1276.95 430.422 1276.83 430.99 1276.59C431.558 1276.35 432.039 1276 432.433 1275.55C432.827 1275.09 433.107 1274.55 433.274 1273.91H435.956C435.804 1274.94 435.429 1275.87 434.831 1276.69C434.24 1277.51 433.456 1278.16 432.479 1278.65C431.509 1279.12 430.38 1279.36 429.092 1279.36ZM450.876 1271.86V1261.55H453.558V1279H450.876V1276.05H450.695C450.286 1276.93 449.649 1277.69 448.786 1278.31C447.922 1278.92 446.831 1279.23 445.513 1279.23C444.422 1279.23 443.452 1278.99 442.604 1278.51C441.755 1278.03 441.089 1277.3 440.604 1276.33C440.119 1275.35 439.876 1274.12 439.876 1272.64V1261.55H442.558V1272.45C442.558 1273.73 442.914 1274.74 443.626 1275.5C444.346 1276.26 445.263 1276.64 446.376 1276.64C447.043 1276.64 447.721 1276.47 448.411 1276.12C449.107 1275.78 449.691 1275.26 450.161 1274.56C450.638 1273.85 450.876 1272.95 450.876 1271.86ZM458.47 1279V1261.55H461.061V1264.18H461.243C461.561 1263.32 462.137 1262.62 462.97 1262.08C463.804 1261.54 464.743 1261.27 465.788 1261.27C465.985 1261.27 466.232 1261.28 466.527 1261.28C466.822 1261.29 467.046 1261.3 467.197 1261.32V1264.05C467.107 1264.02 466.898 1263.99 466.572 1263.94C466.254 1263.89 465.917 1263.86 465.561 1263.86C464.713 1263.86 463.955 1264.04 463.288 1264.4C462.629 1264.75 462.107 1265.23 461.72 1265.85C461.341 1266.47 461.152 1267.17 461.152 1267.95V1279H458.47ZM470.376 1279V1261.55H472.967V1264.18H473.149C473.467 1263.32 474.043 1262.62 474.876 1262.08C475.71 1261.54 476.649 1261.27 477.695 1261.27C477.892 1261.27 478.138 1261.28 478.433 1261.28C478.729 1261.29 478.952 1261.3 479.104 1261.32V1264.05C479.013 1264.02 478.804 1263.99 478.479 1263.94C478.161 1263.89 477.823 1263.86 477.467 1263.86C476.619 1263.86 475.861 1264.04 475.195 1264.4C474.536 1264.75 474.013 1265.23 473.626 1265.85C473.248 1266.47 473.058 1267.17 473.058 1267.95V1279H470.376ZM489.07 1279.36C487.388 1279.36 485.937 1278.99 484.717 1278.25C483.505 1277.5 482.57 1276.45 481.911 1275.11C481.259 1273.77 480.933 1272.2 480.933 1270.41C480.933 1268.62 481.259 1267.05 481.911 1265.68C482.57 1264.31 483.486 1263.24 484.661 1262.48C485.842 1261.7 487.221 1261.32 488.797 1261.32C489.706 1261.32 490.604 1261.47 491.49 1261.77C492.376 1262.08 493.183 1262.57 493.911 1263.25C494.638 1263.92 495.217 1264.82 495.649 1265.93C496.081 1267.05 496.297 1268.42 496.297 1270.05V1271.18H482.842V1268.86H493.57C493.57 1267.88 493.373 1267 492.979 1266.23C492.592 1265.45 492.039 1264.84 491.32 1264.4C490.607 1263.95 489.767 1263.73 488.797 1263.73C487.729 1263.73 486.804 1263.99 486.024 1264.52C485.251 1265.05 484.657 1265.73 484.24 1266.57C483.823 1267.41 483.615 1268.31 483.615 1269.27V1270.82C483.615 1272.14 483.842 1273.25 484.297 1274.17C484.759 1275.08 485.399 1275.77 486.217 1276.25C487.036 1276.72 487.986 1276.95 489.07 1276.95C489.774 1276.95 490.411 1276.86 490.979 1276.66C491.554 1276.45 492.051 1276.15 492.467 1275.75C492.884 1275.34 493.206 1274.83 493.433 1274.23L496.024 1274.95C495.751 1275.83 495.293 1276.61 494.649 1277.27C494.005 1277.93 493.21 1278.45 492.263 1278.82C491.316 1279.18 490.251 1279.36 489.07 1279.36ZM503.058 1268.5V1279H500.376V1261.55H502.967V1264.27H503.195C503.604 1263.39 504.225 1262.67 505.058 1262.14C505.892 1261.59 506.967 1261.32 508.286 1261.32C509.467 1261.32 510.501 1261.56 511.388 1262.05C512.274 1262.52 512.964 1263.25 513.456 1264.23C513.948 1265.2 514.195 1266.42 514.195 1267.91V1279H511.513V1268.09C511.513 1266.72 511.157 1265.65 510.445 1264.89C509.732 1264.11 508.755 1263.73 507.513 1263.73C506.657 1263.73 505.892 1263.91 505.217 1264.28C504.551 1264.66 504.024 1265.2 503.638 1265.91C503.251 1266.62 503.058 1267.48 503.058 1268.5ZM526.686 1261.55V1263.82H517.641V1261.55H526.686ZM520.277 1257.36H522.959V1274C522.959 1274.76 523.069 1275.33 523.288 1275.7C523.516 1276.08 523.804 1276.33 524.152 1276.45C524.508 1276.58 524.883 1276.64 525.277 1276.64C525.572 1276.64 525.815 1276.62 526.004 1276.59C526.194 1276.55 526.345 1276.52 526.459 1276.5L527.004 1278.91C526.822 1278.98 526.569 1279.05 526.243 1279.11C525.917 1279.19 525.504 1279.23 525.004 1279.23C524.247 1279.23 523.504 1279.06 522.777 1278.74C522.057 1278.41 521.459 1277.92 520.982 1277.25C520.512 1276.58 520.277 1275.74 520.277 1274.73V1257.36ZM533.777 1255.73V1279H531.095V1255.73H533.777ZM540.416 1285.55C539.962 1285.55 539.556 1285.51 539.2 1285.43C538.844 1285.36 538.598 1285.3 538.462 1285.23L539.143 1282.86C539.795 1283.03 540.371 1283.09 540.871 1283.05C541.371 1283 541.814 1282.78 542.2 1282.38C542.594 1281.98 542.954 1281.34 543.28 1280.45L543.78 1279.09L537.325 1261.55H540.234L545.053 1275.45H545.234L550.053 1261.55H552.962L545.553 1281.55C545.219 1282.45 544.806 1283.19 544.314 1283.78C543.821 1284.38 543.25 1284.83 542.598 1285.11C541.954 1285.4 541.227 1285.55 540.416 1285.55ZM572.092 1279.36C570.638 1279.36 569.354 1279 568.24 1278.26C567.126 1277.52 566.255 1276.47 565.626 1275.12C564.998 1273.77 564.683 1272.17 564.683 1270.32C564.683 1268.48 564.998 1266.89 565.626 1265.55C566.255 1264.2 567.13 1263.16 568.251 1262.42C569.373 1261.69 570.668 1261.32 572.138 1261.32C573.274 1261.32 574.172 1261.51 574.831 1261.89C575.498 1262.26 576.005 1262.68 576.354 1263.16C576.71 1263.63 576.986 1264.02 577.183 1264.32H577.411V1255.73H580.092V1279H577.501V1276.32H577.183C576.986 1276.64 576.706 1277.04 576.342 1277.52C575.979 1278 575.46 1278.43 574.786 1278.81C574.111 1279.18 573.214 1279.36 572.092 1279.36ZM572.456 1276.95C573.532 1276.95 574.441 1276.67 575.183 1276.11C575.926 1275.55 576.49 1274.76 576.876 1273.76C577.263 1272.75 577.456 1271.59 577.456 1270.27C577.456 1268.97 577.267 1267.83 576.888 1266.85C576.509 1265.87 575.948 1265.1 575.206 1264.56C574.464 1264 573.547 1263.73 572.456 1263.73C571.32 1263.73 570.373 1264.02 569.615 1264.6C568.865 1265.18 568.301 1265.96 567.922 1266.95C567.551 1267.94 567.365 1269.05 567.365 1270.27C567.365 1271.52 567.554 1272.64 567.933 1273.66C568.32 1274.67 568.888 1275.47 569.638 1276.07C570.395 1276.66 571.335 1276.95 572.456 1276.95ZM592.467 1279.36C590.892 1279.36 589.509 1278.99 588.32 1278.24C587.138 1277.49 586.214 1276.44 585.547 1275.09C584.888 1273.74 584.558 1272.17 584.558 1270.36C584.558 1268.55 584.888 1266.96 585.547 1265.6C586.214 1264.25 587.138 1263.19 588.32 1262.44C589.509 1261.69 590.892 1261.32 592.467 1261.32C594.043 1261.32 595.422 1261.69 596.604 1262.44C597.793 1263.19 598.717 1264.25 599.376 1265.6C600.043 1266.96 600.376 1268.55 600.376 1270.36C600.376 1272.17 600.043 1273.74 599.376 1275.09C598.717 1276.44 597.793 1277.49 596.604 1278.24C595.422 1278.99 594.043 1279.36 592.467 1279.36ZM592.467 1276.95C593.664 1276.95 594.649 1276.65 595.422 1276.03C596.195 1275.42 596.767 1274.61 597.138 1273.61C597.509 1272.61 597.695 1271.53 597.695 1270.36C597.695 1269.2 597.509 1268.11 597.138 1267.1C596.767 1266.09 596.195 1265.28 595.422 1264.66C594.649 1264.04 593.664 1263.73 592.467 1263.73C591.27 1263.73 590.286 1264.04 589.513 1264.66C588.74 1265.28 588.168 1266.09 587.797 1267.1C587.426 1268.11 587.24 1269.2 587.24 1270.36C587.24 1271.53 587.426 1272.61 587.797 1273.61C588.168 1274.61 588.74 1275.42 589.513 1276.03C590.286 1276.65 591.27 1276.95 592.467 1276.95ZM607.152 1268.5V1279H604.47V1261.55H607.061V1264.27H607.288C607.697 1263.39 608.319 1262.67 609.152 1262.14C609.985 1261.59 611.061 1261.32 612.379 1261.32C613.561 1261.32 614.595 1261.56 615.482 1262.05C616.368 1262.52 617.057 1263.25 617.55 1264.23C618.042 1265.2 618.288 1266.42 618.288 1267.91V1279H615.607V1268.09C615.607 1266.72 615.25 1265.65 614.538 1264.89C613.826 1264.11 612.849 1263.73 611.607 1263.73C610.75 1263.73 609.985 1263.91 609.311 1264.28C608.644 1264.66 608.118 1265.2 607.732 1265.91C607.345 1266.62 607.152 1267.48 607.152 1268.5ZM630.78 1261.55V1263.82H621.734V1261.55H630.78ZM624.371 1257.36H627.053V1274C627.053 1274.76 627.162 1275.33 627.382 1275.7C627.609 1276.08 627.897 1276.33 628.246 1276.45C628.602 1276.58 628.977 1276.64 629.371 1276.64C629.666 1276.64 629.909 1276.62 630.098 1276.59C630.287 1276.55 630.439 1276.52 630.553 1276.5L631.098 1278.91C630.916 1278.98 630.662 1279.05 630.337 1279.11C630.011 1279.19 629.598 1279.23 629.098 1279.23C628.34 1279.23 627.598 1279.06 626.871 1278.74C626.151 1278.41 625.553 1277.92 625.075 1277.25C624.606 1276.58 624.371 1275.74 624.371 1274.73V1257.36ZM646.496 1268.5V1279H643.814V1255.73H646.496V1264.27H646.723C647.132 1263.37 647.746 1262.66 648.564 1262.12C649.39 1261.59 650.488 1261.32 651.859 1261.32C653.049 1261.32 654.09 1261.56 654.984 1262.03C655.878 1262.5 656.571 1263.23 657.064 1264.2C657.564 1265.17 657.814 1266.41 657.814 1267.91V1279H655.132V1268.09C655.132 1266.7 654.772 1265.63 654.053 1264.88C653.34 1264.11 652.352 1263.73 651.087 1263.73C650.208 1263.73 649.42 1263.91 648.723 1264.28C648.034 1264.66 647.488 1265.2 647.087 1265.91C646.693 1266.62 646.496 1267.48 646.496 1268.5ZM667.857 1279.41C666.75 1279.41 665.747 1279.2 664.845 1278.78C663.944 1278.36 663.228 1277.75 662.697 1276.95C662.167 1276.15 661.902 1275.18 661.902 1274.05C661.902 1273.05 662.099 1272.23 662.493 1271.61C662.887 1270.98 663.413 1270.49 664.072 1270.14C664.732 1269.78 665.459 1269.52 666.254 1269.34C667.057 1269.16 667.864 1269.02 668.675 1268.91C669.735 1268.77 670.595 1268.67 671.254 1268.6C671.921 1268.53 672.406 1268.4 672.709 1268.23C673.019 1268.05 673.175 1267.75 673.175 1267.32V1267.23C673.175 1266.11 672.868 1265.23 672.254 1264.61C671.648 1263.99 670.728 1263.68 669.493 1263.68C668.213 1263.68 667.209 1263.96 666.482 1264.52C665.754 1265.08 665.243 1265.68 664.947 1266.32L662.402 1265.41C662.857 1264.35 663.463 1263.52 664.22 1262.93C664.985 1262.33 665.819 1261.92 666.72 1261.68C667.629 1261.44 668.523 1261.32 669.402 1261.32C669.963 1261.32 670.607 1261.39 671.334 1261.52C672.069 1261.65 672.777 1261.92 673.459 1262.33C674.148 1262.74 674.72 1263.36 675.175 1264.18C675.629 1265.01 675.857 1266.11 675.857 1267.5V1279H673.175V1276.64H673.038C672.857 1277.02 672.554 1277.42 672.129 1277.85C671.705 1278.28 671.141 1278.65 670.436 1278.95C669.732 1279.26 668.872 1279.41 667.857 1279.41ZM668.266 1277C669.326 1277 670.22 1276.79 670.947 1276.38C671.682 1275.96 672.235 1275.42 672.607 1274.76C672.985 1274.1 673.175 1273.41 673.175 1272.68V1270.23C673.061 1270.36 672.811 1270.49 672.425 1270.6C672.046 1270.71 671.607 1270.8 671.107 1270.89C670.614 1270.96 670.133 1271.03 669.663 1271.09C669.201 1271.14 668.826 1271.19 668.538 1271.23C667.841 1271.32 667.19 1271.47 666.584 1271.67C665.985 1271.87 665.5 1272.17 665.129 1272.57C664.766 1272.96 664.584 1273.5 664.584 1274.18C664.584 1275.11 664.929 1275.82 665.618 1276.3C666.315 1276.77 667.197 1277 668.266 1277ZM694.399 1261.55L687.945 1279H685.217L678.763 1261.55H681.672L686.49 1275.45H686.672L691.49 1261.55H694.399ZM704.632 1279.36C702.95 1279.36 701.5 1278.99 700.28 1278.25C699.068 1277.5 698.132 1276.45 697.473 1275.11C696.821 1273.77 696.496 1272.2 696.496 1270.41C696.496 1268.62 696.821 1267.05 697.473 1265.68C698.132 1264.31 699.049 1263.24 700.223 1262.48C701.405 1261.7 702.784 1261.32 704.359 1261.32C705.268 1261.32 706.166 1261.47 707.053 1261.77C707.939 1262.08 708.746 1262.57 709.473 1263.25C710.2 1263.92 710.78 1264.82 711.212 1265.93C711.643 1267.05 711.859 1268.42 711.859 1270.05V1271.18H698.405V1268.86H709.132C709.132 1267.88 708.935 1267 708.541 1266.23C708.155 1265.45 707.602 1264.84 706.882 1264.4C706.17 1263.95 705.329 1263.73 704.359 1263.73C703.291 1263.73 702.367 1263.99 701.587 1264.52C700.814 1265.05 700.219 1265.73 699.803 1266.57C699.386 1267.41 699.178 1268.31 699.178 1269.27V1270.82C699.178 1272.14 699.405 1273.25 699.859 1274.17C700.321 1275.08 700.962 1275.77 701.78 1276.25C702.598 1276.72 703.549 1276.95 704.632 1276.95C705.337 1276.95 705.973 1276.86 706.541 1276.66C707.117 1276.45 707.613 1276.15 708.03 1275.75C708.446 1275.34 708.768 1274.83 708.996 1274.23L711.587 1274.95C711.314 1275.83 710.856 1276.61 710.212 1277.27C709.568 1277.93 708.772 1278.45 707.825 1278.82C706.878 1279.18 705.814 1279.36 704.632 1279.36ZM458.795 1318.36C457.159 1318.36 455.75 1317.98 454.568 1317.2C453.386 1316.43 452.477 1315.37 451.841 1314.01C451.205 1312.66 450.886 1311.11 450.886 1309.36C450.886 1307.59 451.212 1306.03 451.864 1304.67C452.523 1303.31 453.439 1302.24 454.614 1301.48C455.795 1300.7 457.174 1300.32 458.75 1300.32C459.977 1300.32 461.083 1300.55 462.068 1301C463.053 1301.45 463.86 1302.09 464.489 1302.91C465.117 1303.73 465.508 1304.68 465.659 1305.77H462.977C462.773 1304.98 462.318 1304.27 461.614 1303.66C460.917 1303.04 459.977 1302.73 458.795 1302.73C457.75 1302.73 456.833 1303 456.045 1303.55C455.265 1304.08 454.655 1304.84 454.216 1305.83C453.784 1306.81 453.568 1307.95 453.568 1309.27C453.568 1310.62 453.78 1311.8 454.205 1312.8C454.636 1313.8 455.242 1314.57 456.023 1315.12C456.811 1315.68 457.735 1315.95 458.795 1315.95C459.492 1315.95 460.125 1315.83 460.693 1315.59C461.261 1315.35 461.742 1315 462.136 1314.55C462.53 1314.09 462.811 1313.55 462.977 1312.91H465.659C465.508 1313.94 465.133 1314.87 464.534 1315.69C463.943 1316.51 463.159 1317.16 462.182 1317.65C461.212 1318.12 460.083 1318.36 458.795 1318.36ZM469.58 1318V1300.55H472.17V1303.18H472.352C472.67 1302.32 473.246 1301.62 474.08 1301.08C474.913 1300.54 475.852 1300.27 476.898 1300.27C477.095 1300.27 477.341 1300.28 477.636 1300.28C477.932 1300.29 478.155 1300.3 478.307 1300.32V1303.05C478.216 1303.02 478.008 1302.99 477.682 1302.94C477.364 1302.89 477.027 1302.86 476.67 1302.86C475.822 1302.86 475.064 1303.04 474.398 1303.4C473.739 1303.75 473.216 1304.23 472.83 1304.85C472.451 1305.47 472.261 1306.17 472.261 1306.95V1318H469.58ZM488.273 1318.36C486.591 1318.36 485.14 1317.99 483.92 1317.25C482.708 1316.5 481.773 1315.45 481.114 1314.11C480.462 1312.77 480.136 1311.2 480.136 1309.41C480.136 1307.62 480.462 1306.05 481.114 1304.68C481.773 1303.31 482.689 1302.24 483.864 1301.48C485.045 1300.7 486.424 1300.32 488 1300.32C488.909 1300.32 489.807 1300.47 490.693 1300.77C491.58 1301.08 492.386 1301.57 493.114 1302.25C493.841 1302.92 494.42 1303.82 494.852 1304.93C495.284 1306.05 495.5 1307.42 495.5 1309.05V1310.18H482.045V1307.86H492.773C492.773 1306.88 492.576 1306 492.182 1305.23C491.795 1304.45 491.242 1303.84 490.523 1303.4C489.811 1302.95 488.97 1302.73 488 1302.73C486.932 1302.73 486.008 1302.99 485.227 1303.52C484.455 1304.05 483.86 1304.73 483.443 1305.57C483.027 1306.41 482.818 1307.31 482.818 1308.27V1309.82C482.818 1311.14 483.045 1312.25 483.5 1313.17C483.962 1314.08 484.602 1314.77 485.42 1315.25C486.239 1315.72 487.189 1315.95 488.273 1315.95C488.977 1315.95 489.614 1315.86 490.182 1315.66C490.758 1315.45 491.254 1315.15 491.67 1314.75C492.087 1314.34 492.409 1313.83 492.636 1313.23L495.227 1313.95C494.955 1314.83 494.496 1315.61 493.852 1316.27C493.208 1316.93 492.413 1317.45 491.466 1317.82C490.519 1318.18 489.455 1318.36 488.273 1318.36ZM504.716 1318.41C503.61 1318.41 502.606 1318.2 501.705 1317.78C500.803 1317.36 500.087 1316.75 499.557 1315.95C499.027 1315.15 498.761 1314.18 498.761 1313.05C498.761 1312.05 498.958 1311.23 499.352 1310.61C499.746 1309.98 500.273 1309.49 500.932 1309.14C501.591 1308.78 502.318 1308.52 503.114 1308.34C503.917 1308.16 504.723 1308.02 505.534 1307.91C506.595 1307.77 507.455 1307.67 508.114 1307.6C508.78 1307.53 509.265 1307.4 509.568 1307.23C509.879 1307.05 510.034 1306.75 510.034 1306.32V1306.23C510.034 1305.11 509.727 1304.23 509.114 1303.61C508.508 1302.99 507.587 1302.68 506.352 1302.68C505.072 1302.68 504.068 1302.96 503.341 1303.52C502.614 1304.08 502.102 1304.68 501.807 1305.32L499.261 1304.41C499.716 1303.35 500.322 1302.52 501.08 1301.93C501.845 1301.33 502.678 1300.92 503.58 1300.68C504.489 1300.44 505.383 1300.32 506.261 1300.32C506.822 1300.32 507.466 1300.39 508.193 1300.52C508.928 1300.65 509.636 1300.92 510.318 1301.33C511.008 1301.74 511.58 1302.36 512.034 1303.18C512.489 1304.01 512.716 1305.11 512.716 1306.5V1318H510.034V1315.64H509.898C509.716 1316.02 509.413 1316.42 508.989 1316.85C508.564 1317.28 508 1317.65 507.295 1317.95C506.591 1318.26 505.731 1318.41 504.716 1318.41ZM505.125 1316C506.186 1316 507.08 1315.79 507.807 1315.38C508.542 1314.96 509.095 1314.42 509.466 1313.76C509.845 1313.1 510.034 1312.41 510.034 1311.68V1309.23C509.92 1309.36 509.67 1309.49 509.284 1309.6C508.905 1309.71 508.466 1309.8 507.966 1309.89C507.473 1309.96 506.992 1310.03 506.523 1310.09C506.061 1310.14 505.686 1310.19 505.398 1310.23C504.701 1310.32 504.049 1310.47 503.443 1310.67C502.845 1310.87 502.36 1311.17 501.989 1311.57C501.625 1311.96 501.443 1312.5 501.443 1313.18C501.443 1314.11 501.788 1314.82 502.477 1315.3C503.174 1315.77 504.057 1316 505.125 1316ZM525.202 1300.55V1302.82H516.156V1300.55H525.202ZM518.793 1296.36H521.474V1313C521.474 1313.76 521.584 1314.33 521.804 1314.7C522.031 1315.08 522.319 1315.33 522.668 1315.45C523.024 1315.58 523.399 1315.64 523.793 1315.64C524.088 1315.64 524.33 1315.62 524.52 1315.59C524.709 1315.55 524.861 1315.52 524.974 1315.5L525.52 1317.91C525.338 1317.98 525.084 1318.05 524.759 1318.11C524.433 1318.19 524.02 1318.23 523.52 1318.23C522.762 1318.23 522.02 1318.06 521.293 1317.74C520.573 1317.41 519.974 1316.92 519.497 1316.25C519.027 1315.58 518.793 1314.74 518.793 1313.73V1296.36ZM536.139 1318.36C534.563 1318.36 533.181 1317.99 531.991 1317.24C530.81 1316.49 529.885 1315.44 529.219 1314.09C528.56 1312.74 528.23 1311.17 528.23 1309.36C528.23 1307.55 528.56 1305.96 529.219 1304.6C529.885 1303.25 530.81 1302.19 531.991 1301.44C533.181 1300.69 534.563 1300.32 536.139 1300.32C537.715 1300.32 539.094 1300.69 540.276 1301.44C541.465 1302.19 542.389 1303.25 543.048 1304.6C543.715 1305.96 544.048 1307.55 544.048 1309.36C544.048 1311.17 543.715 1312.74 543.048 1314.09C542.389 1315.44 541.465 1316.49 540.276 1317.24C539.094 1317.99 537.715 1318.36 536.139 1318.36ZM536.139 1315.95C537.336 1315.95 538.321 1315.65 539.094 1315.03C539.866 1314.42 540.438 1313.61 540.81 1312.61C541.181 1311.61 541.366 1310.53 541.366 1309.36C541.366 1308.2 541.181 1307.11 540.81 1306.1C540.438 1305.09 539.866 1304.28 539.094 1303.66C538.321 1303.04 537.336 1302.73 536.139 1302.73C534.942 1302.73 533.957 1303.04 533.185 1303.66C532.412 1304.28 531.84 1305.09 531.469 1306.1C531.098 1307.11 530.912 1308.2 530.912 1309.36C530.912 1310.53 531.098 1311.61 531.469 1312.61C531.84 1313.61 532.412 1314.42 533.185 1315.03C533.957 1315.65 534.942 1315.95 536.139 1315.95ZM548.142 1318V1300.55H550.733V1303.18H550.915C551.233 1302.32 551.809 1301.62 552.642 1301.08C553.475 1300.54 554.415 1300.27 555.46 1300.27C555.657 1300.27 555.903 1300.28 556.199 1300.28C556.494 1300.29 556.718 1300.3 556.869 1300.32V1303.05C556.778 1303.02 556.57 1302.99 556.244 1302.94C555.926 1302.89 555.589 1302.86 555.233 1302.86C554.384 1302.86 553.627 1303.04 552.96 1303.4C552.301 1303.75 551.778 1304.23 551.392 1304.85C551.013 1305.47 550.824 1306.17 550.824 1306.95V1318H548.142ZM572.412 1304.45L570.003 1305.14C569.851 1304.73 569.628 1304.34 569.332 1303.97C569.045 1303.58 568.651 1303.26 568.151 1303.01C567.651 1302.76 567.01 1302.64 566.23 1302.64C565.162 1302.64 564.272 1302.88 563.56 1303.38C562.855 1303.86 562.503 1304.48 562.503 1305.23C562.503 1305.89 562.745 1306.42 563.23 1306.81C563.715 1307.19 564.473 1307.52 565.503 1307.77L568.094 1308.41C569.654 1308.79 570.817 1309.37 571.582 1310.15C572.348 1310.92 572.73 1311.92 572.73 1313.14C572.73 1314.14 572.442 1315.03 571.866 1315.82C571.298 1316.61 570.503 1317.23 569.48 1317.68C568.457 1318.14 567.268 1318.36 565.912 1318.36C564.132 1318.36 562.658 1317.98 561.491 1317.2C560.325 1316.43 559.586 1315.3 559.276 1313.82L561.821 1313.18C562.063 1314.12 562.522 1314.83 563.196 1315.3C563.878 1315.77 564.768 1316 565.866 1316C567.116 1316 568.109 1315.73 568.844 1315.2C569.586 1314.67 569.957 1314.02 569.957 1313.27C569.957 1312.67 569.745 1312.16 569.321 1311.75C568.897 1311.33 568.245 1311.02 567.366 1310.82L564.457 1310.14C562.859 1309.76 561.685 1309.17 560.935 1308.38C560.192 1307.57 559.821 1306.57 559.821 1305.36C559.821 1304.38 560.098 1303.51 560.651 1302.75C561.211 1301.99 561.973 1301.4 562.935 1300.97C563.904 1300.53 565.003 1300.32 566.23 1300.32C567.957 1300.32 569.313 1300.7 570.298 1301.45C571.291 1302.21 571.995 1303.21 572.412 1304.45ZM587.494 1324.55C587.04 1324.55 586.634 1324.51 586.278 1324.43C585.922 1324.36 585.676 1324.3 585.54 1324.23L586.222 1321.86C586.873 1322.03 587.449 1322.09 587.949 1322.05C588.449 1322 588.892 1321.78 589.278 1321.38C589.672 1320.98 590.032 1320.34 590.358 1319.45L590.858 1318.09L584.403 1300.55H587.312L592.131 1314.45H592.312L597.131 1300.55H600.04L592.631 1320.55C592.297 1321.45 591.884 1322.19 591.392 1322.78C590.9 1323.38 590.328 1323.83 589.676 1324.11C589.032 1324.4 588.305 1324.55 587.494 1324.55ZM610.273 1318.36C608.591 1318.36 607.14 1317.99 605.92 1317.25C604.708 1316.5 603.773 1315.45 603.114 1314.11C602.462 1312.77 602.136 1311.2 602.136 1309.41C602.136 1307.62 602.462 1306.05 603.114 1304.68C603.773 1303.31 604.689 1302.24 605.864 1301.48C607.045 1300.7 608.424 1300.32 610 1300.32C610.909 1300.32 611.807 1300.47 612.693 1300.77C613.58 1301.08 614.386 1301.57 615.114 1302.25C615.841 1302.92 616.42 1303.82 616.852 1304.93C617.284 1306.05 617.5 1307.42 617.5 1309.05V1310.18H604.045V1307.86H614.773C614.773 1306.88 614.576 1306 614.182 1305.23C613.795 1304.45 613.242 1303.84 612.523 1303.4C611.811 1302.95 610.97 1302.73 610 1302.73C608.932 1302.73 608.008 1302.99 607.227 1303.52C606.455 1304.05 605.86 1304.73 605.443 1305.57C605.027 1306.41 604.818 1307.31 604.818 1308.27V1309.82C604.818 1311.14 605.045 1312.25 605.5 1313.17C605.962 1314.08 606.602 1314.77 607.42 1315.25C608.239 1315.72 609.189 1315.95 610.273 1315.95C610.977 1315.95 611.614 1315.86 612.182 1315.66C612.758 1315.45 613.254 1315.15 613.67 1314.75C614.087 1314.34 614.409 1313.83 614.636 1313.23L617.227 1313.95C616.955 1314.83 616.496 1315.61 615.852 1316.27C615.208 1316.93 614.413 1317.45 613.466 1317.82C612.519 1318.18 611.455 1318.36 610.273 1318.36ZM629.17 1300.55V1302.82H620.125V1300.55H629.17ZM622.761 1296.36H625.443V1313C625.443 1313.76 625.553 1314.33 625.773 1314.7C626 1315.08 626.288 1315.33 626.636 1315.45C626.992 1315.58 627.367 1315.64 627.761 1315.64C628.057 1315.64 628.299 1315.62 628.489 1315.59C628.678 1315.55 628.83 1315.52 628.943 1315.5L629.489 1317.91C629.307 1317.98 629.053 1318.05 628.727 1318.11C628.402 1318.19 627.989 1318.23 627.489 1318.23C626.731 1318.23 625.989 1318.06 625.261 1317.74C624.542 1317.41 623.943 1316.92 623.466 1316.25C622.996 1315.58 622.761 1314.74 622.761 1313.73V1296.36Z" fill="#A0A0A0"/>
</g>
</g>
<defs>
<filter id="filter0_d_2003_75" x="-4" y="0" width="1088" height="1928" filterUnits="userSpaceOnUse" color-interpolation-filters="sRGB">
<feFlood flood-opacity="0" result="BackgroundImageFix"/>
<feColorMatrix in="SourceAlpha" type="matrix" values="0 0 0 0 0 0 0 0 0 0 0 0 0 0 0 0 0 0 127 0" result="hardAlpha"/>
<feOffset dy="4"/>
<feGaussianBlur stdDeviation="2"/>
<feComposite in2="hardAlpha" operator="out"/>
<feColorMatrix type="matrix" values="0 0 0 0 0 0 0 0 0 0 0 0 0 0 0 0 0 0 0.25 0"/>
<feBlend mode="normal" in2="BackgroundImageFix" result="effect1_dropShadow_2003_75"/>
<feBlend mode="normal" in="SourceGraphic" in2="effect1_dropShadow_2003_75" result="shape"/>
</filter>
<clipPath id="clip0_2003_75">
<rect width="1080" height="1920" fill="white"/>
</clipPath>
<clipPath id="clip1_2003_75">
<rect width="935" height="1184" fill="white" transform="translate(73 368)"/>
</clipPath>
</defs>
</svg>
