<svg width="247" height="313" viewBox="0 0 247 313" fill="none" xmlns="http://www.w3.org/2000/svg">
<g clip-path="url(#clip0_2002_2)">
<path d="M246.319 0.697571H0.696045V312.317H246.319V0.697571Z" fill="#EEEEEE"/>
<path d="M153.202 104.881C141.066 104.881 128.713 104.387 117.157 101.16C105.818 98.0069 95.4072 91.8887 86.1275 84.8114C80.0522 80.2046 74.5278 76.5424 66.6401 77.0947C58.922 77.5061 51.5406 80.395 45.5867 85.3346C35.553 94.1412 37.061 110.447 41.0774 121.884C47.1092 139.134 65.4656 151.138 81.0672 158.927C99.0901 167.952 118.897 173.183 138.746 176.206C156.146 178.851 178.504 180.784 193.584 169.39C207.431 158.927 211.23 135.036 207.837 118.905C207.014 114.135 204.483 109.83 200.718 106.799C190.988 99.6781 176.474 104.43 165.542 104.677C161.482 104.764 157.349 104.852 153.202 104.881Z" fill="#F2F2F2"/>
<path d="M123.507 204.472C152.904 204.472 176.735 202.982 176.735 201.144C176.735 199.306 152.904 197.816 123.507 197.816C94.1102 197.816 70.2793 199.306 70.2793 201.144C70.2793 202.982 94.1102 204.472 123.507 204.472Z" fill="#F2F2F2"/>
<path d="M189.93 59.554C190.715 59.554 191.351 58.9164 191.351 58.1298C191.351 57.3433 190.715 56.7056 189.93 56.7056C189.145 56.7056 188.509 57.3433 188.509 58.1298C188.509 58.9164 189.145 59.554 189.93 59.554Z" fill="#CFCFCF"/>
<path d="M95.407 47.6229C96.1918 47.6229 96.828 46.9852 96.828 46.1987C96.828 45.4121 96.1918 44.7745 95.407 44.7745C94.6223 44.7745 93.9861 45.4121 93.9861 46.1987C93.9861 46.9852 94.6223 47.6229 95.407 47.6229Z" fill="#CFCFCF"/>
<path d="M112.589 183.225C113.374 183.225 114.01 182.588 114.01 181.801C114.01 181.014 113.374 180.377 112.589 180.377C111.804 180.377 111.168 181.014 111.168 181.801C111.168 182.588 111.804 183.225 112.589 183.225Z" fill="#CFCFCF"/>
<path d="M150.52 40.8507V47.0997" stroke="#BABABA" stroke-linecap="round" stroke-linejoin="round"/>
<path d="M147.403 43.9752H153.637" stroke="#BABABA" stroke-linecap="round" stroke-linejoin="round"/>
<path d="M48.936 67.1545V73.4034" stroke="#BABABA" stroke-linecap="round" stroke-linejoin="round"/>
<path d="M45.8042 70.279H52.0535" stroke="#BABABA" stroke-linecap="round" stroke-linejoin="round"/>
<path d="M53.6338 154.218V160.482" stroke="#BABABA" stroke-linecap="round" stroke-linejoin="round"/>
<path d="M50.502 157.343H56.7513" stroke="#BABABA" stroke-linecap="round" stroke-linejoin="round"/>
<path d="M182.462 90.1448V96.3938" stroke="#BABABA" stroke-linecap="round" stroke-linejoin="round"/>
<path d="M179.345 93.2693H185.58" stroke="#BABABA" stroke-linecap="round" stroke-linejoin="round"/>
<path d="M139.007 53.6865L66.229 63.2649C61.5119 63.8857 58.1901 68.2215 58.8095 72.9493L69.9024 157.618C70.5218 162.345 74.8479 165.675 79.5649 165.054L152.343 155.475C157.06 154.855 160.381 150.519 159.762 145.791L148.669 61.1228C148.05 56.395 143.724 53.0657 139.007 53.6865Z" fill="#D2D2D2"/>
<path d="M160.206 66.1081H86.6929C81.9282 66.1081 78.0657 69.9794 78.0657 74.7549V160.278C78.0657 165.054 81.9282 168.925 86.6929 168.925H160.206C164.97 168.925 168.833 165.054 168.833 160.278V74.7549C168.833 69.9794 164.97 66.1081 160.206 66.1081Z" fill="#EEEEEE" stroke="#BABABA" stroke-linecap="round" stroke-linejoin="round"/>
<path d="M89.0417 133.771L103.744 109.749C103.889 109.398 104.134 109.098 104.449 108.887C104.764 108.676 105.134 108.563 105.513 108.563C105.892 108.563 106.262 108.676 106.577 108.887C106.892 109.098 107.138 109.398 107.282 109.749L115.619 123.366C115.761 123.718 116.004 124.02 116.318 124.232C116.632 124.445 117.002 124.558 117.381 124.558C117.76 124.558 118.13 124.445 118.444 124.232C118.758 124.02 119.001 123.718 119.143 123.366L133.41 100.114C133.552 99.762 133.795 99.4604 134.109 99.248C134.423 99.0356 134.793 98.9221 135.172 98.9221C135.551 98.9221 135.921 99.0356 136.235 99.248C136.549 99.4604 136.792 99.762 136.934 100.114L157.871 134.309L89.0417 133.771Z" fill="#EEEEEE" stroke="#BABABA" stroke-linecap="round" stroke-linejoin="round"/>
<path d="M118.36 106.523C120.914 106.523 122.985 104.447 122.985 101.887C122.985 99.3267 120.914 97.2512 118.36 97.2512C115.805 97.2512 113.735 99.3267 113.735 101.887C113.735 104.447 115.805 106.523 118.36 106.523Z" fill="#EEEEEE" stroke="#BABABA" stroke-linecap="round" stroke-linejoin="round"/>
<path d="M72.9 217.77V225H72.21C72.1033 225 72.0133 224.983 71.94 224.95C71.87 224.913 71.8017 224.853 71.735 224.77L67.96 219.95C67.98 220.17 67.99 220.373 67.99 220.56V225H66.805V217.77H67.51C67.5667 217.77 67.615 217.773 67.655 217.78C67.6983 217.783 67.735 217.793 67.765 217.81C67.7983 217.823 67.83 217.845 67.86 217.875C67.89 217.902 67.9233 217.938 67.96 217.985L71.75 222.825C71.74 222.708 71.7317 222.593 71.725 222.48C71.7183 222.367 71.715 222.262 71.715 222.165V217.77H72.9ZM76.4288 219.79C76.8088 219.79 77.1538 219.852 77.4638 219.975C77.7772 220.098 78.0438 220.273 78.2638 220.5C78.4872 220.727 78.6588 221.003 78.7788 221.33C78.8988 221.657 78.9588 222.022 78.9588 222.425C78.9588 222.832 78.8988 223.198 78.7788 223.525C78.6588 223.852 78.4872 224.13 78.2638 224.36C78.0438 224.59 77.7772 224.767 77.4638 224.89C77.1538 225.013 76.8088 225.075 76.4288 225.075C76.0455 225.075 75.6972 225.013 75.3838 224.89C75.0705 224.767 74.8022 224.59 74.5788 224.36C74.3588 224.13 74.1872 223.852 74.0638 223.525C73.9438 223.198 73.8838 222.832 73.8838 222.425C73.8838 222.022 73.9438 221.657 74.0638 221.33C74.1872 221.003 74.3588 220.727 74.5788 220.5C74.8022 220.273 75.0705 220.098 75.3838 219.975C75.6972 219.852 76.0455 219.79 76.4288 219.79ZM76.4288 224.125C76.8555 224.125 77.1705 223.982 77.3738 223.695C77.5805 223.408 77.6838 222.988 77.6838 222.435C77.6838 221.882 77.5805 221.46 77.3738 221.17C77.1705 220.88 76.8555 220.735 76.4288 220.735C75.9955 220.735 75.6738 220.882 75.4638 221.175C75.2572 221.465 75.1538 221.885 75.1538 222.435C75.1538 222.985 75.2572 223.405 75.4638 223.695C75.6738 223.982 75.9955 224.125 76.4288 224.125ZM86.0077 220.955C85.971 221.002 85.9343 221.038 85.8977 221.065C85.8643 221.092 85.8143 221.105 85.7477 221.105C85.6843 221.105 85.6227 221.087 85.5627 221.05C85.5027 221.01 85.431 220.967 85.3477 220.92C85.2643 220.87 85.1643 220.827 85.0477 220.79C84.9343 220.75 84.7927 220.73 84.6227 220.73C84.406 220.73 84.216 220.77 84.0527 220.85C83.8893 220.927 83.7527 221.038 83.6427 221.185C83.536 221.332 83.456 221.51 83.4027 221.72C83.3493 221.927 83.3227 222.162 83.3227 222.425C83.3227 222.698 83.351 222.942 83.4077 223.155C83.4677 223.368 83.5527 223.548 83.6627 223.695C83.7727 223.838 83.906 223.948 84.0627 224.025C84.2193 224.098 84.396 224.135 84.5927 224.135C84.7893 224.135 84.9477 224.112 85.0677 224.065C85.191 224.015 85.2943 223.962 85.3777 223.905C85.461 223.845 85.5327 223.792 85.5927 223.745C85.656 223.695 85.726 223.67 85.8027 223.67C85.9027 223.67 85.9777 223.708 86.0277 223.785L86.3827 224.235C86.246 224.395 86.0977 224.53 85.9377 224.64C85.7777 224.747 85.611 224.833 85.4377 224.9C85.2677 224.963 85.091 225.008 84.9077 225.035C84.7277 225.062 84.5477 225.075 84.3677 225.075C84.051 225.075 83.7527 225.017 83.4727 224.9C83.1927 224.78 82.9477 224.607 82.7377 224.38C82.5277 224.153 82.361 223.877 82.2377 223.55C82.1177 223.22 82.0577 222.845 82.0577 222.425C82.0577 222.048 82.111 221.7 82.2177 221.38C82.3277 221.057 82.4877 220.778 82.6977 220.545C82.9077 220.308 83.1677 220.123 83.4777 219.99C83.7877 219.857 84.1443 219.79 84.5477 219.79C84.931 219.79 85.266 219.852 85.5527 219.975C85.8427 220.098 86.1027 220.275 86.3327 220.505L86.0077 220.955ZM88.3219 220.76C88.4819 220.453 88.6719 220.213 88.8919 220.04C89.1119 219.863 89.3719 219.775 89.6719 219.775C89.9085 219.775 90.0985 219.827 90.2419 219.93L90.1619 220.855C90.1452 220.915 90.1202 220.958 90.0869 220.985C90.0569 221.008 90.0152 221.02 89.9619 221.02C89.9119 221.02 89.8369 221.012 89.7369 220.995C89.6402 220.978 89.5452 220.97 89.4519 220.97C89.3152 220.97 89.1935 220.99 89.0869 221.03C88.9802 221.07 88.8835 221.128 88.7969 221.205C88.7135 221.278 88.6385 221.368 88.5719 221.475C88.5085 221.582 88.4485 221.703 88.3919 221.84V225H87.1569V219.87H87.8819C88.0085 219.87 88.0969 219.893 88.1469 219.94C88.1969 219.983 88.2302 220.063 88.2469 220.18L88.3219 220.76ZM94.0459 221.845C94.0459 221.685 94.0225 221.535 93.9759 221.395C93.9325 221.252 93.8659 221.127 93.7759 221.02C93.6859 220.913 93.5709 220.83 93.4309 220.77C93.2942 220.707 93.1342 220.675 92.9509 220.675C92.5942 220.675 92.3125 220.777 92.1059 220.98C91.9025 221.183 91.7725 221.472 91.7159 221.845H94.0459ZM91.6909 222.59C91.7109 222.853 91.7575 223.082 91.8309 223.275C91.9042 223.465 92.0009 223.623 92.1209 223.75C92.2409 223.873 92.3825 223.967 92.5459 224.03C92.7125 224.09 92.8959 224.12 93.0959 224.12C93.2959 224.12 93.4675 224.097 93.6109 224.05C93.7575 224.003 93.8842 223.952 93.9909 223.895C94.1009 223.838 94.1959 223.787 94.2759 223.74C94.3592 223.693 94.4392 223.67 94.5159 223.67C94.6192 223.67 94.6959 223.708 94.7459 223.785L95.1009 224.235C94.9642 224.395 94.8109 224.53 94.6409 224.64C94.4709 224.747 94.2925 224.833 94.1059 224.9C93.9225 224.963 93.7342 225.008 93.5409 225.035C93.3509 225.062 93.1659 225.075 92.9859 225.075C92.6292 225.075 92.2975 225.017 91.9909 224.9C91.6842 224.78 91.4175 224.605 91.1909 224.375C90.9642 224.142 90.7859 223.855 90.6559 223.515C90.5259 223.172 90.4609 222.775 90.4609 222.325C90.4609 221.975 90.5175 221.647 90.6309 221.34C90.7442 221.03 90.9059 220.762 91.1159 220.535C91.3292 220.305 91.5875 220.123 91.8909 219.99C92.1975 219.857 92.5425 219.79 92.9259 219.79C93.2492 219.79 93.5475 219.842 93.8209 219.945C94.0942 220.048 94.3292 220.2 94.5259 220.4C94.7225 220.597 94.8759 220.84 94.9859 221.13C95.0992 221.417 95.1559 221.745 95.1559 222.115C95.1559 222.302 95.1359 222.428 95.0959 222.495C95.0559 222.558 94.9792 222.59 94.8659 222.59H91.6909ZM98.7927 222.81C98.436 222.827 98.136 222.858 97.8927 222.905C97.6493 222.948 97.4543 223.005 97.3077 223.075C97.161 223.145 97.056 223.227 96.9927 223.32C96.9293 223.413 96.8977 223.515 96.8977 223.625C96.8977 223.842 96.961 223.997 97.0877 224.09C97.2177 224.183 97.386 224.23 97.5927 224.23C97.846 224.23 98.0643 224.185 98.2477 224.095C98.4343 224.002 98.616 223.862 98.7927 223.675V222.81ZM95.9627 220.585C96.5527 220.045 97.2627 219.775 98.0927 219.775C98.3927 219.775 98.661 219.825 98.8977 219.925C99.1343 220.022 99.3343 220.158 99.4977 220.335C99.661 220.508 99.7843 220.717 99.8677 220.96C99.9543 221.203 99.9977 221.47 99.9977 221.76V225H99.4377C99.321 225 99.231 224.983 99.1677 224.95C99.1043 224.913 99.0543 224.842 99.0177 224.735L98.9077 224.365C98.7777 224.482 98.651 224.585 98.5277 224.675C98.4043 224.762 98.276 224.835 98.1427 224.895C98.0093 224.955 97.866 225 97.7127 225.03C97.5627 225.063 97.396 225.08 97.2127 225.08C96.996 225.08 96.796 225.052 96.6127 224.995C96.4293 224.935 96.271 224.847 96.1377 224.73C96.0043 224.613 95.901 224.468 95.8277 224.295C95.7543 224.122 95.7177 223.92 95.7177 223.69C95.7177 223.56 95.7393 223.432 95.7827 223.305C95.826 223.175 95.896 223.052 95.9927 222.935C96.0927 222.818 96.221 222.708 96.3777 222.605C96.5343 222.502 96.726 222.412 96.9527 222.335C97.1827 222.258 97.4493 222.197 97.7527 222.15C98.056 222.1 98.4027 222.07 98.7927 222.06V221.76C98.7927 221.417 98.7193 221.163 98.5727 221C98.426 220.833 98.2143 220.75 97.9377 220.75C97.7377 220.75 97.571 220.773 97.4377 220.82C97.3077 220.867 97.1927 220.92 97.0927 220.98C96.9927 221.037 96.901 221.088 96.8177 221.135C96.7377 221.182 96.6477 221.205 96.5477 221.205C96.461 221.205 96.3877 221.183 96.3277 221.14C96.2677 221.093 96.2193 221.04 96.1827 220.98L95.9627 220.585ZM102.802 225.08C102.356 225.08 102.012 224.955 101.772 224.705C101.536 224.452 101.417 224.103 101.417 223.66V220.795H100.892C100.826 220.795 100.769 220.773 100.722 220.73C100.676 220.687 100.652 220.622 100.652 220.535V220.045L101.477 219.91L101.737 218.51C101.754 218.443 101.786 218.392 101.832 218.355C101.879 218.318 101.939 218.3 102.012 218.3H102.652V219.915H104.022V220.795H102.652V223.575C102.652 223.735 102.691 223.86 102.767 223.95C102.847 224.04 102.956 224.085 103.092 224.085C103.169 224.085 103.232 224.077 103.282 224.06C103.336 224.04 103.381 224.02 103.417 224C103.457 223.98 103.492 223.962 103.522 223.945C103.552 223.925 103.582 223.915 103.612 223.915C103.649 223.915 103.679 223.925 103.702 223.945C103.726 223.962 103.751 223.988 103.777 224.025L104.147 224.625C103.967 224.775 103.761 224.888 103.527 224.965C103.294 225.042 103.052 225.08 102.802 225.08ZM107.044 219.79C107.424 219.79 107.769 219.852 108.079 219.975C108.392 220.098 108.659 220.273 108.879 220.5C109.102 220.727 109.274 221.003 109.394 221.33C109.514 221.657 109.574 222.022 109.574 222.425C109.574 222.832 109.514 223.198 109.394 223.525C109.274 223.852 109.102 224.13 108.879 224.36C108.659 224.59 108.392 224.767 108.079 224.89C107.769 225.013 107.424 225.075 107.044 225.075C106.661 225.075 106.312 225.013 105.999 224.89C105.686 224.767 105.417 224.59 105.194 224.36C104.974 224.13 104.802 223.852 104.679 223.525C104.559 223.198 104.499 222.832 104.499 222.425C104.499 222.022 104.559 221.657 104.679 221.33C104.802 221.003 104.974 220.727 105.194 220.5C105.417 220.273 105.686 220.098 105.999 219.975C106.312 219.852 106.661 219.79 107.044 219.79ZM107.044 224.125C107.471 224.125 107.786 223.982 107.989 223.695C108.196 223.408 108.299 222.988 108.299 222.435C108.299 221.882 108.196 221.46 107.989 221.17C107.786 220.88 107.471 220.735 107.044 220.735C106.611 220.735 106.289 220.882 106.079 221.175C105.872 221.465 105.769 221.885 105.769 222.435C105.769 222.985 105.872 223.405 106.079 223.695C106.289 223.982 106.611 224.125 107.044 224.125ZM111.681 220.76C111.841 220.453 112.031 220.213 112.251 220.04C112.471 219.863 112.731 219.775 113.031 219.775C113.268 219.775 113.458 219.827 113.601 219.93L113.521 220.855C113.505 220.915 113.48 220.958 113.446 220.985C113.416 221.008 113.375 221.02 113.321 221.02C113.271 221.02 113.196 221.012 113.096 220.995C113 220.978 112.905 220.97 112.811 220.97C112.675 220.97 112.553 220.99 112.446 221.03C112.34 221.07 112.243 221.128 112.156 221.205C112.073 221.278 111.998 221.368 111.931 221.475C111.868 221.582 111.808 221.703 111.751 221.84V225H110.516V219.87H111.241C111.368 219.87 111.456 219.893 111.506 219.94C111.556 219.983 111.59 220.063 111.606 220.18L111.681 220.76ZM117.357 220.87C117.324 220.923 117.289 220.962 117.252 220.985C117.216 221.005 117.169 221.015 117.112 221.015C117.052 221.015 116.987 220.998 116.917 220.965C116.851 220.932 116.772 220.895 116.682 220.855C116.592 220.812 116.489 220.773 116.372 220.74C116.259 220.707 116.124 220.69 115.967 220.69C115.724 220.69 115.532 220.742 115.392 220.845C115.256 220.948 115.187 221.083 115.187 221.25C115.187 221.36 115.222 221.453 115.292 221.53C115.366 221.603 115.461 221.668 115.577 221.725C115.697 221.782 115.832 221.833 115.982 221.88C116.132 221.923 116.284 221.972 116.437 222.025C116.594 222.078 116.747 222.14 116.897 222.21C117.047 222.277 117.181 222.363 117.297 222.47C117.417 222.573 117.512 222.698 117.582 222.845C117.656 222.992 117.692 223.168 117.692 223.375C117.692 223.622 117.647 223.85 117.557 224.06C117.471 224.267 117.341 224.447 117.167 224.6C116.994 224.75 116.779 224.868 116.522 224.955C116.269 225.038 115.976 225.08 115.642 225.08C115.466 225.08 115.292 225.063 115.122 225.03C114.956 225 114.794 224.957 114.637 224.9C114.484 224.843 114.341 224.777 114.207 224.7C114.077 224.623 113.962 224.54 113.862 224.45L114.147 223.98C114.184 223.923 114.227 223.88 114.277 223.85C114.327 223.82 114.391 223.805 114.467 223.805C114.544 223.805 114.616 223.827 114.682 223.87C114.752 223.913 114.832 223.96 114.922 224.01C115.012 224.06 115.117 224.107 115.237 224.15C115.361 224.193 115.516 224.215 115.702 224.215C115.849 224.215 115.974 224.198 116.077 224.165C116.184 224.128 116.271 224.082 116.337 224.025C116.407 223.968 116.457 223.903 116.487 223.83C116.521 223.753 116.537 223.675 116.537 223.595C116.537 223.475 116.501 223.377 116.427 223.3C116.357 223.223 116.262 223.157 116.142 223.1C116.026 223.043 115.891 222.993 115.737 222.95C115.587 222.903 115.432 222.853 115.272 222.8C115.116 222.747 114.961 222.685 114.807 222.615C114.657 222.542 114.522 222.45 114.402 222.34C114.286 222.23 114.191 222.095 114.117 221.935C114.047 221.775 114.012 221.582 114.012 221.355C114.012 221.145 114.054 220.945 114.137 220.755C114.221 220.565 114.342 220.4 114.502 220.26C114.666 220.117 114.867 220.003 115.107 219.92C115.351 219.833 115.631 219.79 115.947 219.79C116.301 219.79 116.622 219.848 116.912 219.965C117.202 220.082 117.444 220.235 117.637 220.425L117.357 220.87ZM123.763 222.81C123.407 222.827 123.107 222.858 122.863 222.905C122.62 222.948 122.425 223.005 122.278 223.075C122.132 223.145 122.027 223.227 121.963 223.32C121.9 223.413 121.868 223.515 121.868 223.625C121.868 223.842 121.932 223.997 122.058 224.09C122.188 224.183 122.357 224.23 122.563 224.23C122.817 224.23 123.035 224.185 123.218 224.095C123.405 224.002 123.587 223.862 123.763 223.675V222.81ZM120.933 220.585C121.523 220.045 122.233 219.775 123.063 219.775C123.363 219.775 123.632 219.825 123.868 219.925C124.105 220.022 124.305 220.158 124.468 220.335C124.632 220.508 124.755 220.717 124.838 220.96C124.925 221.203 124.968 221.47 124.968 221.76V225H124.408C124.292 225 124.202 224.983 124.138 224.95C124.075 224.913 124.025 224.842 123.988 224.735L123.878 224.365C123.748 224.482 123.622 224.585 123.498 224.675C123.375 224.762 123.247 224.835 123.113 224.895C122.98 224.955 122.837 225 122.683 225.03C122.533 225.063 122.367 225.08 122.183 225.08C121.967 225.08 121.767 225.052 121.583 224.995C121.4 224.935 121.242 224.847 121.108 224.73C120.975 224.613 120.872 224.468 120.798 224.295C120.725 224.122 120.688 223.92 120.688 223.69C120.688 223.56 120.71 223.432 120.753 223.305C120.797 223.175 120.867 223.052 120.963 222.935C121.063 222.818 121.192 222.708 121.348 222.605C121.505 222.502 121.697 222.412 121.923 222.335C122.153 222.258 122.42 222.197 122.723 222.15C123.027 222.1 123.373 222.07 123.763 222.06V221.76C123.763 221.417 123.69 221.163 123.543 221C123.397 220.833 123.185 220.75 122.908 220.75C122.708 220.75 122.542 220.773 122.408 220.82C122.278 220.867 122.163 220.92 122.063 220.98C121.963 221.037 121.872 221.088 121.788 221.135C121.708 221.182 121.618 221.205 121.518 221.205C121.432 221.205 121.358 221.183 121.298 221.14C121.238 221.093 121.19 221.04 121.153 220.98L120.933 220.585ZM130.639 219.87L128.604 225H127.484L125.449 219.87H126.469C126.563 219.87 126.639 219.892 126.699 219.935C126.763 219.978 126.804 220.033 126.824 220.1L127.814 222.84C127.868 223 127.914 223.157 127.954 223.31C127.994 223.463 128.029 223.617 128.059 223.77C128.093 223.617 128.129 223.463 128.169 223.31C128.209 223.157 128.258 223 128.314 222.84L129.324 220.1C129.348 220.033 129.389 219.978 129.449 219.935C129.509 219.892 129.581 219.87 129.664 219.87H130.639ZM133.881 222.81C133.524 222.827 133.224 222.858 132.981 222.905C132.737 222.948 132.542 223.005 132.396 223.075C132.249 223.145 132.144 223.227 132.081 223.32C132.017 223.413 131.986 223.515 131.986 223.625C131.986 223.842 132.049 223.997 132.176 224.09C132.306 224.183 132.474 224.23 132.681 224.23C132.934 224.23 133.152 224.185 133.336 224.095C133.522 224.002 133.704 223.862 133.881 223.675V222.81ZM131.051 220.585C131.641 220.045 132.351 219.775 133.181 219.775C133.481 219.775 133.749 219.825 133.986 219.925C134.222 220.022 134.422 220.158 134.586 220.335C134.749 220.508 134.872 220.717 134.956 220.96C135.042 221.203 135.086 221.47 135.086 221.76V225H134.526C134.409 225 134.319 224.983 134.256 224.95C134.192 224.913 134.142 224.842 134.106 224.735L133.996 224.365C133.866 224.482 133.739 224.585 133.616 224.675C133.492 224.762 133.364 224.835 133.231 224.895C133.097 224.955 132.954 225 132.801 225.03C132.651 225.063 132.484 225.08 132.301 225.08C132.084 225.08 131.884 225.052 131.701 224.995C131.517 224.935 131.359 224.847 131.226 224.73C131.092 224.613 130.989 224.468 130.916 224.295C130.842 224.122 130.806 223.92 130.806 223.69C130.806 223.56 130.827 223.432 130.871 223.305C130.914 223.175 130.984 223.052 131.081 222.935C131.181 222.818 131.309 222.708 131.466 222.605C131.622 222.502 131.814 222.412 132.041 222.335C132.271 222.258 132.537 222.197 132.841 222.15C133.144 222.1 133.491 222.07 133.881 222.06V221.76C133.881 221.417 133.807 221.163 133.661 221C133.514 220.833 133.302 220.75 133.026 220.75C132.826 220.75 132.659 220.773 132.526 220.82C132.396 220.867 132.281 220.92 132.181 220.98C132.081 221.037 131.989 221.088 131.906 221.135C131.826 221.182 131.736 221.205 131.636 221.205C131.549 221.205 131.476 221.183 131.416 221.14C131.356 221.093 131.307 221.04 131.271 220.98L131.051 220.585ZM137.529 219.87V225H136.289V219.87H137.529ZM137.699 218.375C137.699 218.482 137.677 218.582 137.634 218.675C137.59 218.768 137.532 218.85 137.459 218.92C137.389 218.99 137.305 219.047 137.209 219.09C137.112 219.13 137.009 219.15 136.899 219.15C136.792 219.15 136.69 219.13 136.594 219.09C136.5 219.047 136.419 218.99 136.349 218.92C136.279 218.85 136.222 218.768 136.179 218.675C136.139 218.582 136.119 218.482 136.119 218.375C136.119 218.265 136.139 218.162 136.179 218.065C136.222 217.968 136.279 217.885 136.349 217.815C136.419 217.745 136.5 217.69 136.594 217.65C136.69 217.607 136.792 217.585 136.899 217.585C137.009 217.585 137.112 217.607 137.209 217.65C137.305 217.69 137.389 217.745 137.459 217.815C137.532 217.885 137.59 217.968 137.634 218.065C137.677 218.162 137.699 218.265 137.699 218.375ZM140.038 217.57V225H138.803V217.57H140.038ZM143.978 222.81C143.622 222.827 143.322 222.858 143.078 222.905C142.835 222.948 142.64 223.005 142.493 223.075C142.347 223.145 142.242 223.227 142.178 223.32C142.115 223.413 142.083 223.515 142.083 223.625C142.083 223.842 142.147 223.997 142.273 224.09C142.403 224.183 142.572 224.23 142.778 224.23C143.032 224.23 143.25 224.185 143.433 224.095C143.62 224.002 143.802 223.862 143.978 223.675V222.81ZM141.148 220.585C141.738 220.045 142.448 219.775 143.278 219.775C143.578 219.775 143.847 219.825 144.083 219.925C144.32 220.022 144.52 220.158 144.683 220.335C144.847 220.508 144.97 220.717 145.053 220.96C145.14 221.203 145.183 221.47 145.183 221.76V225H144.623C144.507 225 144.417 224.983 144.353 224.95C144.29 224.913 144.24 224.842 144.203 224.735L144.093 224.365C143.963 224.482 143.837 224.585 143.713 224.675C143.59 224.762 143.462 224.835 143.328 224.895C143.195 224.955 143.052 225 142.898 225.03C142.748 225.063 142.582 225.08 142.398 225.08C142.182 225.08 141.982 225.052 141.798 224.995C141.615 224.935 141.457 224.847 141.323 224.73C141.19 224.613 141.087 224.468 141.013 224.295C140.94 224.122 140.903 223.92 140.903 223.69C140.903 223.56 140.925 223.432 140.968 223.305C141.012 223.175 141.082 223.052 141.178 222.935C141.278 222.818 141.407 222.708 141.563 222.605C141.72 222.502 141.912 222.412 142.138 222.335C142.368 222.258 142.635 222.197 142.938 222.15C143.242 222.1 143.588 222.07 143.978 222.06V221.76C143.978 221.417 143.905 221.163 143.758 221C143.612 220.833 143.4 220.75 143.123 220.75C142.923 220.75 142.757 220.773 142.623 220.82C142.493 220.867 142.378 220.92 142.278 220.98C142.178 221.037 142.087 221.088 142.003 221.135C141.923 221.182 141.833 221.205 141.733 221.205C141.647 221.205 141.573 221.183 141.513 221.14C141.453 221.093 141.405 221.04 141.368 220.98L141.148 220.585ZM147.581 223.67C147.721 223.84 147.873 223.96 148.036 224.03C148.203 224.1 148.378 224.135 148.561 224.135C148.751 224.135 148.921 224.102 149.071 224.035C149.225 223.965 149.355 223.858 149.461 223.715C149.568 223.568 149.65 223.383 149.706 223.16C149.763 222.933 149.791 222.663 149.791 222.35C149.791 221.787 149.698 221.38 149.511 221.13C149.325 220.877 149.056 220.75 148.706 220.75C148.47 220.75 148.263 220.805 148.086 220.915C147.91 221.022 147.741 221.173 147.581 221.37V223.67ZM147.581 220.5C147.788 220.283 148.016 220.112 148.266 219.985C148.52 219.855 148.808 219.79 149.131 219.79C149.428 219.79 149.695 219.848 149.931 219.965C150.171 220.082 150.375 220.25 150.541 220.47C150.711 220.687 150.841 220.95 150.931 221.26C151.021 221.57 151.066 221.918 151.066 222.305C151.066 222.722 151.015 223.1 150.911 223.44C150.808 223.78 150.66 224.072 150.466 224.315C150.276 224.555 150.046 224.742 149.776 224.875C149.506 225.008 149.206 225.075 148.876 225.075C148.716 225.075 148.571 225.058 148.441 225.025C148.311 224.995 148.191 224.952 148.081 224.895C147.971 224.838 147.87 224.77 147.776 224.69C147.686 224.607 147.6 224.515 147.516 224.415L147.461 224.76C147.441 224.847 147.406 224.908 147.356 224.945C147.31 224.982 147.245 225 147.161 225H146.346V217.57H147.581V220.5ZM153.27 217.57V225H152.035V217.57H153.27ZM157.806 221.845C157.806 221.685 157.782 221.535 157.736 221.395C157.692 221.252 157.626 221.127 157.536 221.02C157.446 220.913 157.331 220.83 157.191 220.77C157.054 220.707 156.894 220.675 156.711 220.675C156.354 220.675 156.072 220.777 155.866 220.98C155.662 221.183 155.532 221.472 155.476 221.845H157.806ZM155.451 222.59C155.471 222.853 155.517 223.082 155.591 223.275C155.664 223.465 155.761 223.623 155.881 223.75C156.001 223.873 156.142 223.967 156.306 224.03C156.472 224.09 156.656 224.12 156.856 224.12C157.056 224.12 157.227 224.097 157.371 224.05C157.517 224.003 157.644 223.952 157.751 223.895C157.861 223.838 157.956 223.787 158.036 223.74C158.119 223.693 158.199 223.67 158.276 223.67C158.379 223.67 158.456 223.708 158.506 223.785L158.861 224.235C158.724 224.395 158.571 224.53 158.401 224.64C158.231 224.747 158.052 224.833 157.866 224.9C157.682 224.963 157.494 225.008 157.301 225.035C157.111 225.062 156.926 225.075 156.746 225.075C156.389 225.075 156.057 225.017 155.751 224.9C155.444 224.78 155.177 224.605 154.951 224.375C154.724 224.142 154.546 223.855 154.416 223.515C154.286 223.172 154.221 222.775 154.221 222.325C154.221 221.975 154.277 221.647 154.391 221.34C154.504 221.03 154.666 220.762 154.876 220.535C155.089 220.305 155.347 220.123 155.651 219.99C155.957 219.857 156.302 219.79 156.686 219.79C157.009 219.79 157.307 219.842 157.581 219.945C157.854 220.048 158.089 220.2 158.286 220.4C158.482 220.597 158.636 220.84 158.746 221.13C158.859 221.417 158.916 221.745 158.916 222.115C158.916 222.302 158.896 222.428 158.856 222.495C158.816 222.558 158.739 222.59 158.626 222.59H155.451ZM165.174 222.2V225H163.834V222.2L161.199 217.77H162.384C162.5 217.77 162.592 217.798 162.659 217.855C162.729 217.912 162.787 217.983 162.834 218.07L164.154 220.485C164.23 220.628 164.297 220.763 164.354 220.89C164.414 221.017 164.467 221.143 164.514 221.27C164.557 221.143 164.607 221.017 164.664 220.89C164.72 220.763 164.785 220.628 164.859 220.485L166.174 218.07C166.21 217.997 166.265 217.928 166.339 217.865C166.412 217.802 166.505 217.77 166.619 217.77H167.809L165.174 222.2ZM170.53 221.845C170.53 221.685 170.507 221.535 170.46 221.395C170.417 221.252 170.35 221.127 170.26 221.02C170.17 220.913 170.055 220.83 169.915 220.77C169.779 220.707 169.619 220.675 169.435 220.675C169.079 220.675 168.797 220.777 168.59 220.98C168.387 221.183 168.257 221.472 168.2 221.845H170.53ZM168.175 222.59C168.195 222.853 168.242 223.082 168.315 223.275C168.389 223.465 168.485 223.623 168.605 223.75C168.725 223.873 168.867 223.967 169.03 224.03C169.197 224.09 169.38 224.12 169.58 224.12C169.78 224.12 169.952 224.097 170.095 224.05C170.242 224.003 170.369 223.952 170.475 223.895C170.585 223.838 170.68 223.787 170.76 223.74C170.844 223.693 170.924 223.67 171 223.67C171.104 223.67 171.18 223.708 171.23 223.785L171.585 224.235C171.449 224.395 171.295 224.53 171.125 224.64C170.955 224.747 170.777 224.833 170.59 224.9C170.407 224.963 170.219 225.008 170.025 225.035C169.835 225.062 169.65 225.075 169.47 225.075C169.114 225.075 168.782 225.017 168.475 224.9C168.169 224.78 167.902 224.605 167.675 224.375C167.449 224.142 167.27 223.855 167.14 223.515C167.01 223.172 166.945 222.775 166.945 222.325C166.945 221.975 167.002 221.647 167.115 221.34C167.229 221.03 167.39 220.762 167.6 220.535C167.814 220.305 168.072 220.123 168.375 219.99C168.682 219.857 169.027 219.79 169.41 219.79C169.734 219.79 170.032 219.842 170.305 219.945C170.579 220.048 170.814 220.2 171.01 220.4C171.207 220.597 171.36 220.84 171.47 221.13C171.584 221.417 171.64 221.745 171.64 222.115C171.64 222.302 171.62 222.428 171.58 222.495C171.54 222.558 171.464 222.59 171.35 222.59H168.175ZM174.228 225.08C173.782 225.08 173.438 224.955 173.198 224.705C172.962 224.452 172.843 224.103 172.843 223.66V220.795H172.318C172.252 220.795 172.195 220.773 172.148 220.73C172.102 220.687 172.078 220.622 172.078 220.535V220.045L172.903 219.91L173.163 218.51C173.18 218.443 173.212 218.392 173.258 218.355C173.305 218.318 173.365 218.3 173.438 218.3H174.078V219.915H175.448V220.795H174.078V223.575C174.078 223.735 174.117 223.86 174.193 223.95C174.273 224.04 174.382 224.085 174.518 224.085C174.595 224.085 174.658 224.077 174.708 224.06C174.762 224.04 174.807 224.02 174.843 224C174.883 223.98 174.918 223.962 174.948 223.945C174.978 223.925 175.008 223.915 175.038 223.915C175.075 223.915 175.105 223.925 175.128 223.945C175.152 223.962 175.177 223.988 175.203 224.025L175.573 224.625C175.393 224.775 175.187 224.888 174.953 224.965C174.72 225.042 174.478 225.08 174.228 225.08ZM176.059 224.32C176.059 224.217 176.077 224.118 176.114 224.025C176.154 223.932 176.207 223.852 176.274 223.785C176.341 223.718 176.421 223.665 176.514 223.625C176.607 223.585 176.707 223.565 176.814 223.565C176.921 223.565 177.019 223.585 177.109 223.625C177.202 223.665 177.282 223.718 177.349 223.785C177.419 223.852 177.474 223.932 177.514 224.025C177.554 224.118 177.574 224.217 177.574 224.32C177.574 224.427 177.554 224.527 177.514 224.62C177.474 224.71 177.419 224.788 177.349 224.855C177.282 224.922 177.202 224.973 177.109 225.01C177.019 225.05 176.921 225.07 176.814 225.07C176.707 225.07 176.607 225.05 176.514 225.01C176.421 224.973 176.341 224.922 176.274 224.855C176.207 224.788 176.154 224.71 176.114 224.62C176.077 224.527 176.059 224.427 176.059 224.32Z" fill="#939090"/>
<path d="M87.4523 236.879L86.2889 233.061H86.9054L87.7307 235.984H87.7705L88.5858 233.061H89.2122L90.0176 235.974H90.0574L90.8827 233.061H91.4992L90.3358 236.879H89.7591L88.9239 233.946H88.8642L88.029 236.879H87.4523ZM93.7457 236.959C93.3778 236.959 93.0604 236.877 92.7936 236.715C92.5285 236.551 92.3238 236.322 92.1796 236.029C92.0371 235.734 91.9659 235.391 91.9659 235C91.9659 234.609 92.0371 234.264 92.1796 233.966C92.3238 233.666 92.5243 233.432 92.7812 233.265C93.0397 233.096 93.3413 233.011 93.686 233.011C93.8849 233.011 94.0813 233.044 94.2752 233.111C94.4691 233.177 94.6456 233.285 94.8046 233.434C94.9637 233.581 95.0905 233.777 95.185 234.02C95.2794 234.264 95.3267 234.564 95.3267 234.92V235.169H92.3835V234.662H94.7301C94.7301 234.446 94.687 234.254 94.6008 234.085C94.5163 233.916 94.3953 233.783 94.2379 233.685C94.0821 233.587 93.8982 233.538 93.686 233.538C93.4524 233.538 93.2502 233.596 93.0795 233.712C92.9105 233.826 92.7804 233.976 92.6892 234.16C92.5981 234.343 92.5525 234.541 92.5525 234.751V235.089C92.5525 235.378 92.6022 235.622 92.7017 235.823C92.8027 236.021 92.9428 236.173 93.1218 236.277C93.3007 236.38 93.5087 236.432 93.7457 236.432C93.8998 236.432 94.039 236.41 94.1633 236.367C94.2893 236.322 94.3978 236.256 94.4889 236.168C94.5801 236.079 94.6505 235.968 94.7002 235.835L95.267 235.994C95.2073 236.186 95.1071 236.355 94.9662 236.501C94.8254 236.645 94.6514 236.758 94.4442 236.839C94.2371 236.919 94.0042 236.959 93.7457 236.959ZM99.7389 236.959C99.381 236.959 99.0728 236.874 98.8142 236.705C98.5557 236.536 98.3568 236.303 98.2176 236.006C98.0784 235.71 98.0088 235.371 98.0088 234.99C98.0088 234.602 98.0801 234.26 98.2226 233.963C98.3668 233.665 98.5673 233.432 98.8242 233.265C99.0827 233.096 99.3843 233.011 99.729 233.011C99.9975 233.011 100.239 233.061 100.455 233.16C100.67 233.26 100.847 233.399 100.984 233.578C101.122 233.757 101.207 233.966 101.24 234.204H100.654C100.609 234.03 100.51 233.876 100.355 233.742C100.203 233.606 99.9975 233.538 99.7389 233.538C99.5103 233.538 99.3097 233.598 99.1374 233.717C98.9667 233.835 98.8333 234.001 98.7372 234.217C98.6427 234.43 98.5955 234.682 98.5955 234.97C98.5955 235.265 98.6419 235.522 98.7347 235.741C98.8291 235.959 98.9617 236.129 99.1324 236.25C99.3048 236.371 99.5069 236.432 99.7389 236.432C99.8914 236.432 100.03 236.405 100.154 236.352C100.278 236.299 100.384 236.223 100.47 236.123C100.556 236.024 100.617 235.905 100.654 235.765H101.24C101.207 235.991 101.125 236.194 100.994 236.374C100.865 236.553 100.693 236.696 100.48 236.802C100.268 236.906 100.021 236.959 99.7389 236.959ZM104.504 235.318V233.061H105.091V236.879H104.504V236.233H104.464C104.375 236.427 104.236 236.591 104.047 236.727C103.858 236.862 103.619 236.929 103.331 236.929C103.092 236.929 102.88 236.877 102.695 236.772C102.509 236.666 102.363 236.507 102.257 236.295C102.151 236.081 102.098 235.812 102.098 235.487V233.061H102.685V235.447C102.685 235.726 102.763 235.948 102.918 236.113C103.076 236.279 103.276 236.362 103.52 236.362C103.666 236.362 103.814 236.325 103.965 236.25C104.117 236.176 104.245 236.061 104.348 235.907C104.452 235.753 104.504 235.557 104.504 235.318ZM106.165 236.879V233.061H106.732V233.638H106.772C106.841 233.449 106.967 233.295 107.15 233.178C107.332 233.06 107.538 233.001 107.766 233.001C107.809 233.001 107.863 233.002 107.928 233.004C107.992 233.005 108.041 233.008 108.074 233.011V233.608C108.055 233.603 108.009 233.595 107.938 233.585C107.868 233.574 107.794 233.568 107.716 233.568C107.531 233.568 107.365 233.607 107.219 233.685C107.075 233.761 106.961 233.867 106.876 234.003C106.793 234.137 106.752 234.29 106.752 234.463V236.879H106.165ZM108.77 236.879V233.061H109.337V233.638H109.376C109.446 233.449 109.572 233.295 109.754 233.178C109.937 233.06 110.142 233.001 110.371 233.001C110.414 233.001 110.468 233.002 110.532 233.004C110.597 233.005 110.646 233.008 110.679 233.011V233.608C110.659 233.603 110.613 233.595 110.542 233.585C110.473 233.574 110.399 233.568 110.321 233.568C110.135 233.568 109.97 233.607 109.824 233.685C109.68 233.761 109.565 233.867 109.481 234.003C109.398 234.137 109.356 234.29 109.356 234.463V236.879H108.77ZM112.859 236.959C112.491 236.959 112.174 236.877 111.907 236.715C111.642 236.551 111.437 236.322 111.293 236.029C111.15 235.734 111.079 235.391 111.079 235C111.079 234.609 111.15 234.264 111.293 233.966C111.437 233.666 111.638 233.432 111.894 233.265C112.153 233.096 112.455 233.011 112.799 233.011C112.998 233.011 113.195 233.044 113.388 233.111C113.582 233.177 113.759 233.285 113.918 233.434C114.077 233.581 114.204 233.777 114.298 234.02C114.393 234.264 114.44 234.564 114.44 234.92V235.169H111.497V234.662H113.843C113.843 234.446 113.8 234.254 113.714 234.085C113.63 233.916 113.509 233.783 113.351 233.685C113.195 233.587 113.011 233.538 112.799 233.538C112.566 233.538 112.363 233.596 112.193 233.712C112.024 233.826 111.894 233.976 111.803 234.16C111.711 234.343 111.666 234.541 111.666 234.751V235.089C111.666 235.378 111.716 235.622 111.815 235.823C111.916 236.021 112.056 236.173 112.235 236.277C112.414 236.38 112.622 236.432 112.859 236.432C113.013 236.432 113.152 236.41 113.277 236.367C113.403 236.322 113.511 236.256 113.602 236.168C113.693 236.079 113.764 235.968 113.814 235.835L114.38 235.994C114.321 236.186 114.22 236.355 114.08 236.501C113.939 236.645 113.765 236.758 113.557 236.839C113.35 236.919 113.117 236.959 112.859 236.959ZM115.919 234.582V236.879H115.332V233.061H115.899V233.657H115.949C116.038 233.464 116.174 233.308 116.356 233.19C116.539 233.071 116.774 233.011 117.062 233.011C117.321 233.011 117.547 233.064 117.741 233.17C117.935 233.275 118.086 233.434 118.193 233.647C118.301 233.86 118.355 234.128 118.355 234.453V236.879H117.768V234.493C117.768 234.193 117.691 233.959 117.535 233.792C117.379 233.623 117.165 233.538 116.893 233.538C116.706 233.538 116.539 233.579 116.391 233.66C116.245 233.741 116.13 233.86 116.046 234.015C115.961 234.171 115.919 234.36 115.919 234.582ZM121.088 233.061V233.558H119.109V233.061H121.088ZM119.686 232.146H120.272V235.785C120.272 235.951 120.296 236.075 120.344 236.158C120.394 236.239 120.457 236.294 120.533 236.322C120.611 236.349 120.693 236.362 120.779 236.362C120.844 236.362 120.897 236.359 120.938 236.352C120.98 236.344 121.013 236.337 121.038 236.332L121.157 236.859C121.117 236.874 121.062 236.889 120.991 236.904C120.919 236.92 120.829 236.929 120.72 236.929C120.554 236.929 120.392 236.893 120.232 236.822C120.075 236.751 119.944 236.642 119.84 236.496C119.737 236.35 119.686 236.166 119.686 235.944V232.146ZM122.639 231.788V236.879H122.052V231.788H122.639ZM124.091 238.311C123.992 238.311 123.903 238.303 123.825 238.286C123.747 238.271 123.693 238.256 123.663 238.241L123.813 237.724C123.955 237.761 124.081 237.774 124.19 237.764C124.3 237.754 124.397 237.705 124.481 237.617C124.567 237.531 124.646 237.391 124.717 237.197L124.827 236.899L123.415 233.061H124.051L125.105 236.103H125.145L126.199 233.061H126.835L125.215 237.436C125.142 237.633 125.051 237.796 124.944 237.926C124.836 238.056 124.711 238.153 124.568 238.216C124.427 238.279 124.268 238.311 124.091 238.311ZM131.02 236.959C130.702 236.959 130.421 236.878 130.178 236.717C129.934 236.555 129.743 236.326 129.606 236.031C129.468 235.735 129.399 235.384 129.399 234.98C129.399 234.579 129.468 234.231 129.606 233.936C129.743 233.641 129.935 233.413 130.18 233.252C130.425 233.091 130.709 233.011 131.03 233.011C131.279 233.011 131.475 233.053 131.619 233.135C131.765 233.217 131.876 233.309 131.952 233.414C132.03 233.517 132.091 233.601 132.134 233.667H132.184V231.788H132.77V236.879H132.203V236.292H132.134C132.091 236.362 132.029 236.45 131.95 236.556C131.87 236.66 131.757 236.754 131.609 236.837C131.462 236.918 131.265 236.959 131.02 236.959ZM131.1 236.432C131.335 236.432 131.534 236.37 131.696 236.248C131.859 236.123 131.982 235.952 132.067 235.733C132.151 235.513 132.193 235.258 132.193 234.97C132.193 234.685 132.152 234.435 132.069 234.222C131.986 234.006 131.864 233.839 131.701 233.72C131.539 233.599 131.338 233.538 131.1 233.538C130.851 233.538 130.644 233.602 130.478 233.729C130.314 233.855 130.191 234.027 130.108 234.244C130.027 234.459 129.986 234.701 129.986 234.97C129.986 235.242 130.028 235.489 130.11 235.711C130.195 235.931 130.319 236.107 130.483 236.238C130.649 236.367 130.854 236.432 131.1 236.432ZM135.477 236.959C135.133 236.959 134.83 236.877 134.57 236.712C134.311 236.548 134.109 236.319 133.963 236.024C133.819 235.729 133.747 235.384 133.747 234.99C133.747 234.592 133.819 234.245 133.963 233.948C134.109 233.652 134.311 233.421 134.57 233.257C134.83 233.093 135.133 233.011 135.477 233.011C135.822 233.011 136.124 233.093 136.382 233.257C136.642 233.421 136.844 233.652 136.989 233.948C137.134 234.245 137.207 234.592 137.207 234.99C137.207 235.384 137.134 235.729 136.989 236.024C136.844 236.319 136.642 236.548 136.382 236.712C136.124 236.877 135.822 236.959 135.477 236.959ZM135.477 236.432C135.739 236.432 135.955 236.364 136.124 236.23C136.293 236.096 136.418 235.919 136.499 235.701C136.58 235.482 136.621 235.245 136.621 234.99C136.621 234.735 136.58 234.497 136.499 234.276C136.418 234.056 136.293 233.878 136.124 233.742C135.955 233.606 135.739 233.538 135.477 233.538C135.215 233.538 135 233.606 134.831 233.742C134.662 233.878 134.537 234.056 134.456 234.276C134.374 234.497 134.334 234.735 134.334 234.99C134.334 235.245 134.374 235.482 134.456 235.701C134.537 235.919 134.662 236.096 134.831 236.23C135 236.364 135.215 236.432 135.477 236.432ZM138.689 234.582V236.879H138.103V233.061H138.67V233.657H138.719C138.809 233.464 138.945 233.308 139.127 233.19C139.309 233.071 139.545 233.011 139.833 233.011C140.091 233.011 140.318 233.064 140.512 233.17C140.705 233.275 140.856 233.434 140.964 233.647C141.072 233.86 141.126 234.128 141.126 234.453V236.879H140.539V234.493C140.539 234.193 140.461 233.959 140.305 233.792C140.149 233.623 139.936 233.538 139.664 233.538C139.477 233.538 139.309 233.579 139.162 233.66C139.016 233.741 138.901 233.86 138.816 234.015C138.732 234.171 138.689 234.36 138.689 234.582ZM143.858 233.061V233.558H141.879V233.061H143.858ZM142.456 232.146H143.043V235.785C143.043 235.951 143.067 236.075 143.115 236.158C143.165 236.239 143.228 236.294 143.304 236.322C143.382 236.349 143.464 236.362 143.55 236.362C143.614 236.362 143.668 236.359 143.709 236.352C143.75 236.344 143.784 236.337 143.808 236.332L143.928 236.859C143.888 236.874 143.832 236.889 143.761 236.904C143.69 236.92 143.6 236.929 143.49 236.929C143.324 236.929 143.162 236.893 143.003 236.822C142.846 236.751 142.715 236.642 142.61 236.496C142.507 236.35 142.456 236.166 142.456 235.944V232.146ZM147.296 234.582V236.879H146.709V231.788H147.296V233.657H147.346C147.435 233.46 147.569 233.304 147.748 233.188C147.929 233.07 148.169 233.011 148.469 233.011C148.729 233.011 148.957 233.063 149.153 233.168C149.348 233.27 149.5 233.429 149.608 233.642C149.717 233.855 149.772 234.125 149.772 234.453V236.879H149.185V234.493C149.185 234.189 149.106 233.955 148.949 233.789C148.793 233.622 148.577 233.538 148.3 233.538C148.108 233.538 147.936 233.579 147.783 233.66C147.632 233.741 147.513 233.86 147.425 234.015C147.339 234.171 147.296 234.36 147.296 234.582ZM151.969 236.968C151.727 236.968 151.507 236.923 151.31 236.832C151.113 236.739 150.956 236.606 150.84 236.432C150.724 236.256 150.666 236.044 150.666 235.795C150.666 235.576 150.709 235.399 150.795 235.263C150.881 235.126 150.997 235.018 151.141 234.94C151.285 234.862 151.444 234.804 151.618 234.766C151.794 234.726 151.97 234.695 152.148 234.672C152.38 234.642 152.568 234.619 152.712 234.604C152.858 234.588 152.964 234.561 153.03 234.522C153.098 234.484 153.132 234.418 153.132 234.324V234.304C153.132 234.058 153.065 233.868 152.931 233.732C152.798 233.596 152.597 233.528 152.327 233.528C152.047 233.528 151.827 233.589 151.668 233.712C151.509 233.835 151.397 233.966 151.332 234.105L150.775 233.906C150.875 233.674 151.007 233.493 151.173 233.364C151.341 233.233 151.523 233.142 151.72 233.091C151.919 233.038 152.114 233.011 152.307 233.011C152.429 233.011 152.57 233.026 152.729 233.056C152.89 233.084 153.045 233.143 153.194 233.232C153.345 233.322 153.47 233.457 153.569 233.638C153.669 233.818 153.719 234.06 153.719 234.363V236.879H153.132V236.362H153.102C153.062 236.445 152.996 236.533 152.903 236.628C152.81 236.722 152.687 236.803 152.533 236.869C152.379 236.935 152.191 236.968 151.969 236.968ZM152.058 236.441C152.29 236.441 152.486 236.396 152.645 236.305C152.806 236.214 152.926 236.096 153.008 235.952C153.091 235.808 153.132 235.656 153.132 235.497V234.96C153.107 234.99 153.052 235.017 152.968 235.042C152.885 235.065 152.789 235.086 152.68 235.104C152.572 235.121 152.467 235.136 152.364 235.149C152.263 235.16 152.181 235.17 152.118 235.179C151.965 235.199 151.823 235.231 151.69 235.276C151.559 235.319 151.453 235.384 151.372 235.472C151.292 235.558 151.253 235.676 151.253 235.825C151.253 236.029 151.328 236.183 151.479 236.287C151.631 236.39 151.824 236.441 152.058 236.441ZM157.775 233.061L156.363 236.879H155.766L154.354 233.061H154.991L156.045 236.103H156.084L157.138 233.061H157.775ZM160.013 236.959C159.645 236.959 159.328 236.877 159.061 236.715C158.796 236.551 158.591 236.322 158.447 236.029C158.305 235.734 158.233 235.391 158.233 235C158.233 234.609 158.305 234.264 158.447 233.966C158.591 233.666 158.792 233.432 159.049 233.265C159.307 233.096 159.609 233.011 159.954 233.011C160.152 233.011 160.349 233.044 160.543 233.111C160.737 233.177 160.913 233.285 161.072 233.434C161.231 233.581 161.358 233.777 161.453 234.02C161.547 234.264 161.594 234.564 161.594 234.92V235.169H158.651V234.662H160.998C160.998 234.446 160.955 234.254 160.868 234.085C160.784 233.916 160.663 233.783 160.505 233.685C160.35 233.587 160.166 233.538 159.954 233.538C159.72 233.538 159.518 233.596 159.347 233.712C159.178 233.826 159.048 233.976 158.957 234.16C158.866 234.343 158.82 234.541 158.82 234.751V235.089C158.82 235.378 158.87 235.622 158.969 235.823C159.07 236.021 159.21 236.173 159.389 236.277C159.568 236.38 159.776 236.432 160.013 236.432C160.167 236.432 160.307 236.41 160.431 236.367C160.557 236.322 160.665 236.256 160.757 236.168C160.848 236.079 160.918 235.968 160.968 235.835L161.535 235.994C161.475 236.186 161.375 236.355 161.234 236.501C161.093 236.645 160.919 236.758 160.712 236.839C160.505 236.919 160.272 236.959 160.013 236.959ZM106.237 244.959C105.879 244.959 105.57 244.874 105.312 244.705C105.053 244.536 104.854 244.303 104.715 244.006C104.576 243.71 104.506 243.371 104.506 242.99C104.506 242.602 104.578 242.26 104.72 241.963C104.864 241.665 105.065 241.432 105.322 241.265C105.58 241.096 105.882 241.011 106.227 241.011C106.495 241.011 106.737 241.061 106.952 241.16C107.168 241.26 107.344 241.399 107.482 241.578C107.619 241.757 107.705 241.966 107.738 242.204H107.151C107.107 242.03 107.007 241.876 106.853 241.742C106.701 241.606 106.495 241.538 106.237 241.538C106.008 241.538 105.807 241.598 105.635 241.717C105.464 241.835 105.331 242.001 105.235 242.217C105.14 242.43 105.093 242.682 105.093 242.97C105.093 243.265 105.139 243.522 105.232 243.741C105.327 243.959 105.459 244.129 105.63 244.25C105.802 244.371 106.004 244.432 106.237 244.432C106.389 244.432 106.527 244.405 106.652 244.352C106.776 244.299 106.881 244.223 106.967 244.123C107.054 244.024 107.115 243.905 107.151 243.765H107.738C107.705 243.991 107.623 244.194 107.492 244.374C107.363 244.553 107.191 244.696 106.977 244.802C106.765 244.906 106.518 244.959 106.237 244.959ZM108.596 244.879V241.061H109.162V241.638H109.202C109.272 241.449 109.398 241.295 109.58 241.178C109.762 241.06 109.968 241.001 110.196 241.001C110.239 241.001 110.293 241.002 110.358 241.004C110.423 241.005 110.471 241.008 110.505 241.011V241.608C110.485 241.603 110.439 241.595 110.368 241.585C110.298 241.574 110.225 241.568 110.147 241.568C109.961 241.568 109.795 241.607 109.65 241.685C109.505 241.761 109.391 241.867 109.306 242.003C109.224 242.137 109.182 242.29 109.182 242.463V244.879H108.596ZM112.685 244.959C112.317 244.959 111.999 244.877 111.733 244.715C111.467 244.551 111.263 244.322 111.119 244.029C110.976 243.734 110.905 243.391 110.905 243C110.905 242.609 110.976 242.264 111.119 241.966C111.263 241.666 111.463 241.432 111.72 241.265C111.979 241.096 112.28 241.011 112.625 241.011C112.824 241.011 113.02 241.044 113.214 241.111C113.408 241.177 113.585 241.285 113.744 241.434C113.903 241.581 114.029 241.777 114.124 242.02C114.218 242.264 114.266 242.564 114.266 242.92V243.169H111.322V242.662H113.669C113.669 242.446 113.626 242.254 113.54 242.085C113.455 241.916 113.334 241.783 113.177 241.685C113.021 241.587 112.837 241.538 112.625 241.538C112.391 241.538 112.189 241.596 112.018 241.712C111.849 241.826 111.719 241.976 111.628 242.16C111.537 242.343 111.491 242.541 111.491 242.751V243.089C111.491 243.378 111.541 243.622 111.641 243.823C111.742 244.021 111.882 244.173 112.061 244.277C112.24 244.38 112.448 244.432 112.685 244.432C112.839 244.432 112.978 244.41 113.102 244.367C113.228 244.322 113.337 244.256 113.428 244.168C113.519 244.079 113.589 243.968 113.639 243.835L114.206 243.994C114.146 244.186 114.046 244.355 113.905 244.501C113.764 244.645 113.59 244.758 113.383 244.839C113.176 244.919 112.943 244.959 112.685 244.959ZM116.282 244.968C116.04 244.968 115.82 244.923 115.623 244.832C115.426 244.739 115.269 244.606 115.153 244.432C115.037 244.256 114.979 244.044 114.979 243.795C114.979 243.576 115.022 243.399 115.108 243.263C115.194 243.126 115.31 243.018 115.454 242.94C115.598 242.862 115.757 242.804 115.931 242.766C116.107 242.726 116.283 242.695 116.461 242.672C116.693 242.642 116.881 242.619 117.025 242.604C117.171 242.588 117.277 242.561 117.343 242.522C117.411 242.484 117.445 242.418 117.445 242.324V242.304C117.445 242.058 117.378 241.868 117.244 241.732C117.111 241.596 116.91 241.528 116.64 241.528C116.359 241.528 116.14 241.589 115.981 241.712C115.822 241.835 115.71 241.966 115.645 242.105L115.088 241.906C115.188 241.674 115.32 241.493 115.486 241.364C115.654 241.233 115.836 241.142 116.033 241.091C116.232 241.038 116.427 241.011 116.62 241.011C116.742 241.011 116.883 241.026 117.042 241.056C117.203 241.084 117.358 241.143 117.507 241.232C117.658 241.322 117.783 241.457 117.882 241.638C117.982 241.818 118.032 242.06 118.032 242.363V244.879H117.445V244.362H117.415C117.375 244.445 117.309 244.533 117.216 244.628C117.123 244.722 117 244.803 116.846 244.869C116.692 244.935 116.504 244.968 116.282 244.968ZM116.371 244.441C116.603 244.441 116.799 244.396 116.958 244.305C117.118 244.214 117.239 244.096 117.321 243.952C117.404 243.808 117.445 243.656 117.445 243.497V242.96C117.42 242.99 117.365 243.017 117.281 243.042C117.198 243.065 117.102 243.086 116.993 243.104C116.885 243.121 116.78 243.136 116.677 243.149C116.576 243.16 116.494 243.17 116.431 243.179C116.278 243.199 116.136 243.231 116.003 243.276C115.872 243.319 115.766 243.384 115.685 243.472C115.605 243.558 115.566 243.676 115.566 243.825C115.566 244.029 115.641 244.183 115.792 244.287C115.944 244.39 116.137 244.441 116.371 244.441ZM120.763 241.061V241.558H118.784V241.061H120.763ZM119.361 240.146H119.948V243.785C119.948 243.951 119.972 244.075 120.02 244.158C120.069 244.239 120.132 244.294 120.209 244.322C120.286 244.349 120.368 244.362 120.455 244.362C120.519 244.362 120.572 244.359 120.614 244.352C120.655 244.344 120.688 244.337 120.713 244.332L120.832 244.859C120.793 244.874 120.737 244.889 120.666 244.904C120.595 244.92 120.504 244.929 120.395 244.929C120.229 244.929 120.067 244.893 119.908 244.822C119.75 244.751 119.619 244.642 119.515 244.496C119.412 244.35 119.361 244.166 119.361 243.944V240.146ZM123.155 244.959C122.811 244.959 122.508 244.877 122.248 244.712C121.99 244.548 121.787 244.319 121.642 244.024C121.497 243.729 121.425 243.384 121.425 242.99C121.425 242.592 121.497 242.245 121.642 241.948C121.787 241.652 121.99 241.421 122.248 241.257C122.508 241.093 122.811 241.011 123.155 241.011C123.5 241.011 123.802 241.093 124.06 241.257C124.32 241.421 124.523 241.652 124.667 241.948C124.813 242.245 124.886 242.592 124.886 242.99C124.886 243.384 124.813 243.729 124.667 244.024C124.523 244.319 124.32 244.548 124.06 244.712C123.802 244.877 123.5 244.959 123.155 244.959ZM123.155 244.432C123.417 244.432 123.633 244.364 123.802 244.23C123.971 244.096 124.096 243.919 124.177 243.701C124.258 243.482 124.299 243.245 124.299 242.99C124.299 242.735 124.258 242.497 124.177 242.276C124.096 242.056 123.971 241.878 123.802 241.742C123.633 241.606 123.417 241.538 123.155 241.538C122.894 241.538 122.678 241.606 122.509 241.742C122.34 241.878 122.215 242.056 122.134 242.276C122.053 242.497 122.012 242.735 122.012 242.99C122.012 243.245 122.053 243.482 122.134 243.701C122.215 243.919 122.34 244.096 122.509 244.23C122.678 244.364 122.894 244.432 123.155 244.432ZM125.781 244.879V241.061H126.348V241.638H126.388C126.457 241.449 126.583 241.295 126.765 241.178C126.948 241.06 127.153 241.001 127.382 241.001C127.425 241.001 127.479 241.002 127.544 241.004C127.608 241.005 127.657 241.008 127.69 241.011V241.608C127.67 241.603 127.625 241.595 127.553 241.585C127.484 241.574 127.41 241.568 127.332 241.568C127.147 241.568 126.981 241.607 126.835 241.685C126.691 241.761 126.577 241.867 126.492 242.003C126.409 242.137 126.368 242.29 126.368 242.463V244.879H125.781ZM131.09 241.916L130.563 242.065C130.53 241.977 130.481 241.892 130.416 241.809C130.353 241.725 130.267 241.655 130.158 241.6C130.049 241.546 129.909 241.518 129.738 241.518C129.504 241.518 129.309 241.572 129.154 241.68C129 241.786 128.922 241.921 128.922 242.085C128.922 242.231 128.976 242.346 129.082 242.43C129.188 242.515 129.353 242.585 129.579 242.642L130.146 242.781C130.487 242.864 130.741 242.991 130.909 243.161C131.076 243.33 131.16 243.548 131.16 243.815C131.16 244.034 131.097 244.229 130.971 244.402C130.847 244.574 130.672 244.71 130.449 244.809C130.225 244.909 129.965 244.959 129.668 244.959C129.279 244.959 128.956 244.874 128.701 244.705C128.446 244.536 128.284 244.289 128.217 243.964L128.773 243.825C128.826 244.031 128.927 244.185 129.074 244.287C129.223 244.39 129.418 244.441 129.658 244.441C129.932 244.441 130.149 244.383 130.31 244.267C130.472 244.15 130.553 244.009 130.553 243.845C130.553 243.712 130.507 243.601 130.414 243.512C130.321 243.421 130.179 243.353 129.986 243.308L129.35 243.159C129 243.076 128.744 242.948 128.579 242.774C128.417 242.598 128.336 242.378 128.336 242.115C128.336 241.899 128.396 241.709 128.517 241.543C128.64 241.377 128.806 241.247 129.017 241.153C129.229 241.058 129.469 241.011 129.738 241.011C130.116 241.011 130.412 241.094 130.628 241.26C130.845 241.425 130.999 241.644 131.09 241.916ZM134.389 246.311C134.29 246.311 134.201 246.303 134.123 246.286C134.046 246.271 133.992 246.256 133.962 246.241L134.111 245.724C134.253 245.761 134.379 245.774 134.489 245.764C134.598 245.754 134.695 245.705 134.78 245.617C134.866 245.531 134.945 245.391 135.016 245.197L135.125 244.899L133.713 241.061H134.35L135.404 244.103H135.443L136.497 241.061H137.134L135.513 245.436C135.44 245.633 135.35 245.796 135.242 245.926C135.134 246.056 135.009 246.153 134.867 246.216C134.726 246.279 134.567 246.311 134.389 246.311ZM139.372 244.959C139.004 244.959 138.687 244.877 138.42 244.715C138.155 244.551 137.95 244.322 137.806 244.029C137.664 243.734 137.592 243.391 137.592 243C137.592 242.609 137.664 242.264 137.806 241.966C137.95 241.666 138.151 241.432 138.408 241.265C138.666 241.096 138.968 241.011 139.312 241.011C139.511 241.011 139.708 241.044 139.902 241.111C140.096 241.177 140.272 241.285 140.431 241.434C140.59 241.581 140.717 241.777 140.811 242.02C140.906 242.264 140.953 242.564 140.953 242.92V243.169H138.01V242.662H140.357C140.357 242.446 140.313 242.254 140.227 242.085C140.143 241.916 140.022 241.783 139.864 241.685C139.709 241.587 139.525 241.538 139.312 241.538C139.079 241.538 138.877 241.596 138.706 241.712C138.537 241.826 138.407 241.976 138.316 242.16C138.225 242.343 138.179 242.541 138.179 242.751V243.089C138.179 243.378 138.229 243.622 138.328 243.823C138.429 244.021 138.569 244.173 138.748 244.277C138.927 244.38 139.135 244.432 139.372 244.432C139.526 244.432 139.665 244.41 139.79 244.367C139.916 244.322 140.024 244.256 140.115 244.168C140.207 244.079 140.277 243.968 140.327 243.835L140.893 243.994C140.834 244.186 140.734 244.355 140.593 244.501C140.452 244.645 140.278 244.758 140.071 244.839C139.864 244.919 139.631 244.959 139.372 244.959ZM143.506 241.061V241.558H141.527V241.061H143.506ZM142.104 240.146H142.691V243.785C142.691 243.951 142.715 244.075 142.763 244.158C142.813 244.239 142.875 244.294 142.952 244.322C143.03 244.349 143.112 244.362 143.198 244.362C143.262 244.362 143.315 244.359 143.357 244.352C143.398 244.344 143.431 244.337 143.456 244.332L143.576 244.859C143.536 244.874 143.48 244.889 143.409 244.904C143.338 244.92 143.248 244.929 143.138 244.929C142.972 244.929 142.81 244.893 142.651 244.822C142.493 244.751 142.363 244.642 142.258 244.496C142.155 244.35 142.104 244.166 142.104 243.944V240.146Z" fill="#A0A0A0"/>
</g>
<defs>
<clipPath id="clip0_2002_2">
<rect width="247" height="313" fill="white"/>
</clipPath>
</defs>
</svg>
